<svg width="140" height="150" viewBox="0 0 140 150" fill="none" xmlns="http://www.w3.org/2000/svg">
    <ellipse cx="70" cy="122" rx="52" ry="11" fill="#F1F3F9"/>
    <mask id="mask0_3506_620" style="mask-type:alpha" maskUnits="userSpaceOnUse" x="22" y="24" width="95" height="95">
        <mask id="path-2-inside-1_3506_620" fill="white">
            <path fill-rule="evenodd" clip-rule="evenodd" d="M116.802 53.4479C116.802 52.3254 116.802 51.2028 116.795 50.0803C116.79 49.1346 116.779 48.1892 116.753 47.244C116.698 45.1839 116.576 43.1061 116.21 41.069C115.838 39.0025 115.231 37.0791 114.275 35.2015C113.335 33.356 112.107 31.6672 110.642 30.2031C109.177 28.739 107.488 27.5119 105.642 26.5725C103.762 25.616 101.837 25.0095 99.7682 24.638C97.7309 24.2722 95.6525 24.1509 93.5924 24.0952C92.6466 24.0697 91.7007 24.0589 90.7546 24.053C89.6314 24.0461 88.5083 24.0467 87.3851 24.0467L74.3441 24H64.5904L51.7802 24.0467C50.6549 24.0467 49.5295 24.0461 48.4042 24.053C47.4561 24.0589 46.5085 24.0697 45.5608 24.0952C43.4959 24.1509 41.4129 24.2723 39.3707 24.6386C37.2991 25.0099 35.3709 25.6162 33.4887 26.572C31.6386 27.5116 29.9458 28.7388 28.4779 30.2031C27.0102 31.6671 25.78 33.3555 24.8383 35.2007C23.8794 37.0793 23.2715 39.0037 22.899 41.0714C22.5323 43.1077 22.4108 45.1848 22.3549 47.244C22.3294 48.1893 22.3184 49.1347 22.3127 50.0803C22.3058 51.203 22.248 52.5975 22.248 53.7201L22.2484 66.3529L22.248 76.211L22.3063 89.1122C22.3063 90.2362 22.3059 91.3603 22.3127 92.4844C22.3184 93.4313 22.3294 94.378 22.355 95.3246C22.4108 97.3873 22.5325 99.4681 22.8996 101.508C23.272 103.577 23.8798 105.503 24.8378 107.383C25.7797 109.232 27.0101 110.922 28.4779 112.389C29.9456 113.855 31.6381 115.084 33.4878 116.024C35.3711 116.982 37.3002 117.589 39.3731 117.961C41.4143 118.328 43.4967 118.449 45.5608 118.505C46.5085 118.53 47.4562 118.541 48.4043 118.547C49.5296 118.554 50.6549 118.554 51.7802 118.554L64.7062 118.554H74.4841L87.3851 118.553C88.5083 118.553 89.6314 118.554 90.7546 118.547C91.7007 118.541 92.6466 118.53 93.5924 118.505C95.6533 118.449 97.7324 118.327 99.7706 117.961C101.838 117.589 103.763 116.982 105.641 116.025C107.488 115.084 109.177 113.855 110.642 112.389C112.107 110.923 113.335 109.232 114.275 107.384C115.232 105.503 115.838 103.576 116.21 101.506C116.576 99.4665 116.698 97.3865 116.753 95.3246C116.779 94.3779 116.79 93.4312 116.795 92.4844C116.802 91.3603 116.802 90.2362 116.802 89.1122C116.802 89.1122 116.801 76.4388 116.801 76.211V66.3425C116.801 66.1743 116.802 53.4479 116.802 53.4479Z"/>
        </mask>
        <path fill-rule="evenodd" clip-rule="evenodd" d="M116.802 53.4479C116.802 52.3254 116.802 51.2028 116.795 50.0803C116.79 49.1346 116.779 48.1892 116.753 47.244C116.698 45.1839 116.576 43.1061 116.21 41.069C115.838 39.0025 115.231 37.0791 114.275 35.2015C113.335 33.356 112.107 31.6672 110.642 30.2031C109.177 28.739 107.488 27.5119 105.642 26.5725C103.762 25.616 101.837 25.0095 99.7682 24.638C97.7309 24.2722 95.6525 24.1509 93.5924 24.0952C92.6466 24.0697 91.7007 24.0589 90.7546 24.053C89.6314 24.0461 88.5083 24.0467 87.3851 24.0467L74.3441 24H64.5904L51.7802 24.0467C50.6549 24.0467 49.5295 24.0461 48.4042 24.053C47.4561 24.0589 46.5085 24.0697 45.5608 24.0952C43.4959 24.1509 41.4129 24.2723 39.3707 24.6386C37.2991 25.0099 35.3709 25.6162 33.4887 26.572C31.6386 27.5116 29.9458 28.7388 28.4779 30.2031C27.0102 31.6671 25.78 33.3555 24.8383 35.2007C23.8794 37.0793 23.2715 39.0037 22.899 41.0714C22.5323 43.1077 22.4108 45.1848 22.3549 47.244C22.3294 48.1893 22.3184 49.1347 22.3127 50.0803C22.3058 51.203 22.248 52.5975 22.248 53.7201L22.2484 66.3529L22.248 76.211L22.3063 89.1122C22.3063 90.2362 22.3059 91.3603 22.3127 92.4844C22.3184 93.4313 22.3294 94.378 22.355 95.3246C22.4108 97.3873 22.5325 99.4681 22.8996 101.508C23.272 103.577 23.8798 105.503 24.8378 107.383C25.7797 109.232 27.0101 110.922 28.4779 112.389C29.9456 113.855 31.6381 115.084 33.4878 116.024C35.3711 116.982 37.3002 117.589 39.3731 117.961C41.4143 118.328 43.4967 118.449 45.5608 118.505C46.5085 118.53 47.4562 118.541 48.4043 118.547C49.5296 118.554 50.6549 118.554 51.7802 118.554L64.7062 118.554H74.4841L87.3851 118.553C88.5083 118.553 89.6314 118.554 90.7546 118.547C91.7007 118.541 92.6466 118.53 93.5924 118.505C95.6533 118.449 97.7324 118.327 99.7706 117.961C101.838 117.589 103.763 116.982 105.641 116.025C107.488 115.084 109.177 113.855 110.642 112.389C112.107 110.923 113.335 109.232 114.275 107.384C115.232 105.503 115.838 103.576 116.21 101.506C116.576 99.4665 116.698 97.3865 116.753 95.3246C116.779 94.3779 116.79 93.4312 116.795 92.4844C116.802 91.3603 116.802 90.2362 116.802 89.1122C116.802 89.1122 116.801 76.4388 116.801 76.211V66.3425C116.801 66.1743 116.802 53.4479 116.802 53.4479Z" fill="#5EB5FF"/>
        <path d="M116.795 50.0803L114.432 50.0943V50.0947L116.795 50.0803ZM116.753 47.244L114.39 47.3077L114.39 47.3082L116.753 47.244ZM116.21 41.069L113.883 41.4873L113.883 41.4874L116.21 41.069ZM114.275 35.2015L116.382 34.1288L116.382 34.1286L114.275 35.2015ZM110.642 30.2031L108.971 31.875L108.971 31.8752L110.642 30.2031ZM105.642 26.5725L106.714 24.4657L106.714 24.4657L105.642 26.5725ZM99.7682 24.638L99.3505 26.9646L99.3505 26.9647L99.7682 24.638ZM93.5924 24.0952L93.5285 26.4582L93.5286 26.4582L93.5924 24.0952ZM90.7546 24.053L90.7692 21.6892L90.7691 21.6892L90.7546 24.053ZM87.3851 24.0467L87.3766 26.4106H87.3851V24.0467ZM74.3441 24L74.3526 21.6362H74.3441V24ZM64.5904 24V21.6361L64.5818 21.6362L64.5904 24ZM51.7802 24.0467V26.4106L51.7888 26.4105L51.7802 24.0467ZM48.4042 24.053L48.3897 21.6892L48.3896 21.6892L48.4042 24.053ZM45.5608 24.0952L45.6245 26.4582L45.6246 26.4582L45.5608 24.0952ZM39.3707 24.6386L39.7877 26.9653L39.788 26.9653L39.3707 24.6386ZM33.4887 26.572L32.4185 24.4643L32.4184 24.4644L33.4887 26.572ZM28.4779 30.2031L30.1473 31.8767L30.1474 31.8766L28.4779 30.2031ZM24.8383 35.2007L26.9437 36.2753L26.9437 36.2753L24.8383 35.2007ZM22.899 41.0714L20.5726 40.6523L20.5726 40.6524L22.899 41.0714ZM22.3549 47.244L19.9919 47.1799L19.9919 47.1803L22.3549 47.244ZM22.3127 50.0803L24.6765 50.0947L24.6765 50.0946L22.3127 50.0803ZM22.248 53.7201H19.8842V53.7202L22.248 53.7201ZM22.2484 66.3529L24.6122 66.353V66.3528L22.2484 66.3529ZM22.248 76.211L19.8842 76.2109L19.8842 76.2217L22.248 76.211ZM22.3063 89.1122H24.6702L24.6702 89.1015L22.3063 89.1122ZM22.3127 92.4844L19.9488 92.4986L19.9488 92.4987L22.3127 92.4844ZM22.355 95.3246L19.992 95.3885L19.992 95.3885L22.355 95.3246ZM22.8996 101.508L25.2261 101.089L25.2261 101.089L22.8996 101.508ZM24.8378 107.383L22.7317 108.457L22.7317 108.457L24.8378 107.383ZM33.4878 116.024L32.4162 118.131L32.4163 118.131L33.4878 116.024ZM39.3731 117.961L39.7907 115.635L39.7905 115.635L39.3731 117.961ZM45.5608 118.505L45.6246 116.142L45.6245 116.142L45.5608 118.505ZM48.4043 118.547L48.4187 116.183H48.4186L48.4043 118.547ZM51.7802 118.554L51.7803 116.19H51.7802V118.554ZM64.7062 118.554L64.7062 120.918H64.7062V118.554ZM74.4841 118.554V120.918H74.4842L74.4841 118.554ZM87.3851 118.553V116.19H87.385L87.3851 118.553ZM90.7546 118.547L90.7402 116.183H90.7401L90.7546 118.547ZM93.5924 118.505L93.6564 120.868H93.6564L93.5924 118.505ZM99.7706 117.961L100.189 120.287H100.189L99.7706 117.961ZM105.641 116.025L104.568 113.918L104.568 113.918L105.641 116.025ZM110.642 112.389L108.97 110.718L108.97 110.718L110.642 112.389ZM114.275 107.384L116.382 108.456L116.382 108.456L114.275 107.384ZM116.21 101.506L118.537 101.923L118.537 101.923L116.21 101.506ZM116.753 95.3246L114.39 95.2607L114.39 95.2608L116.753 95.3246ZM116.795 92.4844L114.432 92.4697L114.432 92.4704L116.795 92.4844ZM116.802 89.1122H119.166V89.112L116.802 89.1122ZM119.166 53.4479C119.166 52.3276 119.166 51.1971 119.159 50.0658L114.432 50.0947C114.439 51.2086 114.438 52.3232 114.438 53.4479H119.166ZM119.159 50.0662C119.154 49.1127 119.143 48.1486 119.116 47.1797L114.39 47.3082C114.415 48.2297 114.426 49.1565 114.432 50.0943L119.159 50.0662ZM119.116 47.1803C119.06 45.081 118.934 42.8634 118.536 40.6505L113.883 41.4874C114.218 43.3488 114.336 45.2868 114.39 47.3077L119.116 47.1803ZM118.536 40.6507C118.129 38.386 117.456 36.2378 116.382 34.1288L112.169 36.2742C113.007 37.9205 113.547 39.6189 113.883 41.4873L118.536 40.6507ZM116.382 34.1286C115.329 32.0613 113.954 30.1704 112.313 28.531L108.971 31.8752C110.261 33.164 111.342 34.6506 112.169 36.2744L116.382 34.1286ZM112.313 28.5312C110.673 26.892 108.782 25.518 106.714 24.4657L104.57 28.6792C106.194 29.5059 107.682 30.5861 108.971 31.875L112.313 28.5312ZM106.714 24.4657C104.603 23.3914 102.453 22.7183 100.186 22.3114L99.3505 26.9647C101.221 27.3006 102.922 27.8406 104.57 28.6792L106.714 24.4657ZM100.186 22.3114C97.9731 21.914 95.7552 21.789 93.6563 21.7323L93.5286 26.4582C95.5498 26.5128 97.4886 26.6303 99.3505 26.9646L100.186 22.3114ZM93.6564 21.7323C92.6869 21.706 91.7225 21.6951 90.7692 21.6892L90.74 26.4168C91.6789 26.4226 92.6063 26.4333 93.5285 26.4582L93.6564 21.7323ZM90.7691 21.6892C89.6371 21.6823 88.5058 21.6829 87.3851 21.6829V26.4106C88.5107 26.4106 89.6257 26.41 90.7401 26.4168L90.7691 21.6892ZM87.3936 21.6829L74.3526 21.6362L74.3356 26.3638L87.3766 26.4105L87.3936 21.6829ZM74.3441 21.6362H64.5904V26.3638H74.3441V21.6362ZM64.5818 21.6362L51.7716 21.6829L51.7888 26.4105L64.599 26.3638L64.5818 21.6362ZM51.7802 21.6829C50.6573 21.6829 49.5238 21.6823 48.3897 21.6892L48.4186 26.4168C49.5352 26.41 50.6524 26.4106 51.7802 26.4106V21.6829ZM48.3896 21.6892C47.4343 21.6951 46.4683 21.706 45.497 21.7323L45.6246 26.4582C46.5487 26.4333 47.4779 26.4226 48.4188 26.4168L48.3896 21.6892ZM45.4971 21.7323C43.3934 21.789 41.1709 21.9141 38.9534 22.3119L39.788 26.9653C41.6548 26.6305 43.5984 26.5128 45.6245 26.4582L45.4971 21.7323ZM38.9536 22.3118C36.6846 22.7185 34.5318 23.3912 32.4185 24.4643L34.559 28.6797C36.2099 27.8413 37.9136 27.3013 39.7877 26.9653L38.9536 22.3118ZM32.4184 24.4644C30.3468 25.5164 28.4518 26.8902 26.8084 28.5296L30.1474 31.8766C31.4397 30.5874 32.9305 29.5067 34.5591 28.6796L32.4184 24.4644ZM26.8085 28.5295C25.1654 30.1685 23.7878 32.0589 22.7328 34.1261L26.9437 36.2753C27.7722 34.6521 28.8551 33.1657 30.1473 31.8767L26.8085 28.5295ZM22.7328 34.126C21.6556 36.2366 20.9808 38.3864 20.5726 40.6523L25.2254 41.4905C25.5622 39.621 26.1033 37.9219 26.9437 36.2753L22.7328 34.126ZM20.5726 40.6524C20.1742 42.8647 20.0488 45.0818 19.9919 47.1799L24.7179 47.3081C24.7727 45.2878 24.8904 43.3507 25.2254 41.4904L20.5726 40.6524ZM19.9919 47.1803C19.9658 48.1488 19.9546 49.1125 19.9488 50.0659L24.6765 50.0946C24.6821 49.157 24.693 48.2298 24.7179 47.3077L19.9919 47.1803ZM19.9488 50.0658C19.9456 50.6006 19.9301 51.2046 19.9146 51.8428C19.8994 52.4682 19.8842 53.1256 19.8842 53.7201H24.6119C24.6119 53.192 24.6255 52.5908 24.6409 51.9576C24.656 51.3372 24.6728 50.6826 24.6765 50.0947L19.9488 50.0658ZM19.8842 53.7202L19.8845 66.3529L24.6122 66.3528L24.6119 53.72L19.8842 53.7202ZM19.8845 66.3528L19.8842 76.2109L24.6119 76.2111L24.6122 66.353L19.8845 66.3528ZM19.8842 76.2217L19.9425 89.1228L24.6702 89.1015L24.6119 76.2003L19.8842 76.2217ZM19.9425 89.1122C19.9425 90.2341 19.942 91.366 19.9488 92.4986L24.6765 92.4702C24.6697 91.3547 24.6702 90.2384 24.6702 89.1122H19.9425ZM19.9488 92.4987C19.9546 93.4535 19.9658 94.4185 19.992 95.3885L24.718 95.2607C24.693 94.3375 24.6821 93.4091 24.6765 92.4701L19.9488 92.4987ZM19.992 95.3885C20.0488 97.4903 20.1744 99.7109 20.5731 101.927L25.2261 101.089C24.8906 99.2252 24.7727 97.2844 24.718 95.2607L19.992 95.3885ZM20.5731 101.927C20.9811 104.194 21.6556 106.345 22.7317 108.457L26.944 106.31C26.1039 104.662 25.5628 102.961 25.2261 101.089L20.5731 101.927ZM22.7317 108.457C23.7867 110.527 25.1643 112.42 26.8073 114.061L30.1485 110.716C28.856 109.425 27.7727 107.936 26.9439 106.31L22.7317 108.457ZM26.8073 114.061C28.4504 115.702 30.3448 117.078 32.4162 118.131L34.5595 113.917C32.9313 113.089 31.4409 112.007 30.1485 110.716L26.8073 114.061ZM32.4163 118.131C34.531 119.207 36.685 119.881 38.9556 120.288L39.7905 115.635C37.9155 115.298 36.2111 114.757 34.5593 113.917L32.4163 118.131ZM38.9555 120.288C41.1721 120.686 43.394 120.811 45.4971 120.868L45.6245 116.142C43.5994 116.087 41.6565 115.97 39.7907 115.635L38.9555 120.288ZM45.497 120.868C46.4682 120.894 47.4343 120.905 48.39 120.911L48.4186 116.183C47.4782 116.178 46.5489 116.167 45.6246 116.142L45.497 120.868ZM48.3898 120.911C49.5239 120.918 50.657 120.917 51.7802 120.917V116.19C50.6527 116.19 49.5354 116.19 48.4187 116.183L48.3898 120.911ZM51.7801 120.917L64.7062 120.918L64.7063 116.19L51.7803 116.19L51.7801 120.917ZM64.7062 120.918H74.4841V116.19H64.7062V120.918ZM74.4842 120.918L87.3852 120.917L87.385 116.19L74.484 116.19L74.4842 120.918ZM87.3851 120.917C88.5058 120.917 89.6371 120.918 90.7691 120.911L90.7401 116.183C89.6257 116.19 88.5107 116.19 87.3851 116.19V120.917ZM90.7689 120.911C91.7227 120.905 92.687 120.894 93.6564 120.868L93.5285 116.142C92.6061 116.167 91.6787 116.178 90.7402 116.183L90.7689 120.911ZM93.6564 120.868C95.7563 120.811 97.9751 120.686 100.189 120.287L99.3522 115.634C97.4896 115.969 95.5504 116.087 93.5285 116.142L93.6564 120.868ZM100.189 120.287C102.455 119.88 104.604 119.206 106.714 118.131L104.568 113.918C102.921 114.758 101.222 115.298 99.3521 115.634L100.189 120.287ZM106.714 118.131C108.783 117.077 110.674 115.701 112.315 114.059L108.97 110.718C107.68 112.009 106.193 113.091 104.568 113.918L106.714 118.131ZM112.314 114.06C113.954 112.418 115.329 110.525 116.382 108.456L112.168 106.312C111.341 107.939 110.26 109.427 108.97 110.718L112.314 114.06ZM116.382 108.456C117.456 106.343 118.13 104.192 118.537 101.923L113.884 101.088C113.547 102.961 113.007 104.663 112.168 106.312L116.382 108.456ZM118.537 101.923C118.934 99.7087 119.06 97.4892 119.116 95.3884L114.39 95.2608C114.336 97.2838 114.218 99.2242 113.884 101.088L118.537 101.923ZM119.116 95.3885C119.143 94.4183 119.154 93.4531 119.159 92.4985L114.432 92.4704C114.426 93.4093 114.415 94.3375 114.39 95.2607L119.116 95.3885ZM119.159 92.4991C119.166 91.3661 119.166 90.2338 119.166 89.1122H114.438C114.438 90.2387 114.439 91.3546 114.432 92.4697L119.159 92.4991ZM116.802 89.1122C119.166 89.112 119.166 89.112 119.166 89.1119C119.166 89.1118 119.166 89.1116 119.166 89.1115C119.166 89.1111 119.166 89.1105 119.166 89.1097C119.166 89.1082 119.166 89.1059 119.166 89.1028C119.166 89.0967 119.166 89.0877 119.166 89.0757C119.166 89.0517 119.166 89.0161 119.166 88.9697C119.166 88.8768 119.166 88.7405 119.166 88.567C119.166 88.22 119.166 87.7241 119.166 87.1283C119.166 85.9366 119.166 84.3453 119.165 82.7469C119.165 79.55 119.165 76.3248 119.165 76.211H114.437C114.437 76.325 114.438 79.5504 114.438 82.7471C114.438 84.3455 114.438 85.9368 114.438 87.1285C114.438 87.7244 114.438 88.2203 114.438 88.5673C114.438 88.7408 114.438 88.877 114.438 88.9699C114.438 89.0163 114.438 89.0519 114.438 89.0759C114.438 89.0879 114.438 89.097 114.438 89.1031C114.438 89.1061 114.438 89.1085 114.438 89.11C114.438 89.1108 114.438 89.1113 114.438 89.1117C114.438 89.1119 114.438 89.112 114.438 89.1121C114.438 89.1122 114.438 89.1123 116.802 89.1122ZM119.165 76.211V66.3425H114.437V76.211H119.165ZM119.165 66.3425C119.165 66.2585 119.165 63.035 119.165 59.8323C119.166 58.231 119.166 56.6349 119.166 55.4392C119.166 54.8413 119.166 54.3435 119.166 53.9952C119.166 53.8211 119.166 53.6843 119.166 53.591C119.166 53.5444 119.166 53.5086 119.166 53.4846C119.166 53.4725 119.166 53.4634 119.166 53.4573C119.166 53.4542 119.166 53.4519 119.166 53.4504C119.166 53.4496 119.166 53.449 119.166 53.4486C119.166 53.4484 119.166 53.4483 119.166 53.4482C119.166 53.4481 119.166 53.448 116.802 53.4479C114.438 53.4478 114.438 53.4478 114.438 53.4479C114.438 53.448 114.438 53.4482 114.438 53.4484C114.438 53.4487 114.438 53.4494 114.438 53.4501C114.438 53.4516 114.438 53.454 114.438 53.457C114.438 53.4631 114.438 53.4723 114.438 53.4843C114.438 53.5084 114.438 53.5441 114.438 53.5908C114.438 53.684 114.438 53.8208 114.438 53.995C114.438 54.3433 114.438 54.8411 114.438 55.4389C114.438 56.6347 114.438 58.2307 114.438 59.832C114.438 63.0346 114.437 66.2583 114.437 66.3425H119.165Z" fill="#1976F0" mask="url(#path-2-inside-1_3506_620)"/>
    </mask>
    <g mask="url(#mask0_3506_620)">
        <mask id="path-4-inside-2_3506_620" fill="white">
            <path fill-rule="evenodd" clip-rule="evenodd" d="M116.802 53.4479C116.802 52.3254 116.802 51.2028 116.795 50.0803C116.79 49.1346 116.779 48.1892 116.753 47.244C116.698 45.1839 116.576 43.1061 116.21 41.069C115.838 39.0025 115.231 37.0791 114.275 35.2015C113.335 33.356 112.107 31.6672 110.642 30.2031C109.177 28.739 107.488 27.5119 105.642 26.5725C103.762 25.616 101.837 25.0095 99.7682 24.638C97.7309 24.2722 95.6525 24.1509 93.5924 24.0952C92.6466 24.0697 91.7007 24.0589 90.7546 24.053C89.6314 24.0461 88.5083 24.0467 87.3851 24.0467L74.3441 24H64.5904L51.7802 24.0467C50.6549 24.0467 49.5295 24.0461 48.4042 24.053C47.4561 24.0589 46.5085 24.0697 45.5608 24.0952C43.4959 24.1509 41.4129 24.2723 39.3707 24.6386C37.2991 25.0099 35.3709 25.6162 33.4887 26.572C31.6386 27.5116 29.9458 28.7388 28.4779 30.2031C27.0102 31.6671 25.78 33.3555 24.8383 35.2007C23.8794 37.0793 23.2715 39.0037 22.899 41.0714C22.5323 43.1077 22.4108 45.1848 22.3549 47.244C22.3294 48.1893 22.3184 49.1347 22.3127 50.0803C22.3058 51.203 22.248 52.5975 22.248 53.7201L22.2484 66.3529L22.248 76.211L22.3063 89.1122C22.3063 90.2362 22.3059 91.3603 22.3127 92.4844C22.3184 93.4313 22.3294 94.378 22.355 95.3246C22.4108 97.3873 22.5325 99.4681 22.8996 101.508C23.272 103.577 23.8798 105.503 24.8378 107.383C25.7797 109.232 27.0101 110.922 28.4779 112.389C29.9456 113.855 31.6381 115.084 33.4878 116.024C35.3711 116.982 37.3002 117.589 39.3731 117.961C41.4143 118.328 43.4967 118.449 45.5608 118.505C46.5085 118.53 47.4562 118.541 48.4043 118.547C49.5296 118.554 50.6549 118.554 51.7802 118.554L64.7062 118.554H74.4841L87.3851 118.553C88.5083 118.553 89.6314 118.554 90.7546 118.547C91.7007 118.541 92.6466 118.53 93.5924 118.505C95.6533 118.449 97.7324 118.327 99.7706 117.961C101.838 117.589 103.763 116.982 105.641 116.025C107.488 115.084 109.177 113.855 110.642 112.389C112.107 110.923 113.335 109.232 114.275 107.384C115.232 105.503 115.838 103.576 116.21 101.506C116.576 99.4665 116.698 97.3865 116.753 95.3246C116.779 94.3779 116.79 93.4312 116.795 92.4844C116.802 91.3603 116.802 90.2362 116.802 89.1122C116.802 89.1122 116.801 76.4388 116.801 76.211V66.3425C116.801 66.1743 116.802 53.4479 116.802 53.4479Z"/>
        </mask>
        <path fill-rule="evenodd" clip-rule="evenodd" d="M116.802 53.4479C116.802 52.3254 116.802 51.2028 116.795 50.0803C116.79 49.1346 116.779 48.1892 116.753 47.244C116.698 45.1839 116.576 43.1061 116.21 41.069C115.838 39.0025 115.231 37.0791 114.275 35.2015C113.335 33.356 112.107 31.6672 110.642 30.2031C109.177 28.739 107.488 27.5119 105.642 26.5725C103.762 25.616 101.837 25.0095 99.7682 24.638C97.7309 24.2722 95.6525 24.1509 93.5924 24.0952C92.6466 24.0697 91.7007 24.0589 90.7546 24.053C89.6314 24.0461 88.5083 24.0467 87.3851 24.0467L74.3441 24H64.5904L51.7802 24.0467C50.6549 24.0467 49.5295 24.0461 48.4042 24.053C47.4561 24.0589 46.5085 24.0697 45.5608 24.0952C43.4959 24.1509 41.4129 24.2723 39.3707 24.6386C37.2991 25.0099 35.3709 25.6162 33.4887 26.572C31.6386 27.5116 29.9458 28.7388 28.4779 30.2031C27.0102 31.6671 25.78 33.3555 24.8383 35.2007C23.8794 37.0793 23.2715 39.0037 22.899 41.0714C22.5323 43.1077 22.4108 45.1848 22.3549 47.244C22.3294 48.1893 22.3184 49.1347 22.3127 50.0803C22.3058 51.203 22.248 52.5975 22.248 53.7201L22.2484 66.3529L22.248 76.211L22.3063 89.1122C22.3063 90.2362 22.3059 91.3603 22.3127 92.4844C22.3184 93.4313 22.3294 94.378 22.355 95.3246C22.4108 97.3873 22.5325 99.4681 22.8996 101.508C23.272 103.577 23.8798 105.503 24.8378 107.383C25.7797 109.232 27.0101 110.922 28.4779 112.389C29.9456 113.855 31.6381 115.084 33.4878 116.024C35.3711 116.982 37.3002 117.589 39.3731 117.961C41.4143 118.328 43.4967 118.449 45.5608 118.505C46.5085 118.53 47.4562 118.541 48.4043 118.547C49.5296 118.554 50.6549 118.554 51.7802 118.554L64.7062 118.554H74.4841L87.3851 118.553C88.5083 118.553 89.6314 118.554 90.7546 118.547C91.7007 118.541 92.6466 118.53 93.5924 118.505C95.6533 118.449 97.7324 118.327 99.7706 117.961C101.838 117.589 103.763 116.982 105.641 116.025C107.488 115.084 109.177 113.855 110.642 112.389C112.107 110.923 113.335 109.232 114.275 107.384C115.232 105.503 115.838 103.576 116.21 101.506C116.576 99.4665 116.698 97.3865 116.753 95.3246C116.779 94.3779 116.79 93.4312 116.795 92.4844C116.802 91.3603 116.802 90.2362 116.802 89.1122C116.802 89.1122 116.801 76.4388 116.801 76.211V66.3425C116.801 66.1743 116.802 53.4479 116.802 53.4479Z" fill="#5EB5FF"/>
        <path d="M116.795 50.0803L114.432 50.0943V50.0947L116.795 50.0803ZM116.753 47.244L114.39 47.3077L114.39 47.3082L116.753 47.244ZM116.21 41.069L113.883 41.4873L113.883 41.4874L116.21 41.069ZM114.275 35.2015L116.382 34.1288L116.382 34.1286L114.275 35.2015ZM110.642 30.2031L108.971 31.875L108.971 31.8752L110.642 30.2031ZM105.642 26.5725L106.714 24.4657L106.714 24.4657L105.642 26.5725ZM99.7682 24.638L99.3505 26.9646L99.3505 26.9647L99.7682 24.638ZM93.5924 24.0952L93.5285 26.4582L93.5286 26.4582L93.5924 24.0952ZM90.7546 24.053L90.7692 21.6892L90.7691 21.6892L90.7546 24.053ZM87.3851 24.0467L87.3766 26.4106H87.3851V24.0467ZM74.3441 24L74.3526 21.6362H74.3441V24ZM64.5904 24V21.6361L64.5818 21.6362L64.5904 24ZM51.7802 24.0467V26.4106L51.7888 26.4105L51.7802 24.0467ZM48.4042 24.053L48.3897 21.6892L48.3896 21.6892L48.4042 24.053ZM45.5608 24.0952L45.6245 26.4582L45.6246 26.4582L45.5608 24.0952ZM39.3707 24.6386L39.7877 26.9653L39.788 26.9653L39.3707 24.6386ZM33.4887 26.572L32.4185 24.4643L32.4184 24.4644L33.4887 26.572ZM28.4779 30.2031L30.1473 31.8767L30.1474 31.8766L28.4779 30.2031ZM24.8383 35.2007L26.9437 36.2753L26.9437 36.2753L24.8383 35.2007ZM22.899 41.0714L20.5726 40.6523L20.5726 40.6524L22.899 41.0714ZM22.3549 47.244L19.9919 47.1799L19.9919 47.1803L22.3549 47.244ZM22.3127 50.0803L24.6765 50.0947L24.6765 50.0946L22.3127 50.0803ZM22.248 53.7201H19.8842V53.7202L22.248 53.7201ZM22.2484 66.3529L24.6122 66.353V66.3528L22.2484 66.3529ZM22.248 76.211L19.8842 76.2109L19.8842 76.2217L22.248 76.211ZM22.3063 89.1122H24.6702L24.6702 89.1015L22.3063 89.1122ZM22.3127 92.4844L19.9488 92.4986L19.9488 92.4987L22.3127 92.4844ZM22.355 95.3246L19.992 95.3885L19.992 95.3885L22.355 95.3246ZM22.8996 101.508L25.2261 101.089L25.2261 101.089L22.8996 101.508ZM24.8378 107.383L22.7317 108.457L22.7317 108.457L24.8378 107.383ZM33.4878 116.024L32.4162 118.131L32.4163 118.131L33.4878 116.024ZM39.3731 117.961L39.7907 115.635L39.7905 115.635L39.3731 117.961ZM45.5608 118.505L45.6246 116.142L45.6245 116.142L45.5608 118.505ZM48.4043 118.547L48.4187 116.183H48.4186L48.4043 118.547ZM51.7802 118.554L51.7803 116.19H51.7802V118.554ZM64.7062 118.554L64.7062 120.918H64.7062V118.554ZM74.4841 118.554V120.918H74.4842L74.4841 118.554ZM87.3851 118.553V116.19H87.385L87.3851 118.553ZM90.7546 118.547L90.7402 116.183H90.7401L90.7546 118.547ZM93.5924 118.505L93.6564 120.868H93.6564L93.5924 118.505ZM99.7706 117.961L100.189 120.287H100.189L99.7706 117.961ZM105.641 116.025L104.568 113.918L104.568 113.918L105.641 116.025ZM110.642 112.389L108.97 110.718L108.97 110.718L110.642 112.389ZM114.275 107.384L116.382 108.456L116.382 108.456L114.275 107.384ZM116.21 101.506L118.537 101.923L118.537 101.923L116.21 101.506ZM116.753 95.3246L114.39 95.2607L114.39 95.2608L116.753 95.3246ZM116.795 92.4844L114.432 92.4697L114.432 92.4704L116.795 92.4844ZM116.802 89.1122H119.166V89.112L116.802 89.1122ZM119.166 53.4479C119.166 52.3276 119.166 51.1971 119.159 50.0658L114.432 50.0947C114.439 51.2086 114.438 52.3232 114.438 53.4479H119.166ZM119.159 50.0662C119.154 49.1127 119.143 48.1486 119.116 47.1797L114.39 47.3082C114.415 48.2297 114.426 49.1565 114.432 50.0943L119.159 50.0662ZM119.116 47.1803C119.06 45.081 118.934 42.8634 118.536 40.6505L113.883 41.4874C114.218 43.3488 114.336 45.2868 114.39 47.3077L119.116 47.1803ZM118.536 40.6507C118.129 38.386 117.456 36.2378 116.382 34.1288L112.169 36.2742C113.007 37.9205 113.547 39.6189 113.883 41.4873L118.536 40.6507ZM116.382 34.1286C115.329 32.0613 113.954 30.1704 112.313 28.531L108.971 31.8752C110.261 33.164 111.342 34.6506 112.169 36.2744L116.382 34.1286ZM112.313 28.5312C110.673 26.892 108.782 25.518 106.714 24.4657L104.57 28.6792C106.194 29.5059 107.682 30.5861 108.971 31.875L112.313 28.5312ZM106.714 24.4657C104.603 23.3914 102.453 22.7183 100.186 22.3114L99.3505 26.9647C101.221 27.3006 102.922 27.8406 104.57 28.6792L106.714 24.4657ZM100.186 22.3114C97.9731 21.914 95.7552 21.789 93.6563 21.7323L93.5286 26.4582C95.5498 26.5128 97.4886 26.6303 99.3505 26.9646L100.186 22.3114ZM93.6564 21.7323C92.6869 21.706 91.7225 21.6951 90.7692 21.6892L90.74 26.4168C91.6789 26.4226 92.6063 26.4333 93.5285 26.4582L93.6564 21.7323ZM90.7691 21.6892C89.6371 21.6823 88.5058 21.6829 87.3851 21.6829V26.4106C88.5107 26.4106 89.6257 26.41 90.7401 26.4168L90.7691 21.6892ZM87.3936 21.6829L74.3526 21.6362L74.3356 26.3638L87.3766 26.4105L87.3936 21.6829ZM74.3441 21.6362H64.5904V26.3638H74.3441V21.6362ZM64.5818 21.6362L51.7716 21.6829L51.7888 26.4105L64.599 26.3638L64.5818 21.6362ZM51.7802 21.6829C50.6573 21.6829 49.5238 21.6823 48.3897 21.6892L48.4186 26.4168C49.5352 26.41 50.6524 26.4106 51.7802 26.4106V21.6829ZM48.3896 21.6892C47.4343 21.6951 46.4683 21.706 45.497 21.7323L45.6246 26.4582C46.5487 26.4333 47.4779 26.4226 48.4188 26.4168L48.3896 21.6892ZM45.4971 21.7323C43.3934 21.789 41.1709 21.9141 38.9534 22.3119L39.788 26.9653C41.6548 26.6305 43.5984 26.5128 45.6245 26.4582L45.4971 21.7323ZM38.9536 22.3118C36.6846 22.7185 34.5318 23.3912 32.4185 24.4643L34.559 28.6797C36.2099 27.8413 37.9136 27.3013 39.7877 26.9653L38.9536 22.3118ZM32.4184 24.4644C30.3468 25.5164 28.4518 26.8902 26.8084 28.5296L30.1474 31.8766C31.4397 30.5874 32.9305 29.5067 34.5591 28.6796L32.4184 24.4644ZM26.8085 28.5295C25.1654 30.1685 23.7878 32.0589 22.7328 34.1261L26.9437 36.2753C27.7722 34.6521 28.8551 33.1657 30.1473 31.8767L26.8085 28.5295ZM22.7328 34.126C21.6556 36.2366 20.9808 38.3864 20.5726 40.6523L25.2254 41.4905C25.5622 39.621 26.1033 37.9219 26.9437 36.2753L22.7328 34.126ZM20.5726 40.6524C20.1742 42.8647 20.0488 45.0818 19.9919 47.1799L24.7179 47.3081C24.7727 45.2878 24.8904 43.3507 25.2254 41.4904L20.5726 40.6524ZM19.9919 47.1803C19.9658 48.1488 19.9546 49.1125 19.9488 50.0659L24.6765 50.0946C24.6821 49.157 24.693 48.2298 24.7179 47.3077L19.9919 47.1803ZM19.9488 50.0658C19.9456 50.6006 19.9301 51.2046 19.9146 51.8428C19.8994 52.4682 19.8842 53.1256 19.8842 53.7201H24.6119C24.6119 53.192 24.6255 52.5908 24.6409 51.9576C24.656 51.3372 24.6728 50.6826 24.6765 50.0947L19.9488 50.0658ZM19.8842 53.7202L19.8845 66.3529L24.6122 66.3528L24.6119 53.72L19.8842 53.7202ZM19.8845 66.3528L19.8842 76.2109L24.6119 76.2111L24.6122 66.353L19.8845 66.3528ZM19.8842 76.2217L19.9425 89.1228L24.6702 89.1015L24.6119 76.2003L19.8842 76.2217ZM19.9425 89.1122C19.9425 90.2341 19.942 91.366 19.9488 92.4986L24.6765 92.4702C24.6697 91.3547 24.6702 90.2384 24.6702 89.1122H19.9425ZM19.9488 92.4987C19.9546 93.4535 19.9658 94.4185 19.992 95.3885L24.718 95.2607C24.693 94.3375 24.6821 93.4091 24.6765 92.4701L19.9488 92.4987ZM19.992 95.3885C20.0488 97.4903 20.1744 99.7109 20.5731 101.927L25.2261 101.089C24.8906 99.2252 24.7727 97.2844 24.718 95.2607L19.992 95.3885ZM20.5731 101.927C20.9811 104.194 21.6556 106.345 22.7317 108.457L26.944 106.31C26.1039 104.662 25.5628 102.961 25.2261 101.089L20.5731 101.927ZM22.7317 108.457C23.7867 110.527 25.1643 112.42 26.8073 114.061L30.1485 110.716C28.856 109.425 27.7727 107.936 26.9439 106.31L22.7317 108.457ZM26.8073 114.061C28.4504 115.702 30.3448 117.078 32.4162 118.131L34.5595 113.917C32.9313 113.089 31.4409 112.007 30.1485 110.716L26.8073 114.061ZM32.4163 118.131C34.531 119.207 36.685 119.881 38.9556 120.288L39.7905 115.635C37.9155 115.298 36.2111 114.757 34.5593 113.917L32.4163 118.131ZM38.9555 120.288C41.1721 120.686 43.394 120.811 45.4971 120.868L45.6245 116.142C43.5994 116.087 41.6565 115.97 39.7907 115.635L38.9555 120.288ZM45.497 120.868C46.4682 120.894 47.4343 120.905 48.39 120.911L48.4186 116.183C47.4782 116.178 46.5489 116.167 45.6246 116.142L45.497 120.868ZM48.3898 120.911C49.5239 120.918 50.657 120.917 51.7802 120.917V116.19C50.6527 116.19 49.5354 116.19 48.4187 116.183L48.3898 120.911ZM51.7801 120.917L64.7062 120.918L64.7063 116.19L51.7803 116.19L51.7801 120.917ZM64.7062 120.918H74.4841V116.19H64.7062V120.918ZM74.4842 120.918L87.3852 120.917L87.385 116.19L74.484 116.19L74.4842 120.918ZM87.3851 120.917C88.5058 120.917 89.6371 120.918 90.7691 120.911L90.7401 116.183C89.6257 116.19 88.5107 116.19 87.3851 116.19V120.917ZM90.7689 120.911C91.7227 120.905 92.687 120.894 93.6564 120.868L93.5285 116.142C92.6061 116.167 91.6787 116.178 90.7402 116.183L90.7689 120.911ZM93.6564 120.868C95.7563 120.811 97.9751 120.686 100.189 120.287L99.3522 115.634C97.4896 115.969 95.5504 116.087 93.5285 116.142L93.6564 120.868ZM100.189 120.287C102.455 119.88 104.604 119.206 106.714 118.131L104.568 113.918C102.921 114.758 101.222 115.298 99.3521 115.634L100.189 120.287ZM106.714 118.131C108.783 117.077 110.674 115.701 112.315 114.059L108.97 110.718C107.68 112.009 106.193 113.091 104.568 113.918L106.714 118.131ZM112.314 114.06C113.954 112.418 115.329 110.525 116.382 108.456L112.168 106.312C111.341 107.939 110.26 109.427 108.97 110.718L112.314 114.06ZM116.382 108.456C117.456 106.343 118.13 104.192 118.537 101.923L113.884 101.088C113.547 102.961 113.007 104.663 112.168 106.312L116.382 108.456ZM118.537 101.923C118.934 99.7087 119.06 97.4892 119.116 95.3884L114.39 95.2608C114.336 97.2838 114.218 99.2242 113.884 101.088L118.537 101.923ZM119.116 95.3885C119.143 94.4183 119.154 93.4531 119.159 92.4985L114.432 92.4704C114.426 93.4093 114.415 94.3375 114.39 95.2607L119.116 95.3885ZM119.159 92.4991C119.166 91.3661 119.166 90.2338 119.166 89.1122H114.438C114.438 90.2387 114.439 91.3546 114.432 92.4697L119.159 92.4991ZM116.802 89.1122C119.166 89.112 119.166 89.112 119.166 89.1119C119.166 89.1118 119.166 89.1116 119.166 89.1115C119.166 89.1111 119.166 89.1105 119.166 89.1097C119.166 89.1082 119.166 89.1059 119.166 89.1028C119.166 89.0967 119.166 89.0877 119.166 89.0757C119.166 89.0517 119.166 89.0161 119.166 88.9697C119.166 88.8768 119.166 88.7405 119.166 88.567C119.166 88.22 119.166 87.7241 119.166 87.1283C119.166 85.9366 119.166 84.3453 119.165 82.7469C119.165 79.55 119.165 76.3248 119.165 76.211H114.437C114.437 76.325 114.438 79.5504 114.438 82.7471C114.438 84.3455 114.438 85.9368 114.438 87.1285C114.438 87.7244 114.438 88.2203 114.438 88.5673C114.438 88.7408 114.438 88.877 114.438 88.9699C114.438 89.0163 114.438 89.0519 114.438 89.0759C114.438 89.0879 114.438 89.097 114.438 89.1031C114.438 89.1061 114.438 89.1085 114.438 89.11C114.438 89.1108 114.438 89.1113 114.438 89.1117C114.438 89.1119 114.438 89.112 114.438 89.1121C114.438 89.1122 114.438 89.1123 116.802 89.1122ZM119.165 76.211V66.3425H114.437V76.211H119.165ZM119.165 66.3425C119.165 66.2585 119.165 63.035 119.165 59.8323C119.166 58.231 119.166 56.6349 119.166 55.4392C119.166 54.8413 119.166 54.3435 119.166 53.9952C119.166 53.8211 119.166 53.6843 119.166 53.591C119.166 53.5444 119.166 53.5086 119.166 53.4846C119.166 53.4725 119.166 53.4634 119.166 53.4573C119.166 53.4542 119.166 53.4519 119.166 53.4504C119.166 53.4496 119.166 53.449 119.166 53.4486C119.166 53.4484 119.166 53.4483 119.166 53.4482C119.166 53.4481 119.166 53.448 116.802 53.4479C114.438 53.4478 114.438 53.4478 114.438 53.4479C114.438 53.448 114.438 53.4482 114.438 53.4484C114.438 53.4487 114.438 53.4494 114.438 53.4501C114.438 53.4516 114.438 53.454 114.438 53.457C114.438 53.4631 114.438 53.4723 114.438 53.4843C114.438 53.5084 114.438 53.5441 114.438 53.5908C114.438 53.684 114.438 53.8208 114.438 53.995C114.438 54.3433 114.438 54.8411 114.438 55.4389C114.438 56.6347 114.438 58.2307 114.438 59.832C114.438 63.0346 114.437 66.2583 114.437 66.3425H119.165Z" fill="#1976F0" mask="url(#path-4-inside-2_3506_620)"/>
        <rect x="74.252" y="24" width="42.5492" height="94.5539" fill="#239AFF"/>
        <mask id="path-7-inside-3_3506_620" fill="white">
            <path fill-rule="evenodd" clip-rule="evenodd" d="M116.802 53.4479C116.802 52.3254 116.802 51.2028 116.795 50.0803C116.79 49.1346 116.779 48.1892 116.753 47.244C116.698 45.1839 116.576 43.1061 116.21 41.069C115.838 39.0025 115.231 37.0791 114.275 35.2015C113.335 33.356 112.107 31.6672 110.642 30.2031C109.177 28.739 107.488 27.5119 105.642 26.5725C103.762 25.616 101.837 25.0095 99.7682 24.638C97.7309 24.2722 95.6525 24.1509 93.5924 24.0952C92.6466 24.0697 91.7007 24.0589 90.7546 24.053C89.6314 24.0461 88.5083 24.0467 87.3851 24.0467L74.3441 24H64.5904L51.7802 24.0467C50.6549 24.0467 49.5295 24.0461 48.4042 24.053C47.4561 24.0589 46.5085 24.0697 45.5608 24.0952C43.4959 24.1509 41.4129 24.2723 39.3707 24.6386C37.2991 25.0099 35.3709 25.6162 33.4887 26.572C31.6386 27.5116 29.9458 28.7388 28.4779 30.2031C27.0102 31.6671 25.78 33.3555 24.8383 35.2007C23.8794 37.0793 23.2715 39.0037 22.899 41.0714C22.5323 43.1077 22.4108 45.1848 22.3549 47.244C22.3294 48.1893 22.3184 49.1347 22.3127 50.0803C22.3058 51.203 22.248 52.5975 22.248 53.7201L22.2484 66.3529L22.248 76.211L22.3063 89.1122C22.3063 90.2362 22.3059 91.3603 22.3127 92.4844C22.3184 93.4313 22.3294 94.378 22.355 95.3246C22.4108 97.3873 22.5325 99.4681 22.8996 101.508C23.272 103.577 23.8798 105.503 24.8378 107.383C25.7797 109.232 27.0101 110.922 28.4779 112.389C29.9456 113.855 31.6381 115.084 33.4878 116.024C35.3711 116.982 37.3002 117.589 39.3731 117.961C41.4143 118.328 43.4967 118.449 45.5608 118.505C46.5085 118.53 47.4562 118.541 48.4043 118.547C49.5296 118.554 50.6549 118.554 51.7802 118.554L64.7062 118.554H74.4841L87.3851 118.553C88.5083 118.553 89.6314 118.554 90.7546 118.547C91.7007 118.541 92.6466 118.53 93.5924 118.505C95.6533 118.449 97.7324 118.327 99.7706 117.961C101.838 117.589 103.763 116.982 105.641 116.025C107.488 115.084 109.177 113.855 110.642 112.389C112.107 110.923 113.335 109.232 114.275 107.384C115.232 105.503 115.838 103.576 116.21 101.506C116.576 99.4665 116.698 97.3865 116.753 95.3246C116.779 94.3779 116.79 93.4312 116.795 92.4844C116.802 91.3603 116.802 90.2362 116.802 89.1122C116.802 89.1122 116.801 76.4388 116.801 76.211V66.3425C116.801 66.1743 116.802 53.4479 116.802 53.4479Z"/>
        </mask>
        <path d="M116.795 50.0803L114.432 50.0943V50.0947L116.795 50.0803ZM116.753 47.244L114.39 47.3077L114.39 47.3082L116.753 47.244ZM116.21 41.069L113.883 41.4873L113.883 41.4874L116.21 41.069ZM114.275 35.2015L116.382 34.1288L116.382 34.1286L114.275 35.2015ZM110.642 30.2031L108.971 31.875L108.971 31.8752L110.642 30.2031ZM105.642 26.5725L106.714 24.4657L106.714 24.4657L105.642 26.5725ZM99.7682 24.638L99.3505 26.9646L99.3505 26.9647L99.7682 24.638ZM93.5924 24.0952L93.5285 26.4582L93.5286 26.4582L93.5924 24.0952ZM90.7546 24.053L90.7692 21.6892L90.7691 21.6892L90.7546 24.053ZM87.3851 24.0467L87.3766 26.4106H87.3851V24.0467ZM74.3441 24L74.3526 21.6362H74.3441V24ZM64.5904 24V21.6361L64.5818 21.6362L64.5904 24ZM51.7802 24.0467V26.4106L51.7888 26.4105L51.7802 24.0467ZM48.4042 24.053L48.3897 21.6892L48.3896 21.6892L48.4042 24.053ZM45.5608 24.0952L45.6245 26.4582L45.6246 26.4582L45.5608 24.0952ZM39.3707 24.6386L39.7877 26.9653L39.788 26.9653L39.3707 24.6386ZM33.4887 26.572L32.4185 24.4643L32.4184 24.4644L33.4887 26.572ZM28.4779 30.2031L30.1473 31.8767L30.1474 31.8766L28.4779 30.2031ZM24.8383 35.2007L26.9437 36.2753L26.9437 36.2753L24.8383 35.2007ZM22.899 41.0714L20.5726 40.6523L20.5726 40.6524L22.899 41.0714ZM22.3549 47.244L19.9919 47.1799L19.9919 47.1803L22.3549 47.244ZM22.3127 50.0803L24.6765 50.0947L24.6765 50.0946L22.3127 50.0803ZM22.248 53.7201H19.8842V53.7202L22.248 53.7201ZM22.2484 66.3529L24.6122 66.353V66.3528L22.2484 66.3529ZM22.248 76.211L19.8842 76.2109L19.8842 76.2217L22.248 76.211ZM22.3063 89.1122H24.6702L24.6702 89.1015L22.3063 89.1122ZM22.3127 92.4844L19.9488 92.4986L19.9488 92.4987L22.3127 92.4844ZM22.355 95.3246L19.992 95.3885L19.992 95.3885L22.355 95.3246ZM22.8996 101.508L25.2261 101.089L25.2261 101.089L22.8996 101.508ZM24.8378 107.383L22.7317 108.457L22.7317 108.457L24.8378 107.383ZM33.4878 116.024L32.4162 118.131L32.4163 118.131L33.4878 116.024ZM39.3731 117.961L39.7907 115.635L39.7905 115.635L39.3731 117.961ZM45.5608 118.505L45.6246 116.142L45.6245 116.142L45.5608 118.505ZM48.4043 118.547L48.4187 116.183H48.4186L48.4043 118.547ZM51.7802 118.554L51.7803 116.19H51.7802V118.554ZM64.7062 118.554L64.7062 120.918H64.7062V118.554ZM74.4841 118.554V120.918H74.4842L74.4841 118.554ZM87.3851 118.553V116.19H87.385L87.3851 118.553ZM90.7546 118.547L90.7402 116.183H90.7401L90.7546 118.547ZM93.5924 118.505L93.6564 120.868H93.6564L93.5924 118.505ZM99.7706 117.961L100.189 120.287H100.189L99.7706 117.961ZM105.641 116.025L104.568 113.918L104.568 113.918L105.641 116.025ZM110.642 112.389L108.97 110.718L108.97 110.718L110.642 112.389ZM114.275 107.384L116.382 108.456L116.382 108.456L114.275 107.384ZM116.21 101.506L118.537 101.923L118.537 101.923L116.21 101.506ZM116.753 95.3246L114.39 95.2607L114.39 95.2608L116.753 95.3246ZM116.795 92.4844L114.432 92.4697L114.432 92.4704L116.795 92.4844ZM116.802 89.1122H119.166V89.112L116.802 89.1122ZM119.166 53.4479C119.166 52.3276 119.166 51.1971 119.159 50.0658L114.432 50.0947C114.439 51.2086 114.438 52.3232 114.438 53.4479H119.166ZM119.159 50.0662C119.154 49.1127 119.143 48.1486 119.116 47.1797L114.39 47.3082C114.415 48.2297 114.426 49.1565 114.432 50.0943L119.159 50.0662ZM119.116 47.1803C119.06 45.081 118.934 42.8634 118.536 40.6505L113.883 41.4874C114.218 43.3488 114.336 45.2868 114.39 47.3077L119.116 47.1803ZM118.536 40.6507C118.129 38.386 117.456 36.2378 116.382 34.1288L112.169 36.2742C113.007 37.9205 113.547 39.6189 113.883 41.4873L118.536 40.6507ZM116.382 34.1286C115.329 32.0613 113.954 30.1704 112.313 28.531L108.971 31.8752C110.261 33.164 111.342 34.6506 112.169 36.2744L116.382 34.1286ZM112.313 28.5312C110.673 26.892 108.782 25.518 106.714 24.4657L104.57 28.6792C106.194 29.5059 107.682 30.5861 108.971 31.875L112.313 28.5312ZM106.714 24.4657C104.603 23.3914 102.453 22.7183 100.186 22.3114L99.3505 26.9647C101.221 27.3006 102.922 27.8406 104.57 28.6792L106.714 24.4657ZM100.186 22.3114C97.9731 21.914 95.7552 21.789 93.6563 21.7323L93.5286 26.4582C95.5498 26.5128 97.4886 26.6303 99.3505 26.9646L100.186 22.3114ZM93.6564 21.7323C92.6869 21.706 91.7225 21.6951 90.7692 21.6892L90.74 26.4168C91.6789 26.4226 92.6063 26.4333 93.5285 26.4582L93.6564 21.7323ZM90.7691 21.6892C89.6371 21.6823 88.5058 21.6829 87.3851 21.6829V26.4106C88.5107 26.4106 89.6257 26.41 90.7401 26.4168L90.7691 21.6892ZM87.3936 21.6829L74.3526 21.6362L74.3356 26.3638L87.3766 26.4105L87.3936 21.6829ZM74.3441 21.6362H64.5904V26.3638H74.3441V21.6362ZM64.5818 21.6362L51.7716 21.6829L51.7888 26.4105L64.599 26.3638L64.5818 21.6362ZM51.7802 21.6829C50.6573 21.6829 49.5238 21.6823 48.3897 21.6892L48.4186 26.4168C49.5352 26.41 50.6524 26.4106 51.7802 26.4106V21.6829ZM48.3896 21.6892C47.4343 21.6951 46.4683 21.706 45.497 21.7323L45.6246 26.4582C46.5487 26.4333 47.4779 26.4226 48.4188 26.4168L48.3896 21.6892ZM45.4971 21.7323C43.3934 21.789 41.1709 21.9141 38.9534 22.3119L39.788 26.9653C41.6548 26.6305 43.5984 26.5128 45.6245 26.4582L45.4971 21.7323ZM38.9536 22.3118C36.6846 22.7185 34.5318 23.3912 32.4185 24.4643L34.559 28.6797C36.2099 27.8413 37.9136 27.3013 39.7877 26.9653L38.9536 22.3118ZM32.4184 24.4644C30.3468 25.5164 28.4518 26.8902 26.8084 28.5296L30.1474 31.8766C31.4397 30.5874 32.9305 29.5067 34.5591 28.6796L32.4184 24.4644ZM26.8085 28.5295C25.1654 30.1685 23.7878 32.0589 22.7328 34.1261L26.9437 36.2753C27.7722 34.6521 28.8551 33.1657 30.1473 31.8767L26.8085 28.5295ZM22.7328 34.126C21.6556 36.2366 20.9808 38.3864 20.5726 40.6523L25.2254 41.4905C25.5622 39.621 26.1033 37.9219 26.9437 36.2753L22.7328 34.126ZM20.5726 40.6524C20.1742 42.8647 20.0488 45.0818 19.9919 47.1799L24.7179 47.3081C24.7727 45.2878 24.8904 43.3507 25.2254 41.4904L20.5726 40.6524ZM19.9919 47.1803C19.9658 48.1488 19.9546 49.1125 19.9488 50.0659L24.6765 50.0946C24.6821 49.157 24.693 48.2298 24.7179 47.3077L19.9919 47.1803ZM19.9488 50.0658C19.9456 50.6006 19.9301 51.2046 19.9146 51.8428C19.8994 52.4682 19.8842 53.1256 19.8842 53.7201H24.6119C24.6119 53.192 24.6255 52.5908 24.6409 51.9576C24.656 51.3372 24.6728 50.6826 24.6765 50.0947L19.9488 50.0658ZM19.8842 53.7202L19.8845 66.3529L24.6122 66.3528L24.6119 53.72L19.8842 53.7202ZM19.8845 66.3528L19.8842 76.2109L24.6119 76.2111L24.6122 66.353L19.8845 66.3528ZM19.8842 76.2217L19.9425 89.1228L24.6702 89.1015L24.6119 76.2003L19.8842 76.2217ZM19.9425 89.1122C19.9425 90.2341 19.942 91.366 19.9488 92.4986L24.6765 92.4702C24.6697 91.3547 24.6702 90.2384 24.6702 89.1122H19.9425ZM19.9488 92.4987C19.9546 93.4535 19.9658 94.4185 19.992 95.3885L24.718 95.2607C24.693 94.3375 24.6821 93.4091 24.6765 92.4701L19.9488 92.4987ZM19.992 95.3885C20.0488 97.4903 20.1744 99.7109 20.5731 101.927L25.2261 101.089C24.8906 99.2252 24.7727 97.2844 24.718 95.2607L19.992 95.3885ZM20.5731 101.927C20.9811 104.194 21.6556 106.345 22.7317 108.457L26.944 106.31C26.1039 104.662 25.5628 102.961 25.2261 101.089L20.5731 101.927ZM22.7317 108.457C23.7867 110.527 25.1643 112.42 26.8073 114.061L30.1485 110.716C28.856 109.425 27.7727 107.936 26.9439 106.31L22.7317 108.457ZM26.8073 114.061C28.4504 115.702 30.3448 117.078 32.4162 118.131L34.5595 113.917C32.9313 113.089 31.4409 112.007 30.1485 110.716L26.8073 114.061ZM32.4163 118.131C34.531 119.207 36.685 119.881 38.9556 120.288L39.7905 115.635C37.9155 115.298 36.2111 114.757 34.5593 113.917L32.4163 118.131ZM38.9555 120.288C41.1721 120.686 43.394 120.811 45.4971 120.868L45.6245 116.142C43.5994 116.087 41.6565 115.97 39.7907 115.635L38.9555 120.288ZM45.497 120.868C46.4682 120.894 47.4343 120.905 48.39 120.911L48.4186 116.183C47.4782 116.178 46.5489 116.167 45.6246 116.142L45.497 120.868ZM48.3898 120.911C49.5239 120.918 50.657 120.917 51.7802 120.917V116.19C50.6527 116.19 49.5354 116.19 48.4187 116.183L48.3898 120.911ZM51.7801 120.917L64.7062 120.918L64.7063 116.19L51.7803 116.19L51.7801 120.917ZM64.7062 120.918H74.4841V116.19H64.7062V120.918ZM74.4842 120.918L87.3852 120.917L87.385 116.19L74.484 116.19L74.4842 120.918ZM87.3851 120.917C88.5058 120.917 89.6371 120.918 90.7691 120.911L90.7401 116.183C89.6257 116.19 88.5107 116.19 87.3851 116.19V120.917ZM90.7689 120.911C91.7227 120.905 92.687 120.894 93.6564 120.868L93.5285 116.142C92.6061 116.167 91.6787 116.178 90.7402 116.183L90.7689 120.911ZM93.6564 120.868C95.7563 120.811 97.9751 120.686 100.189 120.287L99.3522 115.634C97.4896 115.969 95.5504 116.087 93.5285 116.142L93.6564 120.868ZM100.189 120.287C102.455 119.88 104.604 119.206 106.714 118.131L104.568 113.918C102.921 114.758 101.222 115.298 99.3521 115.634L100.189 120.287ZM106.714 118.131C108.783 117.077 110.674 115.701 112.315 114.059L108.97 110.718C107.68 112.009 106.193 113.091 104.568 113.918L106.714 118.131ZM112.314 114.06C113.954 112.418 115.329 110.525 116.382 108.456L112.168 106.312C111.341 107.939 110.26 109.427 108.97 110.718L112.314 114.06ZM116.382 108.456C117.456 106.343 118.13 104.192 118.537 101.923L113.884 101.088C113.547 102.961 113.007 104.663 112.168 106.312L116.382 108.456ZM118.537 101.923C118.934 99.7087 119.06 97.4892 119.116 95.3884L114.39 95.2608C114.336 97.2838 114.218 99.2242 113.884 101.088L118.537 101.923ZM119.116 95.3885C119.143 94.4183 119.154 93.4531 119.159 92.4985L114.432 92.4704C114.426 93.4093 114.415 94.3375 114.39 95.2607L119.116 95.3885ZM119.159 92.4991C119.166 91.3661 119.166 90.2338 119.166 89.1122H114.438C114.438 90.2387 114.439 91.3546 114.432 92.4697L119.159 92.4991ZM116.802 89.1122C119.166 89.112 119.166 89.112 119.166 89.1119C119.166 89.1118 119.166 89.1116 119.166 89.1115C119.166 89.1111 119.166 89.1105 119.166 89.1097C119.166 89.1082 119.166 89.1059 119.166 89.1028C119.166 89.0967 119.166 89.0877 119.166 89.0757C119.166 89.0517 119.166 89.0161 119.166 88.9697C119.166 88.8768 119.166 88.7405 119.166 88.567C119.166 88.22 119.166 87.7241 119.166 87.1283C119.166 85.9366 119.166 84.3453 119.165 82.7469C119.165 79.55 119.165 76.3248 119.165 76.211H114.437C114.437 76.325 114.438 79.5504 114.438 82.7471C114.438 84.3455 114.438 85.9368 114.438 87.1285C114.438 87.7244 114.438 88.2203 114.438 88.5673C114.438 88.7408 114.438 88.877 114.438 88.9699C114.438 89.0163 114.438 89.0519 114.438 89.0759C114.438 89.0879 114.438 89.097 114.438 89.1031C114.438 89.1061 114.438 89.1085 114.438 89.11C114.438 89.1108 114.438 89.1113 114.438 89.1117C114.438 89.1119 114.438 89.112 114.438 89.1121C114.438 89.1122 114.438 89.1123 116.802 89.1122ZM119.165 76.211V66.3425H114.437V76.211H119.165ZM119.165 66.3425C119.165 66.2585 119.165 63.035 119.165 59.8323C119.166 58.231 119.166 56.6349 119.166 55.4392C119.166 54.8413 119.166 54.3435 119.166 53.9952C119.166 53.8211 119.166 53.6843 119.166 53.591C119.166 53.5444 119.166 53.5086 119.166 53.4846C119.166 53.4725 119.166 53.4634 119.166 53.4573C119.166 53.4542 119.166 53.4519 119.166 53.4504C119.166 53.4496 119.166 53.449 119.166 53.4486C119.166 53.4484 119.166 53.4483 119.166 53.4482C119.166 53.4481 119.166 53.448 116.802 53.4479C114.438 53.4478 114.438 53.4478 114.438 53.4479C114.438 53.448 114.438 53.4482 114.438 53.4484C114.438 53.4487 114.438 53.4494 114.438 53.4501C114.438 53.4516 114.438 53.454 114.438 53.457C114.438 53.4631 114.438 53.4723 114.438 53.4843C114.438 53.5084 114.438 53.5441 114.438 53.5908C114.438 53.684 114.438 53.8208 114.438 53.995C114.438 54.3433 114.438 54.8411 114.438 55.4389C114.438 56.6347 114.438 58.2307 114.438 59.832C114.438 63.0346 114.437 66.2583 114.437 66.3425H119.165Z" fill="#1976F0" mask="url(#path-7-inside-3_3506_620)"/>
    </g>
    <path d="M37.6136 103.543H69.5255H101.437V121.272C101.437 123.23 99.8499 124.818 97.8917 124.818H41.1593C39.2011 124.818 37.6136 123.23 37.6136 121.272V103.543Z" fill="white" stroke="#DEE3ED" stroke-width="2.36385"/>
    <rect x="43.5234" y="117.727" width="52.0046" height="2.36385" rx="1.18192" fill="#F1F3F9"/>
    <rect x="43.5234" y="111.816" width="52.0046" height="2.36385" rx="1.18192" fill="#F1F3F9"/>
    <rect x="43.5234" y="105.908" width="52.0046" height="2.36385" rx="1.18192" fill="#F1F3F9"/>
    <rect x="38.7949" y="102.361" width="61.46" height="2.36385" fill="white"/>
    <g clip-path="url(#clip0_3506_620)">
        <rect x="32.8848" y="34.6367" width="73.2793" height="59.0962" rx="7.09154" fill="white"/>
        <rect x="32.8848" y="34.6367" width="73.2793" height="59.0962" rx="7.09154" fill="white"/>
        <path d="M91.0352 34.6367H99.0722C102.989 34.6367 106.164 37.8117 106.164 41.7283V86.6414C106.164 90.5579 102.989 93.7329 99.0722 93.7329H91.0352V34.6367Z" fill="#F8F9FC"/>
        <rect x="41.1582" y="71.2754" width="14.1831" height="14.1831" rx="3.54577" fill="#ECF6FF" stroke="#8ECBFF" stroke-width="2.36385"/>
        <rect x="83.707" y="71.2754" width="14.1831" height="14.1831" rx="3.54577" fill="#ECF6FF" stroke="#8ECBFF" stroke-width="2.36385"/>
        <rect x="87.2539" y="77.1855" width="7.09154" height="7.09154" rx="2.36385" fill="#1D1E20"/>
        <rect x="44.7031" y="77.1855" width="7.09154" height="7.09154" rx="2.36385" fill="#1D1E20"/>
        <circle cx="49.4319" cy="79.5491" r="0.945539" fill="white"/>
        <circle cx="91.9807" cy="79.5491" r="0.945539" fill="white"/>
        <path d="M41.1582 80.7305L55.3413 81.9124C55.3413 83.8707 53.7538 85.4582 51.7955 85.4582H44.704C42.7457 85.4582 41.1582 83.8707 41.1582 81.9124V80.7305Z" fill="#8ECBFF"/>
        <path d="M55.3418 76.0039L41.1587 74.822C41.1587 72.8637 42.7462 71.2762 44.7045 71.2762L51.796 71.2762C53.7543 71.2762 55.3418 72.8637 55.3418 74.822L55.3418 76.0039Z" fill="#8ECBFF"/>
        <path d="M83.707 81.9124L97.8901 80.7305V81.9124C97.8901 83.8707 96.3026 85.4582 94.3443 85.4582H87.2528C85.2945 85.4582 83.707 83.8707 83.707 81.9124Z" fill="#8ECBFF"/>
        <path d="M73.8976 82.6219C71.7795 83.6809 69.5244 82.2082 69.4062 80.0216C71.4155 80.0216 72.0656 77.5396 73.6021 77.5987C75.1386 77.6578 76.3796 81.3809 73.8976 82.6219Z" fill="#FF7A94"/>
        <path d="M43.5215 55.9119C45.8853 53.5481 48.3083 55.9119 52.9769 55.9119" stroke="#1D1E20" stroke-width="2.36385" stroke-linecap="round"/>
        <path d="M64.7969 80.6126C69.1109 80.6126 72.243 79.7262 73.9568 77.2441" stroke="#1D1E20" stroke-width="2.36385" stroke-linecap="round"/>
        <path d="M86.0723 46.4549C90.5045 46.4549 93.1638 44.091 95.5277 46.4549" stroke="#1D1E20" stroke-width="2.36385" stroke-linecap="round"/>
        <path fill-rule="evenodd" clip-rule="evenodd" d="M35.248 75.059C35.248 69.7063 39.5872 65.3672 44.9398 65.3672H51.5586C56.653 65.3672 60.8294 69.2978 61.2204 74.2918C62.8365 72.1686 65.5113 69.9767 69.5829 69.9767C73.5859 69.9767 76.2254 72.0953 77.8361 74.1862C78.2773 69.2425 82.4306 65.3672 87.4891 65.3672H94.1078C99.4605 65.3672 103.8 69.7063 103.8 75.059V81.6777C103.8 87.0304 99.4605 91.3695 94.1078 91.3695H87.4891C82.1365 91.3695 77.7973 87.0304 77.7973 81.6777V79.0213C77.7315 78.8333 77.6332 78.5715 77.4982 78.2593C77.2051 77.5813 76.7467 76.6832 76.0866 75.7919C74.7708 74.0153 72.7218 72.3405 69.5829 72.3405C66.4425 72.3405 64.3776 74.017 63.0463 75.7965C62.3788 76.6887 61.9132 77.5877 61.6148 78.2662C61.4663 78.6039 61.361 78.8826 61.2941 79.0729C61.277 79.1214 61.2625 79.1641 61.2504 79.2004V81.6777C61.2504 87.0304 56.9112 91.3695 51.5586 91.3695H44.9398C39.5872 91.3695 35.248 87.0304 35.248 81.6777V75.059ZM80.1611 78.7053V81.6777C80.1611 85.7248 83.442 89.0057 87.4891 89.0057H94.1078C98.1549 89.0057 101.436 85.7248 101.436 81.6777V75.059C101.436 71.0119 98.1549 67.731 94.1078 67.731H87.4891C83.442 67.731 80.1611 71.0119 80.1611 75.059V78.6469C80.1629 78.6528 80.1645 78.6584 80.166 78.6634C80.169 78.6735 80.1714 78.6818 80.1732 78.6882L80.1755 78.6964L80.1764 78.6994L80.1767 78.7006C80.1767 78.7007 80.1768 78.7008 80.1611 78.7053ZM44.9398 67.731C40.8927 67.731 37.6119 71.0119 37.6119 75.059V81.6777C37.6119 85.7248 40.8927 89.0057 44.9398 89.0057H51.5586C55.6057 89.0057 58.8865 85.7248 58.8865 81.6777V75.059C58.8865 71.0119 55.6057 67.731 51.5586 67.731H44.9398Z" fill="#1D1E20"/>
    </g>
    <path fill-rule="evenodd" clip-rule="evenodd" d="M49.8798 32.2734H49.8258C46.6903 32.2734 44.2647 32.2734 42.3222 32.4321C40.3547 32.5929 38.7791 32.9223 37.3696 33.6405C35.0097 34.8429 33.091 36.7616 31.8885 39.1216C31.1704 40.531 30.8409 42.1067 30.6802 44.0741C30.5215 46.0166 30.5215 48.4422 30.5215 51.5777V51.6317V76.739V76.793C30.5215 79.9285 30.5215 82.3541 30.6802 84.2966C30.8409 86.2641 31.1704 87.8397 31.8885 89.2492C33.091 91.6091 35.0097 93.5278 37.3696 94.7303C38.7791 95.4484 40.3547 95.7779 42.3222 95.9386C44.2646 96.0973 46.6903 96.0973 49.8257 96.0973H49.8258H49.8798H89.1701H89.2241H89.2242C92.3597 96.0973 94.7853 96.0973 96.7278 95.9386C98.6952 95.7779 100.271 95.4484 101.68 94.7303C104.04 93.5278 105.959 91.6091 107.161 89.2492C107.88 87.8397 108.209 86.2641 108.37 84.2966C108.528 82.3542 108.528 79.9286 108.528 76.7933V76.739V51.6317V51.5775C108.528 48.4421 108.528 46.0166 108.37 44.0741C108.209 42.1067 107.88 40.531 107.161 39.1216C105.959 36.7616 104.04 34.8429 101.68 33.6405C100.271 32.9223 98.6952 32.5929 96.7278 32.4321C94.7853 32.2734 92.3596 32.2734 89.2241 32.2734H89.1701H49.8798ZM38.4428 35.7467C39.4634 35.2266 40.6934 34.9369 42.5147 34.7881C44.3497 34.6382 46.6791 34.6373 49.8798 34.6373H89.1701C92.3708 34.6373 94.7002 34.6382 96.5353 34.7881C98.3565 34.9369 99.5865 35.2266 100.607 35.7467C102.522 36.7225 104.079 38.2796 105.055 40.1947C105.575 41.2154 105.865 42.4454 106.014 44.2666C106.164 46.1017 106.165 48.4311 106.165 51.6317V76.739C106.165 79.9397 106.164 82.2691 106.014 84.1041C105.865 85.9254 105.575 87.1553 105.055 88.176C104.079 90.0912 102.522 91.6483 100.607 92.6241C99.5865 93.1441 98.3565 93.4338 96.5353 93.5826C94.7002 93.7325 92.3708 93.7335 89.1701 93.7335H49.8798C46.6791 93.7335 44.3497 93.7325 42.5147 93.5826C40.6934 93.4338 39.4634 93.1441 38.4428 92.6241C36.5276 91.6483 34.9705 90.0912 33.9947 88.176C33.4747 87.1553 33.185 85.9254 33.0362 84.1041C32.8863 82.2691 32.8853 79.9397 32.8853 76.739V51.6317C32.8853 48.4311 32.8863 46.1016 33.0362 44.2666C33.185 42.4454 33.4747 41.2154 33.9947 40.1947C34.9705 38.2796 36.5276 36.7225 38.4428 35.7467ZM34.0673 99.9977C33.4145 99.9977 32.8853 100.527 32.8853 101.18C32.8853 101.832 33.4145 102.361 34.0673 102.361H104.983C105.635 102.361 106.165 101.832 106.165 101.18C106.165 100.527 105.635 99.9977 104.983 99.9977H34.0673Z" fill="#1976F0"/>
    <defs>
        <clipPath id="clip0_3506_620">
            <rect x="32.8848" y="34.6367" width="73.2793" height="59.0962" rx="7.09154" fill="white"/>
        </clipPath>
    </defs>
</svg>
