<svg xmlns="http://www.w3.org/2000/svg" width="26" height="18" viewBox="0 0 26 18" fill="none">
  <path d="M9.45731 12.0586L10.3437 9.62028L13.4895 10.7641L12.6031 13.2024L9.45731 12.0586Z" fill="#E65A5A" />
  <path fill-rule="evenodd" clip-rule="evenodd"
    d="M9.00248 5.98262C9.20777 5.53504 9.73702 5.33862 10.1846 5.54391C10.8192 5.83495 12.055 5.96527 12.8635 5.15279L12.8664 5.14982L12.8694 5.14687C13.7486 4.27982 14.8794 4.12206 15.82 4.33338C16.7173 4.53499 17.6009 5.11075 17.9824 5.93853C18.1885 6.38574 17.993 6.91535 17.5458 7.12144C17.0986 7.32754 16.569 7.13208 16.3629 6.68487C16.2738 6.49151 15.9414 6.18829 15.4291 6.07319C14.961 5.96802 14.4896 6.05519 14.124 6.41409C12.568 7.974 10.4168 7.61223 9.44119 7.16473C8.99361 6.95945 8.79719 6.4302 9.00248 5.98262Z"
    fill="#00A876" />
  <path
    d="M3.17582 6.37081C4.05235 6.25818 4.85406 6.87733 4.96668 7.75386C5.0793 8.63039 4.46015 9.43209 3.58362 9.54472C2.7071 9.65734 1.90539 9.03819 1.79277 8.16166C1.68015 7.28513 2.29929 6.48343 3.17582 6.37081Z"
    fill="#8A57EA" />
  <path
    d="M22.587 7.20381C23.4635 7.09119 24.2652 7.71034 24.3778 8.58687C24.4904 9.4634 23.8713 10.2651 22.9948 10.3777C22.1182 10.4903 21.3165 9.8712 21.2039 8.99467C21.0913 8.11814 21.7104 7.31644 22.587 7.20381Z"
    fill="#FF8C38" />
  <path fill-rule="evenodd" clip-rule="evenodd"
    d="M4.08006 11.3969C4.53062 11.1373 5.10631 11.2921 5.3659 11.7427C5.93729 12.7344 5.97704 13.7692 5.80202 14.634C5.62968 15.4855 5.24229 16.218 4.87758 16.6932C4.56098 17.1057 3.96993 17.1834 3.55743 16.8668C3.14493 16.5502 3.06719 15.9592 3.38378 15.5467C3.59333 15.2737 3.84695 14.8012 3.95639 14.2604C4.06316 13.7329 4.0255 13.1882 3.73427 12.6827C3.47468 12.2322 3.6295 11.6565 4.08006 11.3969Z"
    fill="#3771E0" />
</svg>