<svg xmlns="http://www.w3.org/2000/svg" width="16" height="16" viewBox="0 0 16 16" fill="none">
  <path d="M12.9203 2.776C12.6092 2.26066 12.0511 1.94568 11.4492 1.94568H4.55087C3.9489 1.94568 3.39081 2.26066 3.07968 2.77599L0.964346 6.27977C0.554846 6.95805 0.662148 7.82839 1.22413 8.3869L6.7886 13.9171C7.45886 14.5832 8.54117 14.5832 9.21142 13.9171L14.7759 8.3869C15.3379 7.82839 15.4452 6.95805 15.0357 6.27977L12.9203 2.776Z" fill="url(#paint0_linear_6592_49908)"/>
  <path fill-rule="evenodd" clip-rule="evenodd" d="M4.90907 8.90901C5.14339 8.6747 5.52329 8.6747 5.7576 8.90901L7.67002 10.8214C7.85227 11.0037 8.14774 11.0037 8.32999 10.8214L10.2424 8.90901C10.4767 8.6747 10.8566 8.6747 11.0909 8.90901C11.3252 9.14333 11.3252 9.52323 11.0909 9.75754L9.17851 11.67C8.52764 12.3208 7.47237 12.3208 6.82149 11.67L4.90907 9.75754C4.67476 9.52323 4.67476 9.14333 4.90907 8.90901Z" fill="#0E0B16"/>
  <defs>
    <linearGradient id="paint0_linear_6592_49908" x1="0.333662" y1="6.34719" x2="14.8133" y2="10.3293" gradientUnits="userSpaceOnUse">
      <stop offset="0.00889242" stop-color="#FFE2A7"/>
      <stop offset="0.419297" stop-color="#EDF0FF"/>
      <stop offset="0.739065" stop-color="#A9BAFF"/>
      <stop offset="1" stop-color="#A889FF"/>
    </linearGradient>
  </defs>
</svg>