<svg width="720" height="240" viewBox="0 0 720 240" fill="none" xmlns="http://www.w3.org/2000/svg">
  <g clip-path="url(#clip0_23041_84697)">
    <path fill="#fff" d="M0 0h720v240H0z" />
    <g filter="url(#filter0_f_23041_84697)">
      <circle cx="305" cy="15" r="225" fill="#7A59FF" fill-opacity=".16" />
    </g>
    <g filter="url(#filter1_f_23041_84697)">
      <circle cx="520" cy="300" r="150" fill="#008862" fill-opacity=".16" />
    </g>
    <g filter="url(#filter2_di_23041_84697)" clip-path="url(#clip1_23041_84697)">
      <path fill-rule="evenodd" clip-rule="evenodd"
        d="M441.85 38.597c.949 0 1.732.71 1.85 1.63v3.59h-3.4a.42.42 0 100 .36h3.4v3.591a1.896 1.896 0 01-3.713.212 1.812 1.812 0 01-1.013-2.165 1.812 1.812 0 01-.974-1.579v-.059a1.8 1.8 0 011.115-1.665 1.748 1.748 0 01-.21-.737l-.001-.035a1.71 1.71 0 011.136-1.725 1.867 1.867 0 011.81-1.418zm1.85 1.8v.36h-1.676l-.677.558a.42.42 0 11-.228-.278l.727-.599a.178.178 0 01.114-.04h1.74zm-2.76 5.76a.42.42 0 01.407.523l.677.557h1.676v.36h-1.74a.178.178 0 01-.114-.04l-.727-.6a.42.42 0 11-.179-.8zm7.025-6.122a1.868 1.868 0 00-1.815-1.438c-.949 0-1.732.71-1.85 1.63v7.541a1.896 1.896 0 003.713.212 1.812 1.812 0 001.013-2.165 1.81 1.81 0 00.974-1.607 1.81 1.81 0 00-.805-1.507.187.187 0 01-.038.1c-.362.465-.77.758-1.22.878a1.257 1.257 0 00.003.874.18.18 0 11-.339.124 1.622 1.622 0 01-.059-.937c-.454.02-.945-.12-1.467-.418a.182.182 0 01-.067-.247.18.18 0 01.246-.068l.032.019c1.054.59 1.897.396 2.588-.495a1.751 1.751 0 00-.909-2.496zm-2.768 6.099a.181.181 0 01.331-.144l.005.01.007.016a.698.698 0 00.263.275c.186.106.428.125.747.019.262-.17.588-.251.974-.24a.18.18 0 01-.01.362c-.711-.021-1.13.317-1.299 1.055a.181.181 0 01-.217.136.181.181 0 01-.135-.217c.059-.258.148-.48.265-.664a1.05 1.05 0 01-.504-.137 1.007 1.007 0 01-.416-.447l-.002-.004-.009-.02zm.823-5.848a.18.18 0 00-.176.186c.007.324.077.603.207.834-.308.022-.608.184-.881.511a.182.182 0 00.022.255.18.18 0 00.254-.022c.223-.267.445-.38.663-.385a.668.668 0 01.366.1l.015.01.009.007a2.028 2.028 0 00.762.283.18.18 0 00.209-.147.18.18 0 00-.146-.21 1.667 1.667 0 01-.621-.225l-.016-.011-.019-.012c-.302-.212-.453-.54-.463-.997a.181.181 0 00-.185-.177z"
        fill="url(#paint0_linear_23041_84697)" />
    </g>
    <path
      d="M461.672 48.144c-.608 0-1.148-.108-1.62-.324a2.566 2.566 0 01-1.104-.924c-.264-.4-.4-.876-.408-1.428h1.524c0 .28.064.532.192.756.136.216.32.388.552.516.24.128.528.192.864.192.288 0 .536-.044.744-.132.216-.096.38-.228.492-.396.12-.176.18-.38.18-.612 0-.264-.064-.48-.192-.648a1.443 1.443 0 00-.504-.444 4.001 4.001 0 00-.744-.312c-.28-.096-.576-.196-.888-.3-.664-.224-1.164-.508-1.5-.852-.336-.352-.504-.82-.504-1.404 0-.488.116-.908.348-1.26.232-.352.556-.624.972-.816.424-.2.912-.3 1.464-.3.56 0 1.048.1 1.464.3.424.2.756.48.996.84.248.352.376.776.384 1.272h-1.536a1.206 1.206 0 00-.168-.576 1.16 1.16 0 00-.456-.444 1.311 1.311 0 00-.708-.18 1.421 1.421 0 00-.648.12c-.184.08-.332.2-.444.36a.998.998 0 00-.156.576c0 .224.048.412.144.564.104.144.252.268.444.372.192.096.416.188.672.276l.84.288a5.6 5.6 0 011.128.504c.344.192.616.444.816.756.2.312.3.716.3 1.212 0 .432-.112.836-.336 1.212-.224.368-.552.668-.984.9-.432.224-.972.336-1.62.336zm4.352-.144v-6.048h1.44V48h-1.44zm.72-7.008a.944.944 0 01-.66-.24.833.833 0 01-.252-.612.77.77 0 01.252-.6.944.944 0 01.66-.24c.264 0 .48.08.648.24a.754.754 0 01.264.6c0 .24-.088.444-.264.612a.901.901 0 01-.648.24zm5.072 7.152c-.56 0-1.06-.136-1.5-.408a2.815 2.815 0 01-1.032-1.128c-.24-.48-.36-1.024-.36-1.632 0-.608.124-1.148.372-1.62.248-.48.592-.856 1.032-1.128.448-.28.952-.42 1.512-.42.456 0 .852.088 1.188.264.344.168.616.408.816.72V39.36h1.44V48h-1.296l-.144-.876a3.044 3.044 0 01-.468.504 2.287 2.287 0 01-.66.372 2.56 2.56 0 01-.9.144zm.3-1.248c.344 0 .648-.08.912-.24.264-.168.468-.396.612-.684.144-.288.216-.62.216-.996s-.072-.708-.216-.996a1.607 1.607 0 00-.612-.672 1.725 1.725 0 00-.912-.24c-.328 0-.624.08-.888.24-.264.16-.472.384-.624.672-.144.288-.216.62-.216.996s.072.708.216.996c.152.288.36.516.624.684.264.16.56.24.888.24zm7.602 1.248c-.6 0-1.128-.128-1.584-.384a2.781 2.781 0 01-1.068-1.104c-.256-.472-.384-1.016-.384-1.632 0-.64.124-1.2.372-1.68.256-.48.612-.856 1.068-1.128.464-.272 1-.408 1.608-.408.592 0 1.108.132 1.548.396.44.264.78.62 1.02 1.068.24.44.36.936.36 1.488v.264c0 .096-.008.196-.024.3h-4.92V44.4h3.492c-.016-.44-.164-.784-.444-1.032-.28-.256-.628-.384-1.044-.384a1.67 1.67 0 00-.816.204 1.45 1.45 0 00-.588.612c-.144.264-.216.6-.216 1.008v.348c0 .376.068.7.204.972.144.272.336.48.576.624.248.136.524.204.828.204.336 0 .612-.072.828-.216.224-.144.388-.336.492-.576h1.464a2.817 2.817 0 01-.552 1.02 2.81 2.81 0 01-.948.708c-.376.168-.8.252-1.272.252zm4.27-.144v-6.048h1.284l.132 1.128c.144-.264.324-.488.54-.672.216-.192.468-.34.756-.444.296-.104.62-.156.972-.156v1.524h-.504c-.24 0-.468.032-.684.096a1.4 1.4 0 00-.564.288 1.282 1.282 0 00-.36.54c-.088.224-.132.508-.132.852V48h-1.44zm5.51.06c-.272 0-.492-.084-.66-.252a.82.82 0 01-.252-.6c0-.248.084-.456.252-.624.168-.168.388-.252.66-.252.264 0 .48.084.648.252a.847.847 0 01.252.624.82.82 0 01-.252.6.877.877 0 01-.648.252zm0-4.536c-.272 0-.492-.084-.66-.252a.82.82 0 01-.252-.6c0-.248.084-.456.252-.624.168-.168.388-.252.66-.252.264 0 .48.084.648.252a.847.847 0 01.252.624.82.82 0 01-.252.6.877.877 0 01-.648.252zm8.957 4.62c-.832 0-1.552-.18-2.16-.54a3.717 3.717 0 01-1.392-1.524c-.32-.656-.48-1.412-.48-2.268 0-.864.16-1.62.48-2.268a3.7 3.7 0 011.392-1.536c.608-.368 1.328-.552 2.16-.552 1 0 1.816.248 2.448.744.632.488 1.032 1.18 1.2 2.076h-1.584c-.112-.472-.34-.844-.684-1.116-.344-.272-.808-.408-1.392-.408-.528 0-.984.124-1.368.372-.376.24-.668.592-.876 1.056-.2.456-.3 1-.3 1.632 0 .632.1 1.176.3 1.632.208.448.5.796.876 1.044.384.24.84.36 1.368.36.584 0 1.048-.124 1.392-.372a1.82 1.82 0 00.684-1.056h1.584c-.16.848-.56 1.516-1.2 2.004-.632.48-1.448.72-2.448.72zm5.009-.144v-8.64h1.44v3.528c.2-.328.472-.588.816-.78.344-.2.732-.3 1.164-.3.496 0 .916.104 1.26.312.344.2.604.5.78.9.184.392.276.884.276 1.476V48h-1.428v-3.372c0-.52-.112-.916-.336-1.188-.216-.272-.548-.408-.996-.408-.288 0-.548.072-.78.216a1.437 1.437 0 00-.552.6c-.136.256-.204.572-.204.948V48h-1.44zm9.282.144c-.496 0-.908-.084-1.236-.252a1.713 1.713 0 01-.972-1.584c0-.384.096-.716.288-.996.2-.28.492-.496.876-.648.384-.16.856-.24 1.416-.24h1.524c0-.32-.044-.584-.132-.792a.935.935 0 00-.408-.48c-.184-.104-.42-.156-.708-.156-.328 0-.608.076-.84.228-.232.144-.376.368-.432.672h-1.416c.048-.432.192-.8.432-1.104.24-.312.556-.552.948-.72.4-.176.836-.264 1.308-.264.568 0 1.052.1 1.452.3.4.192.704.472.912.84.216.36.324.796.324 1.308V48h-1.224l-.144-.972a1.86 1.86 0 01-.312.444c-.12.136-.26.256-.42.36-.16.096-.344.172-.552.228-.2.056-.428.084-.684.084zm.324-1.14c.232 0 .436-.04.612-.12.184-.088.34-.208.468-.36.136-.16.24-.336.312-.528.072-.192.12-.396.144-.612v-.024h-1.332c-.28 0-.512.036-.696.108a.726.726 0 00-.396.288.82.82 0 00-.12.444c0 .168.04.312.12.432.08.12.196.212.348.276.152.064.332.096.54.096zm7.085.996c-.408 0-.764-.064-1.068-.192a1.448 1.448 0 01-.696-.636c-.168-.296-.252-.696-.252-1.2v-2.808h-1.032v-1.212h1.032l.168-1.596h1.272v1.596h1.644v1.212h-1.644v2.808c0 .304.064.516.192.636.136.112.36.168.672.168h.744V48h-1.032zm6.13.144c-.792 0-1.488-.18-2.088-.54a3.68 3.68 0 01-1.38-1.5c-.328-.648-.492-1.404-.492-2.268 0-.856.168-1.612.504-2.268a3.69 3.69 0 011.44-1.548c.632-.376 1.38-.564 2.244-.564.976 0 1.784.236 2.424.708.648.464 1.068 1.112 1.26 1.944h-1.62a1.685 1.685 0 00-.708-.972c-.352-.232-.808-.348-1.368-.348-.568 0-1.056.124-1.464.372-.4.24-.708.592-.924 1.056-.208.456-.312 1-.312 1.632 0 .632.104 1.176.312 1.632.216.456.52.804.912 1.044.392.232.852.348 1.38.348.784 0 1.376-.22 1.776-.66.4-.44.636-1.012.708-1.716h-2.172v-1.092h3.624V48h-1.32l-.12-1.152a3.38 3.38 0 01-.636.708c-.24.192-.524.34-.852.444-.32.096-.696.144-1.128.144zm5.61-.144v-8.4h3.024c.672 0 1.228.116 1.668.348.44.224.768.528.984.912.216.384.324.824.324 1.32 0 .464-.104.892-.312 1.284-.208.384-.532.696-.972.936-.44.232-1.004.348-1.692.348h-1.584V48h-1.44zm1.44-4.428h1.5c.568 0 .976-.124 1.224-.372.248-.256.372-.596.372-1.02 0-.44-.124-.784-.372-1.032s-.656-.372-1.224-.372h-1.5v2.796zM541.093 48v-7.236h-2.472V39.6h6.372v1.164h-2.472V48h-1.428zm10.837.144c-.608 0-1.148-.108-1.62-.324a2.566 2.566 0 01-1.104-.924c-.264-.4-.4-.876-.408-1.428h1.524c0 .28.064.532.192.756.136.216.32.388.552.516.24.128.528.192.864.192.288 0 .536-.044.744-.132.216-.096.38-.228.492-.396.12-.176.18-.38.18-.612 0-.264-.064-.48-.192-.648a1.443 1.443 0 00-.504-.444 4.001 4.001 0 00-.744-.312c-.28-.096-.576-.196-.888-.3-.664-.224-1.164-.508-1.5-.852-.336-.352-.504-.82-.504-1.404 0-.488.116-.908.348-1.26.232-.352.556-.624.972-.816.424-.2.912-.3 1.464-.3.56 0 1.048.1 1.464.3.424.2.756.48.996.84.248.352.376.776.384 1.272h-1.536a1.206 1.206 0 00-.168-.576 1.16 1.16 0 00-.456-.444 1.311 1.311 0 00-.708-.18 1.421 1.421 0 00-.648.12c-.184.08-.332.2-.444.36a.998.998 0 00-.156.576c0 .224.048.412.144.564.104.144.252.268.444.372.192.096.416.188.672.276l.84.288a5.6 5.6 0 011.128.504c.344.192.616.444.816.756.2.312.3.716.3 1.212 0 .432-.112.836-.336 1.212-.224.368-.552.668-.984.9-.432.224-.972.336-1.62.336zm4.352-.144v-6.048h1.44V48h-1.44zm.72-7.008a.944.944 0 01-.66-.24.833.833 0 01-.252-.612.77.77 0 01.252-.6.944.944 0 01.66-.24c.264 0 .48.08.648.24a.754.754 0 01.264.6c0 .24-.088.444-.264.612a.901.901 0 01-.648.24zm5.072 7.152c-.56 0-1.06-.136-1.5-.408a2.815 2.815 0 01-1.032-1.128c-.24-.48-.36-1.024-.36-1.632 0-.608.124-1.148.372-1.62.248-.48.592-.856 1.032-1.128.448-.28.952-.42 1.512-.42.456 0 .852.088 1.188.264.344.168.616.408.816.72V39.36h1.44V48h-1.296l-.144-.876a3.044 3.044 0 01-.468.504 2.287 2.287 0 01-.66.372 2.56 2.56 0 01-.9.144zm.3-1.248c.344 0 .648-.08.912-.24.264-.168.468-.396.612-.684.144-.288.216-.62.216-.996s-.072-.708-.216-.996a1.607 1.607 0 00-.612-.672 1.725 1.725 0 00-.912-.24c-.328 0-.624.08-.888.24-.264.16-.472.384-.624.672-.144.288-.216.62-.216.996s.072.708.216.996c.152.288.36.516.624.684.264.16.56.24.888.24zm7.602 1.248c-.6 0-1.128-.128-1.584-.384a2.781 2.781 0 01-1.068-1.104c-.256-.472-.384-1.016-.384-1.632 0-.64.124-1.2.372-1.68.256-.48.612-.856 1.068-1.128.464-.272 1-.408 1.608-.408.592 0 1.108.132 1.548.396.44.264.78.62 1.02 1.068.24.44.36.936.36 1.488v.264c0 .096-.008.196-.024.3h-4.92V44.4h3.492c-.016-.44-.164-.784-.444-1.032-.28-.256-.628-.384-1.044-.384a1.67 1.67 0 00-.816.204 1.45 1.45 0 00-.588.612c-.144.264-.216.6-.216 1.008v.348c0 .376.068.7.204.972.144.272.336.48.576.624.248.136.524.204.828.204.336 0 .612-.072.828-.216.224-.144.388-.336.492-.576h1.464a2.817 2.817 0 01-.552 1.02 2.81 2.81 0 01-.948.708c-.376.168-.8.252-1.272.252zm7.725 0c-.32 0-.608-.044-.864-.132a2.206 2.206 0 01-.672-.336 2.247 2.247 0 01-.48-.516l-.156.84h-1.284v-8.64h1.44v3.48c.192-.296.452-.54.78-.732.328-.2.736-.3 1.224-.3.568 0 1.068.14 1.5.42.44.272.784.648 1.032 1.128.256.472.384 1.016.384 1.632 0 .6-.124 1.14-.372 1.62-.248.48-.592.856-1.032 1.128-.432.272-.932.408-1.5.408zm-.3-1.248c.336 0 .636-.08.9-.24.264-.168.468-.392.612-.672a2.13 2.13 0 00.228-1.008c0-.376-.076-.708-.228-.996a1.607 1.607 0 00-.612-.672 1.702 1.702 0 00-.9-.24c-.344 0-.648.08-.912.24-.256.16-.46.384-.612.672-.144.288-.216.62-.216.996 0 .384.072.72.216 1.008.152.28.356.504.612.672.264.16.568.24.912.24zm6.618 1.248c-.496 0-.908-.084-1.236-.252a1.713 1.713 0 01-.972-1.584c0-.384.096-.716.288-.996.2-.28.492-.496.876-.648.384-.16.856-.24 1.416-.24h1.524c0-.32-.044-.584-.132-.792a.935.935 0 00-.408-.48c-.184-.104-.42-.156-.708-.156-.328 0-.608.076-.84.228-.232.144-.376.368-.432.672h-1.416c.048-.432.192-.8.432-1.104.24-.312.556-.552.948-.72.4-.176.836-.264 1.308-.264.568 0 1.052.1 1.452.3.4.192.704.472.912.84.216.36.324.796.324 1.308V48h-1.224l-.144-.972a1.86 1.86 0 01-.312.444c-.12.136-.26.256-.42.36-.16.096-.344.172-.552.228-.2.056-.428.084-.684.084zm.324-1.14c.232 0 .436-.04.612-.12.184-.088.34-.208.468-.36.136-.16.24-.336.312-.528.072-.192.12-.396.144-.612v-.024h-1.332c-.28 0-.512.036-.696.108a.726.726 0 00-.396.288.82.82 0 00-.12.444c0 .168.04.312.12.432.08.12.196.212.348.276.152.064.332.096.54.096zm4.551.996v-6.048h1.284l.132 1.128c.144-.264.324-.488.54-.672.216-.192.468-.34.756-.444.296-.104.62-.156.972-.156v1.524h-.504c-.24 0-.468.032-.684.096a1.4 1.4 0 00-.564.288 1.282 1.282 0 00-.36.54c-.088.224-.132.508-.132.852V48h-1.44zm9.691-.78v-5.4h1.236v5.4h-1.236zm-2.256-2.1v-1.2h5.76v1.2h-5.76zm10.24 2.94c-.272 0-.492-.084-.66-.252a.82.82 0 01-.252-.6c0-.248.084-.456.252-.624.168-.168.388-.252.66-.252.264 0 .48.084.648.252a.847.847 0 01.252.624.82.82 0 01-.252.6.877.877 0 01-.648.252zm2.484 0c-.272 0-.492-.084-.66-.252a.82.82 0 01-.252-.6c0-.248.084-.456.252-.624.168-.168.388-.252.66-.252.264 0 .48.084.648.252a.847.847 0 01.252.624.82.82 0 01-.252.6.877.877 0 01-.648.252zm-4.98 0c-.272 0-.492-.084-.66-.252a.82.82 0 01-.252-.6c0-.248.084-.456.252-.624.168-.168.388-.252.66-.252.264 0 .48.084.648.252a.847.847 0 01.252.624.82.82 0 01-.252.6.877.877 0 01-.648.252z"
      fill="#06081F" fill-opacity=".88" />
    <g filter="url(#filter3_b_23041_84697)">
      <path
        d="M636.583 41.964v-.998c0-.62 0-.93-.121-1.167a1.103 1.103 0 00-.484-.483c-.236-.12-.546-.12-1.166-.12h-1.624c-.62 0-.93 0-1.166.12a1.103 1.103 0 00-.484.483c-.121.237-.121.547-.121 1.167v.998c0 .068 0 .102-.006.135a.357.357 0 01-.026.084c-.013.03-.033.058-.071.114l-.399.584c-.615.898-.922 1.347-.903 1.72.017.326.176.627.435.824.297.227.841.227 1.93.227h1.248v2.89a.375.375 0 00.75 0v-2.89h1.248c1.089 0 1.633 0 1.93-.227.259-.197.418-.498.435-.823.019-.374-.288-.823-.903-1.721l-.399-.584a.678.678 0 01-.071-.114.357.357 0 01-.026-.084c-.006-.033-.006-.067-.006-.135z"
        fill="#0A0D33" fill-opacity=".45" />
    </g>
    <g filter="url(#filter4_b_23041_84697)">
      <path
        d="M653.265 40.735a.375.375 0 10-.53.53L655.47 44l-2.735 2.735a.374.374 0 10.53.53L656 44.53l2.735 2.735a.375.375 0 10.53-.53L656.53 44l2.735-2.735a.374.374 0 10-.53-.53L656 43.47l-2.735-2.735z"
        fill="#0A0D33" fill-opacity=".45" />
    </g>
    <g filter="url(#filter5_ddd_23041_84697)">
      <rect x="50" y="30" width="374" height="287" rx="12" fill="#fff" fill-opacity=".84" />
      <rect x="66" y="42" width="9" height="9" rx="4.5" fill="#72768B" fill-opacity=".08" />
      <rect x="81" y="42" width="9" height="9" rx="4.5" fill="#72768B" fill-opacity=".08" />
      <rect x="96" y="42" width="9" height="9" rx="4.5" fill="#72768B" fill-opacity=".08" />
      <rect x="100" y="80" width="140" height="24" rx="3" fill="#72768B" fill-opacity=".08" />
      <rect x="100" y="120" width="258" height="12" rx="3" fill="#72768B" fill-opacity=".08" />
      <rect x="100" y="140" width="258" height="12" rx="3" fill="#72768B" fill-opacity=".08" />
      <rect x="100" y="160" width="180" height="12" rx="3" fill="#72768B" fill-opacity=".08" />
      <rect x="100" y="188" width="258" height="12" rx="3" fill="#72768B" fill-opacity=".08" />
      <rect x="100" y="208" width="180" height="12" rx="3" fill="#72768B" fill-opacity=".08" />
      <g clip-path="url(#clip2_23041_84697)">
        <rect x="430" y="58" width="240" height="800" rx="12" fill="#F6F6F8" />
        <g filter="url(#filter6_d_23041_84697)">
          <rect x="432" y="60" width="236" height="796" rx="10" fill="#fff" />
          <g filter="url(#filter7_b_23041_84697)">
            <path
              d="M639 78.5c0-5.799 4.701-10.5 10.5-10.5S660 72.701 660 78.5 655.299 89 649.5 89 639 84.299 639 78.5z"
              fill="#fff" fill-opacity=".84" />
            <path
              d="M654.1 75.25a.45.45 0 000-.9h-9.2a.45.45 0 000 .9h9.2zm.45 3.15a.45.45 0 01-.45.45h-9.2a.45.45 0 110-.9h9.2a.45.45 0 01.45.45zm0 3.8a.45.45 0 01-.45.45h-9.2a.45.45 0 110-.9h9.2a.45.45 0 01.45.45z"
              fill="#000" fill-opacity=".96" />
          </g>
          <path
            d="M462.216 201v-16.8h3.36V201h-3.36zm-10.584 0v-16.8h3.36V201h-3.36zm2.928-7.224v-2.712h8.208v2.712h-8.208zM468.859 201v-12.096h3.36V201h-3.36zm1.68-13.656c-.608 0-1.104-.176-1.488-.528a1.791 1.791 0 01-.576-1.344c0-.544.192-.992.576-1.344.384-.352.88-.528 1.488-.528s1.104.176 1.488.528c.384.352.576.8.576 1.344 0 .528-.192.976-.576 1.344-.384.352-.88.528-1.488.528zm3.896 16.608l1.368-6.168h3.216l-2.4 6.168h-2.184zM456.156 219v-8.4h1.44v8.4h-1.44zm-5.304 0v-8.4h1.44v8.4h-1.44zm1.224-3.696v-1.176h4.356v1.176h-4.356zm9.997 3.84a3.098 3.098 0 01-1.56-.396 2.954 2.954 0 01-1.08-1.116c-.256-.48-.384-1.028-.384-1.644 0-.632.132-1.184.396-1.656.264-.48.624-.852 1.08-1.116a3.027 3.027 0 011.56-.408c.576 0 1.092.136 1.548.408.464.264.824.632 1.08 1.104.264.472.396 1.024.396 1.656 0 .632-.132 1.184-.396 1.656a2.926 2.926 0 01-1.092 1.116 3.033 3.033 0 01-1.548.396zm0-1.236c.288 0 .548-.072.78-.216.24-.144.432-.36.576-.648.144-.288.216-.644.216-1.068 0-.424-.072-.776-.216-1.056a1.453 1.453 0 00-1.344-.864c-.28 0-.54.072-.78.216-.24.144-.432.36-.576.648-.144.28-.216.632-.216 1.056 0 .424.072.78.216 1.068.144.288.332.504.564.648.24.144.5.216.78.216zm5.435 1.092l-1.776-6.048h1.428l1.236 4.968-.264-.012 1.38-4.956h1.608l1.392 4.956h-.264l1.236-4.956h1.428L473.136 219h-1.488l-1.476-5.124h.3L468.996 219h-1.488zm14.23.144a3.213 3.213 0 01-1.596-.396 2.926 2.926 0 01-1.092-1.116c-.256-.48-.384-1.024-.384-1.632 0-.632.128-1.184.384-1.656.264-.48.628-.856 1.092-1.128a3.162 3.162 0 011.608-.408c.752 0 1.384.2 1.896.6.512.392.84.932.984 1.62h-1.512a1.224 1.224 0 00-.504-.72 1.494 1.494 0 00-.888-.264c-.296 0-.568.076-.816.228a1.61 1.61 0 00-.576.66c-.136.288-.204.636-.204 1.044 0 .312.04.588.12.828.08.24.192.444.336.612.152.16.324.284.516.372.192.088.4.132.624.132.232 0 .44-.036.624-.108a1.24 1.24 0 00.48-.348c.136-.152.232-.332.288-.54h1.512c-.144.672-.472 1.212-.984 1.62-.512.4-1.148.6-1.908.6zm6.297 0c-.496 0-.908-.084-1.236-.252a1.713 1.713 0 01-.972-1.584c0-.384.096-.716.288-.996.2-.28.492-.496.876-.648.384-.16.856-.24 1.416-.24h1.524c0-.32-.044-.584-.132-.792a.935.935 0 00-.408-.48c-.184-.104-.42-.156-.708-.156-.328 0-.608.076-.84.228-.232.144-.376.368-.432.672h-1.416c.048-.432.192-.8.432-1.104.24-.312.556-.552.948-.72.4-.176.836-.264 1.308-.264.568 0 1.052.1 1.452.3.4.192.704.472.912.84.216.36.324.796.324 1.308V219h-1.224l-.144-.972a1.86 1.86 0 01-.312.444c-.12.136-.26.256-.42.36-.16.096-.344.172-.552.228-.2.056-.428.084-.684.084zm.324-1.14c.232 0 .436-.04.612-.12.184-.088.34-.208.468-.36.136-.16.24-.336.312-.528.072-.192.12-.396.144-.612v-.024h-1.332c-.28 0-.512.036-.696.108a.726.726 0 00-.396.288.82.82 0 00-.12.444c0 .168.04.312.12.432.08.12.196.212.348.276.152.064.332.096.54.096zm4.55.996v-6.048h1.272l.108 1.008c.184-.352.448-.632.792-.84.344-.208.752-.312 1.224-.312.488 0 .904.104 1.248.312.344.2.608.496.792.888.192.392.288.88.288 1.464V219h-1.44v-3.396c0-.504-.112-.892-.336-1.164-.224-.272-.556-.408-.996-.408-.288 0-.548.068-.78.204a1.465 1.465 0 00-.54.6c-.128.256-.192.568-.192.936V219h-1.44zm10.22 0v-8.4h1.44v8.4h-1.44zm8.027.144c-.496 0-.908-.084-1.236-.252a1.713 1.713 0 01-.972-1.584c0-.384.096-.716.288-.996.2-.28.492-.496.876-.648.384-.16.856-.24 1.416-.24h1.524c0-.32-.044-.584-.132-.792a.935.935 0 00-.408-.48c-.184-.104-.42-.156-.708-.156-.328 0-.608.076-.84.228-.232.144-.376.368-.432.672h-1.416c.048-.432.192-.8.432-1.104.24-.312.556-.552.948-.72.4-.176.836-.264 1.308-.264.568 0 1.052.1 1.452.3.4.192.704.472.912.84.216.36.324.796.324 1.308V219h-1.224l-.144-.972a1.86 1.86 0 01-.312.444c-.12.136-.26.256-.42.36-.16.096-.344.172-.552.228-.2.056-.428.084-.684.084zm.324-1.14c.232 0 .436-.04.612-.12.184-.088.34-.208.468-.36.136-.16.24-.336.312-.528.072-.192.12-.396.144-.612v-.024h-1.332c-.28 0-.512.036-.696.108a.726.726 0 00-.396.288.82.82 0 00-.12.444c0 .168.04.312.12.432.08.12.196.212.348.276.152.064.332.096.54.096zm6.963 1.14c-.536 0-1.004-.084-1.404-.252a2.37 2.37 0 01-.936-.72 2.167 2.167 0 01-.396-1.068h1.44c.04.168.112.324.216.468.104.136.244.244.42.324.184.08.4.12.648.12.24 0 .436-.032.588-.096a.784.784 0 00.336-.276.654.654 0 00.108-.36c0-.192-.052-.34-.156-.444a1.023 1.023 0 00-.456-.24 6.17 6.17 0 00-.696-.18 9.196 9.196 0 01-.84-.204 3.707 3.707 0 01-.72-.324 1.56 1.56 0 01-.504-.492c-.12-.2-.18-.444-.18-.732 0-.352.092-.668.276-.948.192-.28.464-.5.816-.66.36-.168.788-.252 1.284-.252.704 0 1.264.164 1.68.492.424.32.672.772.744 1.356h-1.368a.746.746 0 00-.336-.516c-.184-.128-.428-.192-.732-.192-.312 0-.552.06-.72.18a.528.528 0 00-.24.456c0 .12.048.232.144.336.104.096.252.18.444.252.192.064.428.128.708.192a8.75 8.75 0 011.188.312c.344.12.616.296.816.528.2.232.3.56.3.984.008.384-.092.724-.3 1.02a2 2 0 01-.852.696c-.368.16-.808.24-1.32.24zm6.281 0c-.536 0-1.004-.084-1.404-.252a2.37 2.37 0 01-.936-.72 2.167 2.167 0 01-.396-1.068h1.44c.04.168.112.324.216.468.104.136.244.244.42.324.184.08.4.12.648.12.24 0 .436-.032.588-.096a.784.784 0 00.336-.276.654.654 0 00.108-.36c0-.192-.052-.34-.156-.444a1.023 1.023 0 00-.456-.24 6.17 6.17 0 00-.696-.18 9.196 9.196 0 01-.84-.204 3.707 3.707 0 01-.72-.324 1.56 1.56 0 01-.504-.492c-.12-.2-.18-.444-.18-.732 0-.352.092-.668.276-.948.192-.28.464-.5.816-.66.36-.168.788-.252 1.284-.252.704 0 1.264.164 1.68.492.424.32.672.772.744 1.356h-1.368a.746.746 0 00-.336-.516c-.184-.128-.428-.192-.732-.192-.312 0-.552.06-.72.18a.528.528 0 00-.24.456c0 .12.048.232.144.336.104.096.252.18.444.252.192.064.428.128.708.192a8.75 8.75 0 011.188.312c.344.12.616.296.816.528.2.232.3.56.3.984.008.384-.092.724-.3 1.02a2 2 0 01-.852.696c-.368.16-.808.24-1.32.24zm3.929-.144v-6.048h1.44V219h-1.44zm.72-7.008a.944.944 0 01-.66-.24.833.833 0 01-.252-.612.77.77 0 01.252-.6.944.944 0 01.66-.24c.264 0 .48.08.648.24a.754.754 0 01.264.6c0 .24-.088.444-.264.612a.901.901 0 01-.648.24zm4.796 7.152c-.536 0-1.004-.084-1.404-.252a2.37 2.37 0 01-.936-.72 2.167 2.167 0 01-.396-1.068h1.44c.04.168.112.324.216.468.104.136.244.244.42.324.184.08.4.12.648.12.24 0 .436-.032.588-.096a.784.784 0 00.336-.276.654.654 0 00.108-.36c0-.192-.052-.34-.156-.444a1.023 1.023 0 00-.456-.24 6.17 6.17 0 00-.696-.18 9.196 9.196 0 01-.84-.204 3.707 3.707 0 01-.72-.324 1.56 1.56 0 01-.504-.492c-.12-.2-.18-.444-.18-.732 0-.352.092-.668.276-.948.192-.28.464-.5.816-.66.36-.168.788-.252 1.284-.252.704 0 1.264.164 1.68.492.424.32.672.772.744 1.356h-1.368a.746.746 0 00-.336-.516c-.184-.128-.428-.192-.732-.192-.312 0-.552.06-.72.18a.528.528 0 00-.24.456c0 .12.048.232.144.336.104.096.252.18.444.252.192.064.428.128.708.192a8.75 8.75 0 011.188.312c.344.12.616.296.816.528.2.232.3.56.3.984.008.384-.092.724-.3 1.02a2 2 0 01-.852.696c-.368.16-.808.24-1.32.24zm6.286-.144c-.408 0-.764-.064-1.068-.192a1.448 1.448 0 01-.696-.636c-.168-.296-.252-.696-.252-1.2v-2.808h-1.032v-1.212h1.032l.168-1.596h1.272v1.596h1.644v1.212h-1.644v2.808c0 .304.064.516.192.636.136.112.36.168.672.168h.744V219h-1.032zm6.085 2.64l1.476-3.312h-.36l-2.412-5.376h1.572l1.8 4.104 1.704-4.104h1.524l-3.78 8.688h-1.524zm8.639-2.496a3.098 3.098 0 01-1.56-.396 2.954 2.954 0 01-1.08-1.116c-.256-.48-.384-1.028-.384-1.644 0-.632.132-1.184.396-1.656.264-.48.624-.852 1.08-1.116a3.027 3.027 0 011.56-.408c.576 0 1.092.136 1.548.408.464.264.824.632 1.08 1.104.264.472.396 1.024.396 1.656 0 .632-.132 1.184-.396 1.656a2.926 2.926 0 01-1.092 1.116 3.033 3.033 0 01-1.548.396zm0-1.236c.288 0 .548-.072.78-.216.24-.144.432-.36.576-.648.144-.288.216-.644.216-1.068 0-.424-.072-.776-.216-1.056a1.453 1.453 0 00-1.344-.864c-.28 0-.54.072-.78.216-.24.144-.432.36-.576.648-.144.28-.216.632-.216 1.056 0 .424.072.78.216 1.068.144.288.332.504.564.648.24.144.5.216.78.216zm6.689 1.236c-.488 0-.908-.096-1.26-.288a1.954 1.954 0 01-.792-.888c-.184-.4-.276-.892-.276-1.476v-3.54h1.44v3.396c0 .52.108.916.324 1.188.224.264.56.396 1.008.396.288 0 .544-.068.768-.204.232-.136.412-.332.54-.588.136-.264.204-.584.204-.96v-3.228h1.44V219h-1.272l-.108-1.008a2.081 2.081 0 01-.804.84c-.344.208-.748.312-1.212.312zm10.556-.144c-.408 0-.764-.064-1.068-.192a1.448 1.448 0 01-.696-.636c-.168-.296-.252-.696-.252-1.2v-2.808h-1.032v-1.212h1.032l.168-1.596h1.272v1.596h1.644v1.212h-1.644v2.808c0 .304.064.516.192.636.136.112.36.168.672.168h.744V219h-1.032zm5.091.144a3.098 3.098 0 01-1.56-.396 2.954 2.954 0 01-1.08-1.116c-.256-.48-.384-1.028-.384-1.644 0-.632.132-1.184.396-1.656.264-.48.624-.852 1.08-1.116a3.027 3.027 0 011.56-.408c.576 0 1.092.136 1.548.408.464.264.824.632 1.08 1.104.264.472.396 1.024.396 1.656 0 .632-.132 1.184-.396 1.656a2.926 2.926 0 01-1.092 1.116 3.033 3.033 0 01-1.548.396zm0-1.236c.288 0 .548-.072.78-.216.24-.144.432-.36.576-.648.144-.288.216-.644.216-1.068 0-.424-.072-.776-.216-1.056a1.453 1.453 0 00-1.344-.864c-.28 0-.54.072-.78.216-.24.144-.432.36-.576.648-.144.28-.216.632-.216 1.056 0 .424.072.78.216 1.068.144.288.332.504.564.648.24.144.5.216.78.216zm7.133 1.236c-.56 0-1.06-.136-1.5-.408a2.815 2.815 0 01-1.032-1.128c-.24-.48-.36-1.024-.36-1.632 0-.608.124-1.148.372-1.62.248-.48.592-.856 1.032-1.128.448-.28.952-.42 1.512-.42.456 0 .852.088 1.188.264.344.168.616.408.816.72v-3.432h1.44V219h-1.296l-.144-.876a3.044 3.044 0 01-.468.504 2.287 2.287 0 01-.66.372 2.56 2.56 0 01-.9.144zm.3-1.248c.344 0 .648-.08.912-.24.264-.168.468-.396.612-.684.144-.288.216-.62.216-.996s-.072-.708-.216-.996a1.607 1.607 0 00-.612-.672 1.725 1.725 0 00-.912-.24c-.328 0-.624.08-.888.24-.264.16-.472.384-.624.672-.144.288-.216.62-.216.996s.072.708.216.996c.152.288.36.516.624.684.264.16.56.24.888.24zm6.786 1.248c-.496 0-.908-.084-1.236-.252a1.713 1.713 0 01-.972-1.584c0-.384.096-.716.288-.996.2-.28.492-.496.876-.648.384-.16.856-.24 1.416-.24h1.524c0-.32-.044-.584-.132-.792a.935.935 0 00-.408-.48c-.184-.104-.42-.156-.708-.156-.328 0-.608.076-.84.228-.232.144-.376.368-.432.672h-1.416c.048-.432.192-.8.432-1.104.24-.312.556-.552.948-.72.4-.176.836-.264 1.308-.264.568 0 1.052.1 1.452.3.4.192.704.472.912.84.216.36.324.796.324 1.308V219h-1.224l-.144-.972a1.86 1.86 0 01-.312.444c-.12.136-.26.256-.42.36-.16.096-.344.172-.552.228-.2.056-.428.084-.684.084zm.324-1.14c.232 0 .436-.04.612-.12.184-.088.34-.208.468-.36.136-.16.24-.336.312-.528.072-.192.12-.396.144-.612v-.024h-1.332c-.28 0-.512.036-.696.108a.726.726 0 00-.396.288.82.82 0 00-.12.444c0 .168.04.312.12.432.08.12.196.212.348.276.152.064.332.096.54.096zm5.083 3.636l1.476-3.312h-.36l-2.412-5.376h1.572l1.8 4.104 1.704-4.104h1.524l-3.78 8.688h-1.524zm7.307-5.268l-.048-1.92h.516c.312 0 .604-.016.876-.048.28-.04.524-.112.732-.216.208-.112.372-.264.492-.456.12-.2.18-.456.18-.768 0-.28-.056-.516-.168-.708a1.122 1.122 0 00-.48-.444c-.2-.104-.44-.156-.72-.156-.28 0-.524.052-.732.156a1.122 1.122 0 00-.48.444c-.112.192-.168.42-.168.684h-1.368c0-.48.112-.908.336-1.284.224-.376.544-.668.96-.876.416-.216.904-.324 1.464-.324.536 0 1.012.1 1.428.3.416.2.74.488.972.864.232.368.348.816.348 1.344 0 .56-.12 1.02-.36 1.38-.24.36-.576.628-1.008.804-.424.176-.912.264-1.464.264l-.036.96h-1.272zm.636 2.688a.918.918 0 01-.66-.252.82.82 0 01-.252-.6c0-.248.084-.456.252-.624a.918.918 0 01.66-.252c.272 0 .492.084.66.252a.847.847 0 01.252.624.82.82 0 01-.252.6c-.168.168-.388.252-.66.252z"
            fill="#06081F" fill-opacity=".88" />
        </g>
      </g>
    </g>
    <path fill="url(#paint1_radial_23041_84697)" d="M0 0h720v240H0z" />
  </g>
  <defs>
    <filter id="filter0_f_23041_84697" x="-370" y="-660" width="1350" height="1350"
      filterUnits="userSpaceOnUse" color-interpolation-filters="sRGB">
      <feFlood flood-opacity="0" result="BackgroundImageFix" />
      <feBlend in="SourceGraphic" in2="BackgroundImageFix" result="shape" />
      <feGaussianBlur stdDeviation="225" result="effect1_foregroundBlur_23041_84697" />
    </filter>
    <filter id="filter1_f_23041_84697" x="-30" y="-250" width="1100" height="1100"
      filterUnits="userSpaceOnUse" color-interpolation-filters="sRGB">
      <feFlood flood-opacity="0" result="BackgroundImageFix" />
      <feBlend in="SourceGraphic" in2="BackgroundImageFix" result="shape" />
      <feGaussianBlur stdDeviation="200" result="effect1_foregroundBlur_23041_84697" />
    </filter>
    <filter id="filter2_di_23041_84697" x="437.922" y="38.597" width="12.156" height="10.956"
      filterUnits="userSpaceOnUse" color-interpolation-filters="sRGB">
      <feFlood flood-opacity="0" result="BackgroundImageFix" />
      <feColorMatrix in="SourceAlpha" values="0 0 0 0 0 0 0 0 0 0 0 0 0 0 0 0 0 0 127 0"
        result="hardAlpha" />
      <feOffset dy=".078" />
      <feGaussianBlur stdDeviation=".039" />
      <feComposite in2="hardAlpha" operator="out" />
      <feColorMatrix values="0 0 0 0 0 0 0 0 0 0 0 0 0 0 0 0 0 0 0.2 0" />
      <feBlend in2="BackgroundImageFix" result="effect1_dropShadow_23041_84697" />
      <feBlend in="SourceGraphic" in2="effect1_dropShadow_23041_84697" result="shape" />
      <feColorMatrix in="SourceAlpha" values="0 0 0 0 0 0 0 0 0 0 0 0 0 0 0 0 0 0 127 0"
        result="hardAlpha" />
      <feOffset dy=".078" />
      <feGaussianBlur stdDeviation=".039" />
      <feComposite in2="hardAlpha" operator="arithmetic" k2="-1" k3="1" />
      <feColorMatrix values="0 0 0 0 0 0 0 0 0 0 0 0 0 0 0 0 0 0 0.25 0" />
      <feBlend in2="shape" result="effect2_innerShadow_23041_84697" />
    </filter>
    <filter id="filter3_b_23041_84697" x="596" y="6" width="76" height="76"
      filterUnits="userSpaceOnUse" color-interpolation-filters="sRGB">
      <feFlood flood-opacity="0" result="BackgroundImageFix" />
      <feGaussianBlur in="BackgroundImageFix" stdDeviation="15" />
      <feComposite in2="SourceAlpha" operator="in" result="effect1_backgroundBlur_23041_84697" />
      <feBlend in="SourceGraphic" in2="effect1_backgroundBlur_23041_84697" result="shape" />
    </filter>
    <filter id="filter4_b_23041_84697" x="618" y="6" width="76" height="76"
      filterUnits="userSpaceOnUse" color-interpolation-filters="sRGB">
      <feFlood flood-opacity="0" result="BackgroundImageFix" />
      <feGaussianBlur in="BackgroundImageFix" stdDeviation="15" />
      <feComposite in2="SourceAlpha" operator="in" result="effect1_backgroundBlur_23041_84697" />
      <feBlend in="SourceGraphic" in2="effect1_backgroundBlur_23041_84697" result="shape" />
    </filter>
    <filter id="filter5_ddd_23041_84697" x="-46" y="-42" width="812" height="1020"
      filterUnits="userSpaceOnUse" color-interpolation-filters="sRGB">
      <feFlood flood-opacity="0" result="BackgroundImageFix" />
      <feColorMatrix in="SourceAlpha" values="0 0 0 0 0 0 0 0 0 0 0 0 0 0 0 0 0 0 127 0"
        result="hardAlpha" />
      <feOffset dy="24" />
      <feGaussianBlur stdDeviation="48" />
      <feColorMatrix values="0 0 0 0 0.447059 0 0 0 0 0.462745 0 0 0 0 0.545098 0 0 0 0.08 0" />
      <feBlend in2="BackgroundImageFix" result="effect1_dropShadow_23041_84697" />
      <feColorMatrix in="SourceAlpha" values="0 0 0 0 0 0 0 0 0 0 0 0 0 0 0 0 0 0 127 0"
        result="hardAlpha" />
      <feOffset dy="12" />
      <feGaussianBlur stdDeviation="24" />
      <feColorMatrix values="0 0 0 0 0.447059 0 0 0 0 0.462745 0 0 0 0 0.545098 0 0 0 0.08 0" />
      <feBlend in2="effect1_dropShadow_23041_84697" result="effect2_dropShadow_23041_84697" />
      <feColorMatrix in="SourceAlpha" values="0 0 0 0 0 0 0 0 0 0 0 0 0 0 0 0 0 0 127 0"
        result="hardAlpha" />
      <feOffset dy="6" />
      <feGaussianBlur stdDeviation="12" />
      <feColorMatrix values="0 0 0 0 0.447059 0 0 0 0 0.462745 0 0 0 0 0.545098 0 0 0 0.08 0" />
      <feBlend in2="effect2_dropShadow_23041_84697" result="effect3_dropShadow_23041_84697" />
      <feBlend in="SourceGraphic" in2="effect3_dropShadow_23041_84697" result="shape" />
    </filter>
    <filter id="filter6_d_23041_84697" x="428" y="60" width="244" height="804"
      filterUnits="userSpaceOnUse" color-interpolation-filters="sRGB">
      <feFlood flood-opacity="0" result="BackgroundImageFix" />
      <feColorMatrix in="SourceAlpha" values="0 0 0 0 0 0 0 0 0 0 0 0 0 0 0 0 0 0 127 0"
        result="hardAlpha" />
      <feOffset dy="4" />
      <feGaussianBlur stdDeviation="2" />
      <feComposite in2="hardAlpha" operator="out" />
      <feColorMatrix values="0 0 0 0 0.447059 0 0 0 0 0.462745 0 0 0 0 0.545098 0 0 0 0.06 0" />
      <feBlend in2="BackgroundImageFix" result="effect1_dropShadow_23041_84697" />
      <feBlend in="SourceGraphic" in2="effect1_dropShadow_23041_84697" result="shape" />
    </filter>
    <filter id="filter7_b_23041_84697" x="609" y="38" width="81" height="81"
      filterUnits="userSpaceOnUse" color-interpolation-filters="sRGB">
      <feFlood flood-opacity="0" result="BackgroundImageFix" />
      <feGaussianBlur in="BackgroundImageFix" stdDeviation="15" />
      <feComposite in2="SourceAlpha" operator="in" result="effect1_backgroundBlur_23041_84697" />
      <feBlend in="SourceGraphic" in2="effect1_backgroundBlur_23041_84697" result="shape" />
    </filter>
    <clipPath id="clip0_23041_84697">
      <path fill="#fff" d="M0 0h720v240H0z" />
    </clipPath>
    <clipPath id="clip1_23041_84697">
      <rect x="438" y="38" width="12" height="12" rx="4.297" fill="#fff" />
    </clipPath>
    <clipPath id="clip2_23041_84697">
      <rect x="430" y="58" width="240" height="800" rx="12" fill="#fff" />
    </clipPath>
    <radialGradient id="paint1_radial_23041_84697" cx="0" cy="0" r="1"
      gradientUnits="userSpaceOnUse" gradientTransform="matrix(-551.5 0 0 -240 551.5 240)">
      <stop stop-color="#72768B" stop-opacity=".08" />
      <stop offset="1" stop-color="#fff" stop-opacity="0" />
    </radialGradient>
    <linearGradient id="paint0_linear_23041_84697" x1="448.211" y1="49.106" x2="439.172" y2="40.303"
      gradientUnits="userSpaceOnUse">
      <stop stop-color="#32C5FF" />
      <stop offset=".25" stop-color="#5666F5" />
      <stop offset=".524" stop-color="#8A57EA" />
      <stop offset=".821" stop-color="#EB35CE" />
      <stop offset="1" stop-color="#F7B500" />
    </linearGradient>
  </defs>
</svg>
