<svg xmlns="http://www.w3.org/2000/svg" width="16" height="16" viewBox="0 0 16 16" fill="none">
  <rect y="-0.000701904" width="16" height="16" rx="8" fill="white" />
  <path
    d="M9.55192 12.2908L8.14479 8.97632C7.58414 10.0701 6.96852 11.2189 6.44085 12.2908C6.43536 12.2963 6.18251 12.2908 6.18251 12.2908C5.37452 10.3944 4.53904 8.5256 3.72554 6.64577C3.53866 6.18405 2.87907 5.44751 2.42285 5.44751V5.20017H5.20412V5.44751C4.87433 5.44751 4.31368 5.66738 4.45659 6.02465C4.85234 6.87113 6.23748 10.1526 6.61674 10.9881C6.87508 10.4714 7.60613 9.10824 7.91943 8.53109C7.67209 8.0474 6.89157 6.23352 6.66072 5.7828C6.48483 5.48599 6.0396 5.44751 5.69881 5.44751C5.69881 5.36506 5.70431 5.3101 5.69881 5.20566L8.15029 5.21116V5.43102C7.815 5.44751 7.50169 5.56294 7.6446 5.88174C7.9744 6.56332 8.16678 7.05251 8.46909 7.68462C8.56253 7.49774 9.05723 6.48087 9.29358 5.9477C9.43649 5.59042 9.22212 5.44751 8.62849 5.44751C8.63399 5.38155 8.63399 5.26613 8.63399 5.21116C9.39801 5.20566 10.5468 5.20566 10.7502 5.20017V5.43102C10.3599 5.44751 9.95867 5.65638 9.7498 5.97518L8.74392 8.08587C8.84286 8.3662 9.82125 10.5373 9.92569 10.7792L12.0419 5.92572C11.877 5.52996 11.4043 5.44751 11.2174 5.44751V5.20017L13.416 5.21666V5.44751C12.9323 5.44751 12.63 5.72234 12.4541 6.13459C12.0144 7.11847 10.6677 10.2515 9.78827 12.2908H9.55192Z"
    fill="black" />
</svg>