<svg width="100%" height="100%" viewBox="0 0 25 25" fill="none" xmlns="http://www.w3.org/2000/svg">
<path d="M6.69141 15.9148H21.6914" stroke="#F1F5F9" stroke-width="2" stroke-linecap="round" stroke-linejoin="round"/>
<path d="M21.6914 19.9148H6.69141" stroke="#F1F5F9" stroke-width="2" stroke-linecap="round" stroke-linejoin="round"/>
<path d="M15.6914 11.9148H21.6914" stroke="#F1F5F9" stroke-width="2" stroke-linecap="round" stroke-linejoin="round"/>
<path d="M21.6914 7.91479H15.6914" stroke="#F1F5F9" stroke-width="2" stroke-linecap="round" stroke-linejoin="round"/>
<path d="M9.69141 9.91479H10.6914C11.2437 9.91479 11.6914 10.3625 11.6914 10.9148C11.6914 11.4671 11.2437 11.9148 10.6914 11.9148C10.1391 11.9148 9.69141 11.4671 9.69141 10.9148V8.41479C9.69141 7.31023 10.5868 6.41479 11.6914 6.41479" stroke="#F1F5F9" stroke-width="2" stroke-linecap="round" stroke-linejoin="round"/>
<path d="M3.69141 9.91479H4.69141C5.24369 9.91479 5.69141 10.3625 5.69141 10.9148C5.69141 11.4671 5.24369 11.9148 4.69141 11.9148C4.13912 11.9148 3.69141 11.4671 3.69141 10.9148V8.41479C3.69141 7.31023 4.58684 6.41479 5.69141 6.41479" stroke="#F1F5F9" stroke-width="2" stroke-linecap="round" stroke-linejoin="round"/>
</svg>
