<svg width="40" height="40" viewBox="0 0 40 40" fill="none" xmlns="http://www.w3.org/2000/svg">
<g filter="url(#filter0_d_4140_10694)">
<path d="M2 7C2 3.68629 4.68629 1 8 1H32C35.3137 1 38 3.68629 38 7V31C38 34.3137 35.3137 37 32 37H8C4.68629 37 2 34.3137 2 31V7Z" fill="#27272A"/>
<path d="M26.6668 15.6667L20.6868 19.4667C20.481 19.5956 20.243 19.664 20.0002 19.664C19.7573 19.664 19.5193 19.5956 19.3135 19.4667L13.3335 15.6667M14.6668 13.6667H25.3335C26.0699 13.6667 26.6668 14.2636 26.6668 15V23C26.6668 23.7364 26.0699 24.3334 25.3335 24.3334H14.6668C13.9304 24.3334 13.3335 23.7364 13.3335 23V15C13.3335 14.2636 13.9304 13.6667 14.6668 13.6667Z" stroke="#F9FAFB" stroke-width="1.33" stroke-linecap="round" stroke-linejoin="round"/>
</g>
<defs>
<filter id="filter0_d_4140_10694" x="0" y="0" width="40" height="40" filterUnits="userSpaceOnUse" color-interpolation-filters="sRGB">
<feFlood flood-opacity="0" result="BackgroundImageFix"/>
<feColorMatrix in="SourceAlpha" type="matrix" values="0 0 0 0 0 0 0 0 0 0 0 0 0 0 0 0 0 0 127 0" result="hardAlpha"/>
<feOffset dy="1"/>
<feGaussianBlur stdDeviation="1"/>
<feColorMatrix type="matrix" values="0 0 0 0 0.0627451 0 0 0 0 0.0941176 0 0 0 0 0.156863 0 0 0 0.05 0"/>
<feBlend mode="normal" in2="BackgroundImageFix" result="effect1_dropShadow_4140_10694"/>
<feBlend mode="normal" in="SourceGraphic" in2="effect1_dropShadow_4140_10694" result="shape"/>
</filter>
</defs>
</svg>
