<svg width="128" height="128" viewBox="0 0 128 128" fill="none" xmlns="http://www.w3.org/2000/svg">
<path d="M20.3747 62.4765C19.8507 60.5211 20.5289 58.4406 22.1046 57.1696L64.6622 22.8409C67.5138 20.5407 71.7881 21.8951 72.7946 25.4179L84.4273 66.1325C84.96 67.9968 84.3932 70.002 82.9633 71.3115L40.8251 109.905C37.9935 112.498 33.4206 111.165 32.4268 107.456L20.3747 62.4765Z" fill="#C026D3"/>
<path d="M25.6341 63.1907L65.2878 31.2044C66.6245 30.1262 68.6281 30.761 69.0999 32.4123L80.1685 71.1525C80.4181 72.0264 80.1524 72.9663 79.4822 73.5802L40.2078 109.551C38.8805 110.766 36.7369 110.141 36.2711 108.403L24.8232 65.6783C24.5776 64.7617 24.8955 63.7864 25.6341 63.1907Z" stroke="#F5D0FE" stroke-width="0.319798"/>
<path d="M46.3609 73.9729L46.3609 73.9729L46.3554 73.9722L32.3652 72.18C30.2694 71.9116 29.5195 69.2607 31.1641 67.9341L67.4441 38.6692C68.7807 37.591 70.7843 38.2259 71.2561 39.8772L81.6517 76.2617C82.1347 77.9523 80.6948 79.5708 78.9595 79.2879L46.3609 73.9729Z" stroke="#F5D0FE" stroke-width="0.319798"/>
<path fill-rule="evenodd" clip-rule="evenodd" d="M36.174 30.4646C36.1548 30.4526 36.1359 30.4396 36.1181 30.4269C35.8793 30.2477 35.5613 29.9553 35.1733 29.6337C34.2203 28.8421 32.8624 27.894 31.2373 27.8853C30.1455 27.8792 28.9282 28.2907 27.6288 29.4713C27.027 30.0196 26.7705 30.7632 26.7376 31.5633C26.6896 32.7008 27.0967 33.9509 27.5253 34.8481C27.6976 35.2077 28.1648 35.8497 28.4466 36.3149C17.7051 32.109 6.36789 43.8084 12.6295 54.3068C12.7038 54.4316 12.8653 54.4717 12.9898 54.3985C13.1136 54.3239 13.1547 54.1627 13.0805 54.0379C7.01025 43.859 18.2107 32.5157 28.6076 36.9478C28.7976 37.0285 28.9255 37.0008 28.9941 36.9652C29.0939 36.9124 29.1623 36.8213 29.1622 36.6739C29.1616 36.564 29.0791 36.3488 28.9266 36.0946C28.654 35.6379 28.173 34.9846 27.9987 34.621C27.6023 33.7924 27.2174 32.6374 27.2619 31.5862C27.2893 30.9272 27.4875 30.3103 27.982 29.8598C29.1555 28.793 30.2484 28.4049 31.2353 28.4099C32.7275 28.4182 33.9632 29.3117 34.8388 30.0372C35.3052 30.4252 35.6755 30.7696 35.9315 30.9369C36.1031 31.0491 36.2487 31.0905 36.353 31.0836C36.4065 31.0795 36.5178 31.055 36.5881 30.9191C36.656 30.7869 36.7932 30.1339 36.8278 30.0281C37.7844 27.138 40.4898 25.9487 43.39 26.3202C48.2501 26.9431 50.2159 30.0503 49.6181 32.9284C49.0956 35.4451 46.6407 37.7341 42.5467 38.017C42.4172 38.0132 42.2867 38.0091 42.1565 38.004C41.7166 37.9874 40.5711 37.9665 40.412 37.9815C40.1901 38.0019 40.1595 38.1944 40.1564 38.2233C40.1505 38.2933 40.1587 38.4003 40.2866 38.4745C40.2985 38.4818 40.3651 38.511 40.5052 38.5228C41.2289 38.5819 41.9146 38.5861 42.561 38.5427C43.2409 38.5639 43.9196 38.579 44.5988 38.6321C47.3854 38.851 50.2048 39.2351 52.7626 40.4209C55.681 41.7727 59.0177 44.6764 60.5745 47.8429C61.3368 49.3935 61.6715 51.0059 61.2935 52.5263C60.9169 54.0461 59.8268 55.4636 57.7729 56.6367C57.6468 56.7083 57.6037 56.8689 57.6752 56.995C57.7468 57.1211 57.9074 57.1642 58.0335 57.0926C60.2428 55.8301 61.3972 54.288 61.8028 52.6528C62.2094 51.0179 61.8652 49.2792 61.0449 47.6115C59.4377 44.3416 55.9964 41.3405 52.9832 39.9445C50.4559 38.7735 47.6827 38.3607 44.9295 38.1319C47.901 37.2607 49.6809 35.2082 50.1317 33.0352C50.7803 29.9149 48.725 26.475 43.456 25.7994C40.3 25.3948 37.3712 26.7171 36.3294 29.8632C36.3096 29.9252 36.2283 30.2447 36.174 30.4646Z" fill="white"/>
<rect width="81.9807" height="58.3256" rx="5.11677" transform="matrix(0.965926 -0.25882 0.258818 0.965926 19.5098 59.2656)" fill="#E879F9"/>
<ellipse cx="2.5584" cy="2.55841" rx="2.5584" ry="2.55841" transform="matrix(0.965926 -0.25882 0.258818 0.965926 56.2695 71.8223)" fill="#701A75"/>
<ellipse cx="2.5584" cy="2.55841" rx="2.5584" ry="2.55841" transform="matrix(0.965926 -0.25882 0.258818 0.965926 70.7656 67.9375)" fill="#701A75"/>
<path d="M59.3946 86.637C59.3946 86.637 63.7414 79.6467 68.991 78.6387C72.1524 78.0317 73.6935 78.1835 76.6757 79.3955" stroke="#701A75" stroke-width="2" stroke-linecap="round"/>
<rect width="17.2685" height="7.67523" rx="2.55839" transform="matrix(0.965926 -0.25882 0.258818 0.965926 100.775 63.0703)" fill="#C026D3"/>
<ellipse cx="2.5584" cy="2.55841" rx="2.5584" ry="2.55841" transform="matrix(0.965926 -0.25882 0.258818 0.965926 111.693 61.4648)" fill="#FDF4FF"/>
<path fill-rule="evenodd" clip-rule="evenodd" d="M100.761 26.9649C100.489 26.5874 100.169 26.238 99.798 25.9209C98.4956 24.8081 96.3217 25.0314 94.5147 25.9921C92.7084 26.9524 91.3065 28.6309 91.4683 30.2795C91.5607 31.2222 91.9162 31.8413 92.416 32.223C92.9134 32.6026 93.5651 32.7495 94.2856 32.7148C96.2939 32.6174 98.8584 31.0875 99.7135 29.9403C100.109 29.4095 100.468 28.8521 100.793 28.2743C101.589 30.0063 101.566 32.1922 101.093 34.4788C100.066 39.4484 96.8875 44.9013 94.8885 47.4882C94.7811 47.6272 94.8071 47.8265 94.9461 47.9339C95.0851 48.0413 95.2849 48.0159 95.3923 47.877C97.4308 45.2388 100.668 39.6759 101.716 34.6079C102.257 31.99 102.209 29.5045 101.158 27.5923C103.411 23.1425 103.922 17.5767 104.391 12.865C104.409 12.6907 104.281 12.5345 104.106 12.517C103.932 12.5001 103.776 12.6271 103.758 12.8021C103.308 17.3212 102.842 22.6477 100.761 26.9649ZM100.433 27.6112C100.152 27.169 99.8054 26.7634 99.384 26.4041C98.257 25.4408 96.3772 25.7216 94.813 26.5533C93.8545 27.0635 93.0096 27.789 92.5208 28.6059C92.2134 29.1193 92.0478 29.6676 92.102 30.2175C92.1728 30.9392 92.4197 31.4257 92.8023 31.7171C93.1867 32.0112 93.6966 32.1065 94.2545 32.079C96.085 31.9907 98.4248 30.6045 99.203 29.5602C99.6622 28.9444 100.07 28.2923 100.433 27.6112Z" fill="white"/>
</svg>
