<svg width="100%" height="100%" viewBox="0 0 25 25" fill="none" xmlns="http://www.w3.org/2000/svg">
<path d="M10.8496 11.9148H6.84961C6.29732 11.9148 5.84961 11.4671 5.84961 10.9148V7.91479C5.84961 7.36251 6.29732 6.91479 6.84961 6.91479H9.84961C10.4019 6.91479 10.8496 7.36251 10.8496 7.91479V13.9148C10.8496 16.5818 9.51661 18.2478 6.84961 18.9148" stroke="#F1F5F9" stroke-width="2" stroke-linecap="round" stroke-linejoin="round"/>
<path d="M19.8496 11.9148H15.8496C15.2973 11.9148 14.8496 11.4671 14.8496 10.9148V7.91479C14.8496 7.36251 15.2973 6.91479 15.8496 6.91479H18.8496C19.4019 6.91479 19.8496 7.36251 19.8496 7.91479V13.9148C19.8496 16.5818 18.5166 18.2478 15.8496 18.9148" stroke="#F1F5F9" stroke-width="2" stroke-linecap="round" stroke-linejoin="round"/>
</svg>
