<svg width="33" height="31" viewBox="0 0 33 31" fill="none" xmlns="http://www.w3.org/2000/svg">
  <path
    d="M1.66046 26.2591H25.895C28.3187 26.2591 30.2834 24.2944 30.2834 21.8708C30.2834 19.4472 28.3187 17.4824 25.895 17.4824"
    stroke="#CAC8CB" stroke-width="2.8221" stroke-linecap="round" />
  <path
    d="M4.48158 30.7278C5.41147 30.7278 6.16528 29.9739 6.16528 29.0441C6.16528 28.1142 5.41147 27.3604 4.48158 27.3604C3.5517 27.3604 2.79788 28.1142 2.79788 29.0441C2.79788 29.9739 3.5517 30.7278 4.48158 30.7278Z"
    fill="#4381C4" />
  <path
    d="M4.48158 30.7278C5.41147 30.7278 6.16528 29.9739 6.16528 29.0441C6.16528 28.1142 5.41147 27.3604 4.48158 27.3604C3.5517 27.3604 2.79788 28.1142 2.79788 29.0441C2.79788 29.9739 3.5517 30.7278 4.48158 30.7278Z"
    fill="url(#paint0_radial_5157_43370)" />
  <path
    d="M4.48158 30.7278C5.41147 30.7278 6.16528 29.9739 6.16528 29.0441C6.16528 28.1142 5.41147 27.3604 4.48158 27.3604C3.5517 27.3604 2.79788 28.1142 2.79788 29.0441C2.79788 29.9739 3.5517 30.7278 4.48158 30.7278Z"
    fill="url(#paint1_radial_5157_43370)" />
  <path
    d="M4.48158 30.7278C5.41147 30.7278 6.16528 29.9739 6.16528 29.0441C6.16528 28.1142 5.41147 27.3604 4.48158 27.3604C3.5517 27.3604 2.79788 28.1142 2.79788 29.0441C2.79788 29.9739 3.5517 30.7278 4.48158 30.7278Z"
    fill="url(#paint2_radial_5157_43370)" />
  <path
    d="M4.48159 30.2348C5.13943 30.2348 5.67272 29.7015 5.67272 29.0437C5.67272 28.3858 5.13943 27.8525 4.48159 27.8525C3.82375 27.8525 3.29047 28.3858 3.29047 29.0437C3.29047 29.7015 3.82375 30.2348 4.48159 30.2348Z"
    fill="#4880CB" />
  <path fill-rule="evenodd" clip-rule="evenodd"
    d="M7.04826 14.6523C7.23819 14.6523 7.39215 14.4984 7.39215 14.3084V10.8139C7.39215 10.6239 7.23819 10.47 7.04825 10.47H1.95954C1.76961 10.47 1.61563 10.316 1.61563 10.1261V9.66754C1.61563 9.47759 1.76961 9.32364 1.95954 9.32364H7.04826C7.23819 9.32364 7.39215 9.16968 7.39215 8.97973V5.50308C7.39215 5.31315 7.54613 5.15918 7.73607 5.15918H8.1946C8.38454 5.15918 8.5385 5.31315 8.5385 5.50308V8.97973C8.5385 9.16968 8.69248 9.32364 8.88242 9.32364H13.4069C13.5969 9.32364 13.7508 9.16968 13.7508 8.97973V5.50308C13.7508 5.31315 13.9048 5.15918 14.0947 5.15918H14.5533C14.7432 5.15918 14.8972 5.31315 14.8972 5.50308V8.97973C14.8972 9.16968 15.0511 9.32364 15.2411 9.32364H19.7656C19.9555 9.32364 20.1095 9.16968 20.1095 8.97973V5.50308C20.1095 5.31315 20.2635 5.15918 20.4534 5.15918H20.9119C21.1019 5.15918 21.2559 5.31315 21.2559 5.50308V8.97973C21.2559 9.16968 21.4098 9.32364 21.5998 9.32364H26.6437C26.8336 9.32364 26.9876 9.47759 26.9876 9.66754V10.1261C26.9876 10.316 26.8336 10.47 26.6437 10.47H21.5998C21.4098 10.47 21.2559 10.6239 21.2559 10.8139V14.3084C21.2559 14.4984 21.4098 14.6523 21.5998 14.6523H26.6437C26.8336 14.6523 26.9876 14.8064 26.9876 14.9962V15.4548C26.9876 15.6447 26.8336 15.7987 26.6437 15.7987H21.5998C21.4098 15.7987 21.2559 15.9527 21.2559 16.1426V20.7065C21.2559 20.8965 21.1019 21.0504 20.9119 21.0504H20.4534C20.2635 21.0504 20.1095 20.8965 20.1095 20.7065V16.1426C20.1095 15.9527 19.9555 15.7987 19.7656 15.7987H15.2411C15.0511 15.7987 14.8972 15.9527 14.8972 16.1426V19.7536C14.8972 19.9435 14.7432 20.0975 14.5533 20.0975H14.0947C13.9048 20.0975 13.7508 19.9435 13.7508 19.7536V16.1426C13.7508 15.9527 13.5969 15.7987 13.4069 15.7987H8.88242C8.69248 15.7987 8.5385 15.9527 8.5385 16.1426V19.7536C8.5385 19.9435 8.38454 20.0975 8.1946 20.0975H7.73607C7.54613 20.0975 7.39215 19.9435 7.39215 19.7536V16.1426C7.39215 15.9527 7.23819 15.7987 7.04825 15.7987H1.95954C1.76961 15.7988 1.61563 15.6447 1.61563 15.4548V14.9963C1.61563 14.8064 1.76961 14.6524 1.95954 14.6523H7.04826ZM8.5385 14.3084C8.5385 14.4984 8.69248 14.6523 8.88242 14.6523H13.4069C13.5969 14.6523 13.7508 14.4984 13.7508 14.3084V10.8139C13.7508 10.6239 13.5969 10.47 13.4069 10.47H8.88241C8.69248 10.47 8.5385 10.6239 8.5385 10.8139V14.3084ZM14.8972 14.3084C14.8972 14.4984 15.0511 14.6523 15.2411 14.6523H19.7656C19.9555 14.6523 20.1095 14.4984 20.1095 14.3084V10.8139C20.1095 10.6239 19.9555 10.47 19.7656 10.47H15.2411C15.0511 10.47 14.8972 10.6239 14.8972 10.8139V14.3084Z"
    fill="#A09DA3" />
  <path fill-rule="evenodd" clip-rule="evenodd"
    d="M7.04826 14.6523C7.23819 14.6523 7.39215 14.4984 7.39215 14.3084V10.8139C7.39215 10.6239 7.23819 10.47 7.04825 10.47H1.95954C1.76961 10.47 1.61563 10.316 1.61563 10.1261V9.66754C1.61563 9.47759 1.76961 9.32364 1.95954 9.32364H7.04826C7.23819 9.32364 7.39215 9.16968 7.39215 8.97973V5.50308C7.39215 5.31315 7.54613 5.15918 7.73607 5.15918H8.1946C8.38454 5.15918 8.5385 5.31315 8.5385 5.50308V8.97973C8.5385 9.16968 8.69248 9.32364 8.88242 9.32364H13.4069C13.5969 9.32364 13.7508 9.16968 13.7508 8.97973V5.50308C13.7508 5.31315 13.9048 5.15918 14.0947 5.15918H14.5533C14.7432 5.15918 14.8972 5.31315 14.8972 5.50308V8.97973C14.8972 9.16968 15.0511 9.32364 15.2411 9.32364H19.7656C19.9555 9.32364 20.1095 9.16968 20.1095 8.97973V5.50308C20.1095 5.31315 20.2635 5.15918 20.4534 5.15918H20.9119C21.1019 5.15918 21.2559 5.31315 21.2559 5.50308V8.97973C21.2559 9.16968 21.4098 9.32364 21.5998 9.32364H26.6437C26.8336 9.32364 26.9876 9.47759 26.9876 9.66754V10.1261C26.9876 10.316 26.8336 10.47 26.6437 10.47H21.5998C21.4098 10.47 21.2559 10.6239 21.2559 10.8139V14.3084C21.2559 14.4984 21.4098 14.6523 21.5998 14.6523H26.6437C26.8336 14.6523 26.9876 14.8064 26.9876 14.9962V15.4548C26.9876 15.6447 26.8336 15.7987 26.6437 15.7987H21.5998C21.4098 15.7987 21.2559 15.9527 21.2559 16.1426V20.7065C21.2559 20.8965 21.1019 21.0504 20.9119 21.0504H20.4534C20.2635 21.0504 20.1095 20.8965 20.1095 20.7065V16.1426C20.1095 15.9527 19.9555 15.7987 19.7656 15.7987H15.2411C15.0511 15.7987 14.8972 15.9527 14.8972 16.1426V19.7536C14.8972 19.9435 14.7432 20.0975 14.5533 20.0975H14.0947C13.9048 20.0975 13.7508 19.9435 13.7508 19.7536V16.1426C13.7508 15.9527 13.5969 15.7987 13.4069 15.7987H8.88242C8.69248 15.7987 8.5385 15.9527 8.5385 16.1426V19.7536C8.5385 19.9435 8.38454 20.0975 8.1946 20.0975H7.73607C7.54613 20.0975 7.39215 19.9435 7.39215 19.7536V16.1426C7.39215 15.9527 7.23819 15.7987 7.04825 15.7987H1.95954C1.76961 15.7988 1.61563 15.6447 1.61563 15.4548V14.9963C1.61563 14.8064 1.76961 14.6524 1.95954 14.6523H7.04826ZM8.5385 14.3084C8.5385 14.4984 8.69248 14.6523 8.88242 14.6523H13.4069C13.5969 14.6523 13.7508 14.4984 13.7508 14.3084V10.8139C13.7508 10.6239 13.5969 10.47 13.4069 10.47H8.88241C8.69248 10.47 8.5385 10.6239 8.5385 10.8139V14.3084ZM14.8972 14.3084C14.8972 14.4984 15.0511 14.6523 15.2411 14.6523H19.7656C19.9555 14.6523 20.1095 14.4984 20.1095 14.3084V10.8139C20.1095 10.6239 19.9555 10.47 19.7656 10.47H15.2411C15.0511 10.47 14.8972 10.6239 14.8972 10.8139V14.3084Z"
    fill="url(#paint3_radial_5157_43370)" />
  <path fill-rule="evenodd" clip-rule="evenodd"
    d="M7.04826 14.6523C7.23819 14.6523 7.39215 14.4984 7.39215 14.3084V10.8139C7.39215 10.6239 7.23819 10.47 7.04825 10.47H1.95954C1.76961 10.47 1.61563 10.316 1.61563 10.1261V9.66754C1.61563 9.47759 1.76961 9.32364 1.95954 9.32364H7.04826C7.23819 9.32364 7.39215 9.16968 7.39215 8.97973V5.50308C7.39215 5.31315 7.54613 5.15918 7.73607 5.15918H8.1946C8.38454 5.15918 8.5385 5.31315 8.5385 5.50308V8.97973C8.5385 9.16968 8.69248 9.32364 8.88242 9.32364H13.4069C13.5969 9.32364 13.7508 9.16968 13.7508 8.97973V5.50308C13.7508 5.31315 13.9048 5.15918 14.0947 5.15918H14.5533C14.7432 5.15918 14.8972 5.31315 14.8972 5.50308V8.97973C14.8972 9.16968 15.0511 9.32364 15.2411 9.32364H19.7656C19.9555 9.32364 20.1095 9.16968 20.1095 8.97973V5.50308C20.1095 5.31315 20.2635 5.15918 20.4534 5.15918H20.9119C21.1019 5.15918 21.2559 5.31315 21.2559 5.50308V8.97973C21.2559 9.16968 21.4098 9.32364 21.5998 9.32364H26.6437C26.8336 9.32364 26.9876 9.47759 26.9876 9.66754V10.1261C26.9876 10.316 26.8336 10.47 26.6437 10.47H21.5998C21.4098 10.47 21.2559 10.6239 21.2559 10.8139V14.3084C21.2559 14.4984 21.4098 14.6523 21.5998 14.6523H26.6437C26.8336 14.6523 26.9876 14.8064 26.9876 14.9962V15.4548C26.9876 15.6447 26.8336 15.7987 26.6437 15.7987H21.5998C21.4098 15.7987 21.2559 15.9527 21.2559 16.1426V20.7065C21.2559 20.8965 21.1019 21.0504 20.9119 21.0504H20.4534C20.2635 21.0504 20.1095 20.8965 20.1095 20.7065V16.1426C20.1095 15.9527 19.9555 15.7987 19.7656 15.7987H15.2411C15.0511 15.7987 14.8972 15.9527 14.8972 16.1426V19.7536C14.8972 19.9435 14.7432 20.0975 14.5533 20.0975H14.0947C13.9048 20.0975 13.7508 19.9435 13.7508 19.7536V16.1426C13.7508 15.9527 13.5969 15.7987 13.4069 15.7987H8.88242C8.69248 15.7987 8.5385 15.9527 8.5385 16.1426V19.7536C8.5385 19.9435 8.38454 20.0975 8.1946 20.0975H7.73607C7.54613 20.0975 7.39215 19.9435 7.39215 19.7536V16.1426C7.39215 15.9527 7.23819 15.7987 7.04825 15.7987H1.95954C1.76961 15.7988 1.61563 15.6447 1.61563 15.4548V14.9963C1.61563 14.8064 1.76961 14.6524 1.95954 14.6523H7.04826ZM8.5385 14.3084C8.5385 14.4984 8.69248 14.6523 8.88242 14.6523H13.4069C13.5969 14.6523 13.7508 14.4984 13.7508 14.3084V10.8139C13.7508 10.6239 13.5969 10.47 13.4069 10.47H8.88241C8.69248 10.47 8.5385 10.6239 8.5385 10.8139V14.3084ZM14.8972 14.3084C14.8972 14.4984 15.0511 14.6523 15.2411 14.6523H19.7656C19.9555 14.6523 20.1095 14.4984 20.1095 14.3084V10.8139C20.1095 10.6239 19.9555 10.47 19.7656 10.47H15.2411C15.0511 10.47 14.8972 10.6239 14.8972 10.8139V14.3084Z"
    fill="url(#paint4_linear_5157_43370)" />
  <path fill-rule="evenodd" clip-rule="evenodd"
    d="M7.04826 14.6523C7.23819 14.6523 7.39215 14.4984 7.39215 14.3084V10.8139C7.39215 10.6239 7.23819 10.47 7.04825 10.47H1.95954C1.76961 10.47 1.61563 10.316 1.61563 10.1261V9.66754C1.61563 9.47759 1.76961 9.32364 1.95954 9.32364H7.04826C7.23819 9.32364 7.39215 9.16968 7.39215 8.97973V5.50308C7.39215 5.31315 7.54613 5.15918 7.73607 5.15918H8.1946C8.38454 5.15918 8.5385 5.31315 8.5385 5.50308V8.97973C8.5385 9.16968 8.69248 9.32364 8.88242 9.32364H13.4069C13.5969 9.32364 13.7508 9.16968 13.7508 8.97973V5.50308C13.7508 5.31315 13.9048 5.15918 14.0947 5.15918H14.5533C14.7432 5.15918 14.8972 5.31315 14.8972 5.50308V8.97973C14.8972 9.16968 15.0511 9.32364 15.2411 9.32364H19.7656C19.9555 9.32364 20.1095 9.16968 20.1095 8.97973V5.50308C20.1095 5.31315 20.2635 5.15918 20.4534 5.15918H20.9119C21.1019 5.15918 21.2559 5.31315 21.2559 5.50308V8.97973C21.2559 9.16968 21.4098 9.32364 21.5998 9.32364H26.6437C26.8336 9.32364 26.9876 9.47759 26.9876 9.66754V10.1261C26.9876 10.316 26.8336 10.47 26.6437 10.47H21.5998C21.4098 10.47 21.2559 10.6239 21.2559 10.8139V14.3084C21.2559 14.4984 21.4098 14.6523 21.5998 14.6523H26.6437C26.8336 14.6523 26.9876 14.8064 26.9876 14.9962V15.4548C26.9876 15.6447 26.8336 15.7987 26.6437 15.7987H21.5998C21.4098 15.7987 21.2559 15.9527 21.2559 16.1426V20.7065C21.2559 20.8965 21.1019 21.0504 20.9119 21.0504H20.4534C20.2635 21.0504 20.1095 20.8965 20.1095 20.7065V16.1426C20.1095 15.9527 19.9555 15.7987 19.7656 15.7987H15.2411C15.0511 15.7987 14.8972 15.9527 14.8972 16.1426V19.7536C14.8972 19.9435 14.7432 20.0975 14.5533 20.0975H14.0947C13.9048 20.0975 13.7508 19.9435 13.7508 19.7536V16.1426C13.7508 15.9527 13.5969 15.7987 13.4069 15.7987H8.88242C8.69248 15.7987 8.5385 15.9527 8.5385 16.1426V19.7536C8.5385 19.9435 8.38454 20.0975 8.1946 20.0975H7.73607C7.54613 20.0975 7.39215 19.9435 7.39215 19.7536V16.1426C7.39215 15.9527 7.23819 15.7987 7.04825 15.7987H1.95954C1.76961 15.7988 1.61563 15.6447 1.61563 15.4548V14.9963C1.61563 14.8064 1.76961 14.6524 1.95954 14.6523H7.04826ZM8.5385 14.3084C8.5385 14.4984 8.69248 14.6523 8.88242 14.6523H13.4069C13.5969 14.6523 13.7508 14.4984 13.7508 14.3084V10.8139C13.7508 10.6239 13.5969 10.47 13.4069 10.47H8.88241C8.69248 10.47 8.5385 10.6239 8.5385 10.8139V14.3084ZM14.8972 14.3084C14.8972 14.4984 15.0511 14.6523 15.2411 14.6523H19.7656C19.9555 14.6523 20.1095 14.4984 20.1095 14.3084V10.8139C20.1095 10.6239 19.9555 10.47 19.7656 10.47H15.2411C15.0511 10.47 14.8972 10.6239 14.8972 10.8139V14.3084Z"
    fill="url(#paint5_linear_5157_43370)" />
  <path
    d="M7.96533 5.15918V20.0975M14.324 5.15918V20.0975M20.6827 5.15918V20.0975M1.61563 9.89681H26.9876M1.61563 15.2255H26.9876"
    stroke="url(#paint6_radial_5157_43370)" stroke-width="0.211657" />
  <path
    d="M24.9905 30.7278C25.9203 30.7278 26.6742 29.9739 26.6742 29.0441C26.6742 28.1142 25.9203 27.3604 24.9905 27.3604C24.0606 27.3604 23.3068 28.1142 23.3068 29.0441C23.3068 29.9739 24.0606 30.7278 24.9905 30.7278Z"
    fill="#4381C4" />
  <path
    d="M24.9905 30.7278C25.9203 30.7278 26.6742 29.9739 26.6742 29.0441C26.6742 28.1142 25.9203 27.3604 24.9905 27.3604C24.0606 27.3604 23.3068 28.1142 23.3068 29.0441C23.3068 29.9739 24.0606 30.7278 24.9905 30.7278Z"
    fill="url(#paint7_radial_5157_43370)" />
  <path
    d="M24.9905 30.7278C25.9203 30.7278 26.6742 29.9739 26.6742 29.0441C26.6742 28.1142 25.9203 27.3604 24.9905 27.3604C24.0606 27.3604 23.3068 28.1142 23.3068 29.0441C23.3068 29.9739 24.0606 30.7278 24.9905 30.7278Z"
    fill="url(#paint8_radial_5157_43370)" />
  <path
    d="M24.9905 30.7278C25.9203 30.7278 26.6742 29.9739 26.6742 29.0441C26.6742 28.1142 25.9203 27.3604 24.9905 27.3604C24.0606 27.3604 23.3068 28.1142 23.3068 29.0441C23.3068 29.9739 24.0606 30.7278 24.9905 30.7278Z"
    fill="url(#paint9_radial_5157_43370)" />
  <path
    d="M24.9905 30.2348C25.6483 30.2348 26.1816 29.7015 26.1816 29.0437C26.1816 28.3858 25.6483 27.8525 24.9905 27.8525C24.3326 27.8525 23.7993 28.3858 23.7993 29.0437C23.7993 29.7015 24.3326 30.2348 24.9905 30.2348Z"
    fill="#4880CB" />
  <path fill-rule="evenodd" clip-rule="evenodd"
    d="M25.2141 3.41799C20.0377 3.41568 11.2335 3.41176 4.21954 3.41582C2.06692 3.41708 0.366004 5.23827 0.508323 7.38627L1.11536 16.5485C1.28454 19.1014 3.29933 21.1446 5.84965 21.3494L24.1577 22.8198L29.0834 3.41939C28.3925 3.41939 27.0254 3.41876 25.2141 3.41799ZM23.1101 5.63611L22.4746 5.63583C18.3393 5.63387 10.7438 5.63023 4.28041 5.63541C3.42261 5.63604 2.74309 6.35922 2.795 7.21549L3.35418 16.4525C3.4408 17.8836 4.64285 19.0495 6.29968 19.1569L20.3502 20.208C21.0184 20.2578 21.6253 19.8191 21.7873 19.1689L24.6638 7.62997C24.9162 6.61727 24.1538 5.6366 23.1101 5.63611Z"
    fill="#C0BFC1" />
  <path fill-rule="evenodd" clip-rule="evenodd"
    d="M25.2141 3.41799C20.0377 3.41568 11.2335 3.41176 4.21954 3.41582C2.06692 3.41708 0.366004 5.23827 0.508323 7.38627L1.11536 16.5485C1.28454 19.1014 3.29933 21.1446 5.84965 21.3494L24.1577 22.8198L29.0834 3.41939C28.3925 3.41939 27.0254 3.41876 25.2141 3.41799ZM23.1101 5.63611L22.4746 5.63583C18.3393 5.63387 10.7438 5.63023 4.28041 5.63541C3.42261 5.63604 2.74309 6.35922 2.795 7.21549L3.35418 16.4525C3.4408 17.8836 4.64285 19.0495 6.29968 19.1569L20.3502 20.208C21.0184 20.2578 21.6253 19.8191 21.7873 19.1689L24.6638 7.62997C24.9162 6.61727 24.1538 5.6366 23.1101 5.63611Z"
    fill="url(#paint10_linear_5157_43370)" />
  <path fill-rule="evenodd" clip-rule="evenodd"
    d="M25.2141 3.41799C20.0377 3.41568 11.2335 3.41176 4.21954 3.41582C2.06692 3.41708 0.366004 5.23827 0.508323 7.38627L1.11536 16.5485C1.28454 19.1014 3.29933 21.1446 5.84965 21.3494L24.1577 22.8198L29.0834 3.41939C28.3925 3.41939 27.0254 3.41876 25.2141 3.41799ZM23.1101 5.63611L22.4746 5.63583C18.3393 5.63387 10.7438 5.63023 4.28041 5.63541C3.42261 5.63604 2.74309 6.35922 2.795 7.21549L3.35418 16.4525C3.4408 17.8836 4.64285 19.0495 6.29968 19.1569L20.3502 20.208C21.0184 20.2578 21.6253 19.8191 21.7873 19.1689L24.6638 7.62997C24.9162 6.61727 24.1538 5.6366 23.1101 5.63611Z"
    fill="url(#paint11_radial_5157_43370)" />
  <path fill-rule="evenodd" clip-rule="evenodd"
    d="M29.8771 0.55314C30.4919 0.704711 30.8674 1.32591 30.7157 1.9406L25.5392 22.9331C25.3877 23.5479 24.7665 23.9233 24.1518 23.7716C23.5371 23.6201 23.1616 22.9989 23.3133 22.3842L28.4897 1.39169C28.6413 0.776999 29.2625 0.401558 29.8771 0.55314Z"
    fill="#C1BFC4" />
  <path fill-rule="evenodd" clip-rule="evenodd"
    d="M29.8772 0.55314C30.492 0.704711 30.8674 1.32591 30.7158 1.9406L25.5393 22.9331C25.3878 23.5479 24.7666 23.9233 24.1519 23.7716C23.5372 23.6201 23.1617 22.9989 23.3133 22.3842L28.4898 1.39169C28.6413 0.776999 29.2625 0.401558 29.8772 0.55314Z"
    fill="url(#paint12_radial_5157_43370)" />
  <path fill-rule="evenodd" clip-rule="evenodd"
    d="M29.8772 0.55314C30.492 0.704711 30.8674 1.32591 30.7158 1.9406L25.5393 22.9331C25.3878 23.5479 24.7666 23.9233 24.1519 23.7716C23.5372 23.6201 23.1617 22.9989 23.3133 22.3842L28.4898 1.39169C28.6413 0.776999 29.2625 0.401558 29.8772 0.55314Z"
    fill="url(#paint13_radial_5157_43370)" />
  <path
    d="M28.0669 1.11948C28.0669 0.501207 28.568 0 29.1863 0H31.3805C31.9987 0 32.5 0.501207 32.5 1.11948C32.5 1.73775 31.9987 2.23896 31.3805 2.23896H29.1863C28.568 2.23896 28.0669 1.73775 28.0669 1.11948Z"
    fill="#347CC3" />
  <path
    d="M28.0669 1.11948C28.0669 0.501207 28.568 0 29.1863 0H31.3805C31.9987 0 32.5 0.501207 32.5 1.11948C32.5 1.73775 31.9987 2.23896 31.3805 2.23896H29.1863C28.568 2.23896 28.0669 1.73775 28.0669 1.11948Z"
    fill="url(#paint14_linear_5157_43370)" />
  <path d="M2.29996 6.35796C2.17448 5.55193 3.01464 4.44141 4.04635 4.44141H27.2958"
    stroke="url(#paint15_linear_5157_43370)" stroke-width="0.56442" />
  <path
    d="M1.98291 8.56055L2.62773 16.979C2.71131 17.8866 3.50898 19.7948 6.03095 20.1673C8.55293 20.5398 17.8407 21.0151 22.0798 21.3495"
    stroke="url(#paint16_linear_5157_43370)" stroke-width="0.56442" />
  <path d="M29.5311 2.83008L24.4442 22.6762" stroke="#C8C5CD" stroke-width="0.705525"
    stroke-linecap="round" />
  <path
    d="M31.7431 0.743164H29.2982C29.1795 0.743164 29.0833 0.839396 29.0833 0.958105C29.0833 1.07681 29.1795 1.17305 29.2982 1.17305H31.7431C31.8618 1.17305 31.9581 1.07681 31.9581 0.958105C31.9581 0.839396 31.8618 0.743164 31.7431 0.743164Z"
    fill="#6B9ADA" />
  <defs>
    <radialGradient id="paint0_radial_5157_43370" cx="0" cy="0" r="1" gradientUnits="userSpaceOnUse"
      gradientTransform="translate(5.45778 28.3008) rotate(116.878) scale(2.93183)">
      <stop offset="0.485518" stop-color="#2C55AC" stop-opacity="0" />
      <stop offset="1" stop-color="#2C55AC" />
    </radialGradient>
    <radialGradient id="paint1_radial_5157_43370" cx="0" cy="0" r="1" gradientUnits="userSpaceOnUse"
      gradientTransform="translate(5.30552 28.7575) rotate(145.421) scale(1.12038 1.58555)">
      <stop offset="0.613604" stop-color="#6A99DB" />
      <stop offset="1" stop-color="#6A99DB" stop-opacity="0" />
    </radialGradient>
    <radialGradient id="paint2_radial_5157_43370" cx="0" cy="0" r="1" gradientUnits="userSpaceOnUse"
      gradientTransform="translate(4.88459 29.8411) rotate(-116.108) scale(3.01199 3.62868)">
      <stop offset="0.6568" stop-color="#2F5086" stop-opacity="0" />
      <stop offset="0.890667" stop-color="#2F5086" />
    </radialGradient>
    <radialGradient id="paint3_radial_5157_43370" cx="0" cy="0" r="1" gradientUnits="userSpaceOnUse"
      gradientTransform="translate(14.3016 11.7865) rotate(90) scale(5.37351 11.2708)">
      <stop offset="0.339044" stop-color="#B9B6BC" />
      <stop offset="1" stop-color="#B9B6BC" stop-opacity="0" />
    </radialGradient>
    <linearGradient id="paint4_linear_5157_43370" x1="25.2681" y1="14.4733" x2="19.9662" y2="12.897"
      gradientUnits="userSpaceOnUse">
      <stop offset="0.239262" stop-color="#807F82" />
      <stop offset="1" stop-color="#807F82" stop-opacity="0" />
    </linearGradient>
    <linearGradient id="paint5_linear_5157_43370" x1="19.9662" y1="4.19195" x2="19.9662" y2="12.897"
      gradientUnits="userSpaceOnUse">
      <stop offset="0.123457" stop-color="#807F82" />
      <stop offset="0.407407" stop-color="#807F82" stop-opacity="0" />
    </linearGradient>
    <radialGradient id="paint6_radial_5157_43370" cx="0" cy="0" r="1" gradientUnits="userSpaceOnUse"
      gradientTransform="translate(14.3016 12.6283) rotate(90) scale(11.0157 19.6268)">
      <stop offset="0.405276" stop-color="#C7C4CA" />
      <stop offset="1" stop-color="#C7C4CA" stop-opacity="0" />
    </radialGradient>
    <radialGradient id="paint7_radial_5157_43370" cx="0" cy="0" r="1" gradientUnits="userSpaceOnUse"
      gradientTransform="translate(25.9667 28.3008) rotate(116.878) scale(2.93183)">
      <stop offset="0.485518" stop-color="#2C55AC" stop-opacity="0" />
      <stop offset="1" stop-color="#2C55AC" />
    </radialGradient>
    <radialGradient id="paint8_radial_5157_43370" cx="0" cy="0" r="1" gradientUnits="userSpaceOnUse"
      gradientTransform="translate(25.6621 28.4978) rotate(130.696) scale(1.18122 1.67165)">
      <stop offset="0.420556" stop-color="#6A99DB" />
      <stop offset="1" stop-color="#6A99DB" stop-opacity="0" />
    </radialGradient>
    <radialGradient id="paint9_radial_5157_43370" cx="0" cy="0" r="1" gradientUnits="userSpaceOnUse"
      gradientTransform="translate(25.3934 29.8411) rotate(-116.108) scale(3.01199 3.62868)">
      <stop offset="0.6568" stop-color="#2F5086" stop-opacity="0" />
      <stop offset="0.890667" stop-color="#2F5086" />
    </radialGradient>
    <linearGradient id="paint10_linear_5157_43370" x1="27.0951" y1="16.2284" x2="22.0798"
      y2="15.0821" gradientUnits="userSpaceOnUse">
      <stop offset="0.213508" stop-color="#9A979D" />
      <stop offset="1" stop-color="#9A979D" stop-opacity="0" />
    </linearGradient>
    <radialGradient id="paint11_radial_5157_43370" cx="0" cy="0" r="1"
      gradientUnits="userSpaceOnUse"
      gradientTransform="translate(29.0833 3.61851) rotate(180) scale(4.49583 1.84445)">
      <stop stop-color="#969698" />
      <stop offset="1" stop-color="#969698" stop-opacity="0" />
    </radialGradient>
    <radialGradient id="paint12_radial_5157_43370" cx="0" cy="0" r="1"
      gradientUnits="userSpaceOnUse"
      gradientTransform="translate(25.8055 16.5866) rotate(-75.9313) scale(15.3265 7.50579)">
      <stop offset="0.891128" stop-color="#9E9AA6" stop-opacity="0" />
      <stop offset="0.979005" stop-color="#9E9AA6" />
    </radialGradient>
    <radialGradient id="paint13_radial_5157_43370" cx="0" cy="0" r="1"
      gradientUnits="userSpaceOnUse"
      gradientTransform="translate(29.0296 3.54689) rotate(104.096) scale(20.8873 6.70033)">
      <stop offset="0.950067" stop-color="#AFAAB3" stop-opacity="0" />
      <stop offset="1" stop-color="#92889E" />
    </radialGradient>
    <linearGradient id="paint14_linear_5157_43370" x1="28.0669" y1="1.43294" x2="29.352"
      y2="1.43294" gradientUnits="userSpaceOnUse">
      <stop stop-color="#386CAA" />
      <stop offset="1" stop-color="#386CAA" stop-opacity="0" />
    </linearGradient>
    <linearGradient id="paint15_linear_5157_43370" x1="2.69933" y1="5.1937" x2="29.1012" y2="5.1937"
      gradientUnits="userSpaceOnUse">
      <stop stop-color="#C6C4C9" />
      <stop offset="1" stop-color="#C6C4C9" stop-opacity="0" />
    </linearGradient>
    <linearGradient id="paint16_linear_5157_43370" x1="5.99513" y1="20.024" x2="9.18338"
      y2="8.16643" gradientUnits="userSpaceOnUse">
      <stop stop-color="#D4D1D7" />
      <stop offset="1" stop-color="#C6C4C9" stop-opacity="0" />
    </linearGradient>
  </defs>
</svg>
