<svg width="48" height="48" viewBox="0 0 48 48" fill="none" xmlns="http://www.w3.org/2000/svg">
<g clip-path="url(#clip0_1024_8772)">
<path d="M60 9H0V39H60V9Z" fill="#00732F"/>
<path d="M60 19.0002H0V39.0002H60V19.0002Z" fill="white"/>
<path d="M60 28.9998H0V38.9998H60V28.9998Z" fill="black"/>
<path d="M15 9H0V39H15V9Z" fill="#FF0000"/>
</g>
<path fill-rule="evenodd" clip-rule="evenodd" d="M3.5 14C3.5 10.9624 5.96243 8.5 9 8.5H39C42.0376 8.5 44.5 10.9624 44.5 14V34C44.5 37.0376 42.0376 39.5 39 39.5H9C5.96243 39.5 3.5 37.0376 3.5 34V14ZM9 9.5C6.51472 9.5 4.5 11.5147 4.5 14V34C4.5 36.4853 6.51472 38.5 9 38.5H39C41.4853 38.5 43.5 36.4853 43.5 34V14C43.5 11.5147 41.4853 9.5 39 9.5H9Z" fill="#CCD2D5"/>
<defs>
<clipPath id="clip0_1024_8772">
<rect x="4" y="9" width="40" height="30" rx="5" fill="white"/>
</clipPath>
</defs>
</svg>
