<svg width="48" height="48" viewBox="0 0 48 48" fill="none" xmlns="http://www.w3.org/2000/svg">
<g clip-path="url(#clip0_303_32194)">
<rect x="4" y="9" width="40" height="30" rx="5" fill="#F1E639"/>
<rect x="4" y="29" width="40" height="10" fill="#00702D"/>
<rect x="4" y="9" width="40" height="10" fill="#D32011"/>
<path d="M23.4377 19.2153C23.4377 19.2153 23.4173 19.2408 23.379 19.2887C23.3472 19.3328 23.2993 19.4007 23.247 19.4911C23.1442 19.6706 23.0363 19.9489 23.0333 20.2806C23.0322 20.4423 23.0656 20.6387 23.1208 20.7949C23.1806 20.9673 23.2798 21.1321 23.4053 21.2794C23.5309 21.428 23.6987 21.5426 23.8782 21.6272C23.9672 21.6724 24.0649 21.6983 24.1618 21.7222C24.2099 21.7369 24.261 21.7376 24.3103 21.7473C24.3351 21.7519 24.3608 21.7499 24.3859 21.7518L24.4238 21.7536L24.4427 21.7545L24.4521 21.7551L24.4569 21.7554L24.4592 21.7554C24.4516 21.7557 24.4796 21.7551 24.4427 21.7561C24.5041 21.7525 24.5787 21.752 24.6293 21.7458C24.6735 21.7355 24.7107 21.7373 24.7613 21.7223C24.8583 21.6984 24.9559 21.6725 25.0449 21.6273C25.2243 21.5427 25.3922 21.4281 25.5179 21.2795C25.6433 21.1322 25.7425 20.9674 25.8024 20.795C25.8596 20.6196 25.8903 20.4517 25.8898 20.2799C25.887 19.9496 25.779 19.6703 25.6762 19.491C25.6243 19.401 25.5762 19.3327 25.542 19.2866C25.5065 19.2413 25.4875 19.2169 25.4875 19.2169L25.4828 19.2109C25.4485 19.1673 25.4563 19.1043 25.4999 19.0701C25.5344 19.0432 25.5811 19.0423 25.6158 19.0646C25.6158 19.0646 25.6451 19.0834 25.7 19.1185C25.7519 19.1575 25.8323 19.2125 25.919 19.3016C26.0929 19.4738 26.3187 19.7806 26.4001 20.2263C26.4405 20.4397 26.4449 20.6978 26.3893 20.9515C26.3354 21.2078 26.2261 21.4728 26.0497 21.7046C25.8763 21.9376 25.6435 22.1436 25.3666 22.2825C25.2301 22.3553 25.0814 22.4082 24.929 22.445C24.8559 22.4665 24.7631 22.4754 24.6805 22.4884C24.6031 22.4969 24.548 22.4971 24.4806 22.5018L24.4544 22.5019L24.447 22.5016L24.4323 22.5009L24.4028 22.4993L24.3438 22.4962C24.3046 22.493 24.2652 22.4936 24.2263 22.4869C24.1488 22.4732 24.07 22.4668 23.9943 22.445C23.8419 22.4083 23.6932 22.3553 23.5567 22.2825C23.2798 22.1436 23.047 21.9375 22.8737 21.7046C22.6973 21.4727 22.588 21.2077 22.534 20.9515C22.4764 20.6785 22.4836 20.449 22.5233 20.2255C22.6045 19.7811 22.8305 19.4733 23.0043 19.3014C23.0906 19.2127 23.1713 19.1571 23.2255 19.1163C23.2776 19.0837 23.3055 19.0661 23.3055 19.0661C23.3527 19.0365 23.4151 19.0507 23.4447 19.0979C23.468 19.1355 23.4637 19.1826 23.4377 19.2153Z" fill="#00702D"/>
<path d="M24.2624 27.1094V28.364C24.2624 28.4891 24.1111 28.5518 24.0226 28.4634L23.9536 28.3943C23.8962 28.3369 23.864 28.2592 23.864 28.1781V27.1094H24.2624Z" fill="#D32011"/>
<path d="M23.6647 26.9102V27.8208C23.6647 27.8755 23.6864 27.928 23.7251 27.9667L23.8639 28.1055V26.9102H23.6647V26.9102Z" fill="#FFE15A"/>
<path d="M23.4655 26.9102V27.3988C23.4655 27.4686 23.4933 27.5355 23.5425 27.5848L23.6647 27.707V26.9102H23.4655Z" fill="#73AF00"/>
<path d="M24.6608 27.1094V28.364C24.6608 28.4891 24.8121 28.5518 24.9006 28.4634L24.9696 28.3943C25.027 28.3369 25.0593 28.2592 25.0593 28.1781V27.1094H24.6608Z" fill="#D32011"/>
<path d="M25.2584 26.9102V27.8208C25.2584 27.8755 25.2367 27.928 25.198 27.9667L25.0593 28.1055V26.9102H25.2584V26.9102Z" fill="#FFE15A"/>
<path d="M25.4577 26.9102V27.3988C25.4577 27.4686 25.43 27.5355 25.3807 27.5848L25.2585 27.707V26.9102H25.4577Z" fill="#73AF00"/>
<path d="M25.4577 23.3242L27.6491 21.7305V25.0079C27.6491 25.9485 26.8866 26.7109 25.9461 26.7109C25.627 26.7109 25.3142 26.6212 25.0436 26.4521L23.864 25.7148V23.2966L25.4577 23.3242Z" fill="#D32011"/>
<path d="M26.8522 22.3105V24.61C26.8522 25.5506 26.0897 26.313 25.1492 26.313C25.0078 26.313 24.8684 26.2926 24.7326 26.2582L23.864 25.7153V23.297L25.4577 23.3246L26.8522 22.3105Z" fill="#FFE15A"/>
<path d="M26.2546 22.7441V24.2286C26.2546 25.1692 25.4921 25.9316 24.5516 25.9316C24.4102 25.9316 24.2707 25.9112 24.135 25.8768L23.864 25.7074V23.296L25.4577 23.3236L26.2546 22.7441Z" fill="#73AF00"/>
<path d="M27.7685 21.3718L28.6452 20.9336L28.0076 21.7304H27.6491L27.7685 21.3718Z" fill="#F5F5F5"/>
<path d="M26.653 24.3203L28.8444 22.7266V26.004C28.8444 26.9446 28.0819 27.707 27.1414 27.707C26.8223 27.707 26.5095 27.6173 26.2389 27.4482L25.0594 26.7109V24.2927L26.653 24.3203Z" fill="#D32011"/>
<path d="M27.4499 23.7402V25.2247C27.4499 26.1653 26.6874 26.9276 25.7469 26.9276C25.6055 26.9276 25.4661 26.9073 25.3303 26.8729L25.0593 26.7035V24.2922L26.653 24.3199L27.4499 23.7402Z" fill="#73AF00"/>
<path d="M28.9638 22.368L29.8405 21.9297L29.2029 22.7266H28.8444L28.9638 22.368Z" fill="#F5F5F5"/>
<path d="M26.0553 23.9219L28.2467 22.3281V25.6056C28.2467 26.5462 27.4842 27.3085 26.5437 27.3085C26.2246 27.3085 25.9118 27.2188 25.6412 27.0497L24.4616 26.3125V23.8942L26.0553 23.9219Z" fill="#D32011"/>
<path d="M27.4499 22.9082V25.2077C27.4499 26.1482 26.6874 26.9106 25.7469 26.9106C25.6055 26.9106 25.4661 26.8902 25.3303 26.8559L24.4616 26.313V23.8947L26.0553 23.9224L27.4499 22.9082Z" fill="#FFE15A"/>
<path d="M26.8522 23.3418V24.8263C26.8522 25.7668 26.0897 26.5292 25.1492 26.5292C25.0078 26.5292 24.8684 26.5088 24.7326 26.4744L24.4616 26.3052V23.8937L26.0553 23.9214L26.8522 23.3418Z" fill="#00702D"/>
<path d="M28.3662 21.9696L29.2428 21.5312L28.6052 22.3281H28.2468L28.3662 21.9696Z" fill="#F5F5F5"/>
<path d="M23.4655 23.3242L21.2742 21.7305V25.0079C21.2742 25.9485 22.0366 26.7109 22.9771 26.7109C23.2962 26.7109 23.609 26.6212 23.8797 26.4521L25.0592 25.7148V23.2966L23.4655 23.3242Z" fill="#D32011"/>
<path d="M22.0709 22.3105V24.61C22.0709 25.5506 22.8334 26.313 23.7739 26.313C23.9153 26.313 24.0547 26.2926 24.1906 26.2582L25.0592 25.7153V23.297L23.4654 23.3246L22.0709 22.3105Z" fill="#FFE15A"/>
<path d="M22.6686 22.7441V24.2286C22.6686 25.1692 23.4311 25.9316 24.3716 25.9316C24.513 25.9316 24.6525 25.9112 24.7883 25.8768L25.0593 25.7074V23.296L23.4655 23.3236L22.6686 22.7441Z" fill="#73AF00"/>
<path d="M21.1546 21.3718L20.278 20.9336L20.9156 21.7304H21.2741L21.1546 21.3718Z" fill="#F5F5F5"/>
<path d="M22.2702 24.3203L20.0788 22.7266V26.004C20.0788 26.9446 20.8413 27.707 21.7818 27.707C22.1009 27.707 22.4137 27.6173 22.6844 27.4482L23.8639 26.7109V24.2927L22.2702 24.3203Z" fill="#D32011"/>
<path d="M21.4733 23.7402V25.2247C21.4733 26.1653 22.2358 26.9276 23.1763 26.9276C23.3177 26.9276 23.4571 26.9073 23.5929 26.8729L23.864 26.7035V24.2922L22.2702 24.3199L21.4733 23.7402Z" fill="#73AF00"/>
<path d="M19.9593 22.368L19.0828 21.9297L19.7203 22.7266H20.0788L19.9593 22.368Z" fill="#F5F5F5"/>
<path d="M22.8678 23.9219L20.6765 22.3281V25.6056C20.6765 26.5462 21.4389 27.3085 22.3794 27.3085C22.6985 27.3085 23.0113 27.2188 23.282 27.0497L24.4615 26.3125V23.8942L22.8678 23.9219Z" fill="#D32011"/>
<path d="M21.4733 22.9082V25.2077C21.4733 26.1482 22.2358 26.9106 23.1763 26.9106C23.3177 26.9106 23.4571 26.8902 23.5929 26.8559L24.4616 26.3129V23.8946L22.8678 23.9223L21.4733 22.9082Z" fill="#FFE15A"/>
<path d="M22.0709 23.3418V24.8263C22.0709 25.7668 22.8334 26.5292 23.7739 26.5292C23.9153 26.5292 24.0547 26.5088 24.1906 26.4744L24.4616 26.3051V23.8936L22.8678 23.9213L22.0709 23.3418Z" fill="#00702D"/>
<path d="M21.9712 27.8132L21.7793 27.6213C21.6629 27.5049 21.666 27.3152 21.7862 27.2027L24.9639 24.2168L25.3757 24.6286L22.3898 27.8062C22.2773 27.9265 22.0877 27.9297 21.9712 27.8132Z" fill="#705B4D"/>
<path d="M23.0488 27.9929L22.8568 27.8009C22.7405 27.6846 22.7436 27.4948 22.8638 27.3824L26.0415 24.3965L26.4533 24.8083L23.4673 27.9859C23.3548 28.1062 23.1652 28.1094 23.0488 27.9929Z" fill="#705B4D"/>
<path d="M21.8526 26.8838L21.59 26.6211C21.4308 26.4619 21.435 26.2023 21.5995 26.0484L25.9473 21.9629L26.5108 22.5264L22.4253 26.8742C22.2716 27.0388 22.012 27.0432 21.8526 26.8838Z" fill="#C7BF48"/>
<circle cx="21.7218" cy="26.7519" r="0.199174" fill="#C7BF48"/>
<ellipse cx="26.2293" cy="22.2455" rx="0.398344" ry="0.199172" transform="rotate(-135 26.2293 22.2455)" fill="#F5F5F5"/>
<path d="M26.9842 27.8132L27.1762 27.6213C27.2926 27.5049 27.2895 27.3152 27.1692 27.2027L23.9916 24.2168L23.5797 24.6286L26.5657 27.8062C26.6782 27.9265 26.8678 27.9297 26.9842 27.8132Z" fill="#705B4D"/>
<path d="M26.9842 27.8132L27.1762 27.6213C27.2926 27.5049 27.2895 27.3152 27.1692 27.2027L23.9916 24.2168L23.5797 24.6286L26.5657 27.8062C26.6782 27.9265 26.8678 27.9297 26.9842 27.8132Z" fill="#705B4D"/>
<path d="M25.9066 27.9929L26.0986 27.8009C26.215 27.6846 26.2119 27.4948 26.0917 27.3824L22.914 24.3965L22.5022 24.8083L25.4881 27.9859C25.6006 28.1062 25.7902 28.1094 25.9066 27.9929Z" fill="#705B4D"/>
<path d="M27.0705 26.8838L27.3332 26.6211C27.4924 26.4619 27.4881 26.2023 27.3236 26.0484L22.9758 21.9629L22.4124 22.5264L26.4978 26.8742C26.6518 27.0388 26.9112 27.0432 27.0705 26.8838Z" fill="#C7BF48"/>
<circle cx="27.2013" cy="26.7519" r="0.199174" fill="#C7BF48"/>
<ellipse cx="22.6947" cy="22.2459" rx="0.398344" ry="0.199172" transform="rotate(-45 22.6947 22.2459)" fill="#F5F5F5"/>
<ellipse cx="24.4616" cy="24.6191" rx="1.76149" ry="2.09177" fill="white"/>
<path d="M26.6654 24.2224C26.6654 24.2224 26.0055 24.3967 25.576 24.0356C25.0986 23.6343 24.7407 23.4449 24.5873 23.3737C24.5348 23.3494 24.476 23.3494 24.4234 23.3736C24.3135 23.4244 24.1113 23.5295 23.9324 23.687C23.6709 23.9175 22.8678 24.3718 22.706 24.3718V25.3622L23.9697 26.4574L25.4639 26.4138L26.6654 24.2224Z" fill="#DFD869"/>
<path d="M26.6654 24.4919C26.6654 24.4919 26.0055 24.6662 25.576 24.3051C25.0986 23.9038 22.8678 24.6413 22.706 24.6413V25.6317L23.9697 26.7269L25.4639 26.6833L26.6654 24.4919Z" fill="#B0AB54"/>
<path d="M26.6654 24.9411C26.6654 24.9411 26.0055 25.1154 25.576 24.7543C25.0986 24.353 22.8678 25.0905 22.706 25.0905V26.0809L23.9697 27.1761L25.4639 27.1325L26.6654 24.9411Z" fill="#00702D"/>
<path fill-rule="evenodd" clip-rule="evenodd" d="M22.1705 24.6191C22.1705 26.0471 23.1983 27.2089 24.4616 27.2089C25.7249 27.2089 26.7526 26.0471 26.7526 24.6191C26.7526 23.1911 25.7249 22.0293 24.4616 22.0293C23.1982 22.0293 22.1705 23.1911 22.1705 24.6191ZM22.7682 24.6191C22.7682 23.5207 23.5278 22.6269 24.4616 22.6269C25.3953 22.6269 26.1549 23.5207 26.1549 24.6191C26.1549 25.7175 25.3953 26.6113 24.4616 26.6113C23.5278 26.6113 22.7682 25.7175 22.7682 24.6191Z" fill="#3CC8FF"/>
<path d="M24.1184 26.669L24.1623 26.8006L24.301 26.8017C24.319 26.8018 24.3263 26.8248 24.312 26.8354L24.2004 26.9178L24.2423 27.0501C24.2478 27.0672 24.2282 27.0814 24.2135 27.0709L24.1007 26.9903L23.9878 27.0709C23.9732 27.0813 23.9537 27.0671 23.9591 27.0501L24.0009 26.9178L23.8894 26.8354C23.8749 26.8247 23.8824 26.8018 23.9003 26.8017L24.0391 26.8006L24.083 26.669C24.0886 26.652 24.1127 26.652 24.1184 26.669Z" fill="#FFBE5A"/>
<path d="M23.4955 26.4015L23.5394 26.533L23.6782 26.5341C23.6961 26.5342 23.7035 26.5572 23.6891 26.5678L23.5776 26.6502L23.6194 26.7825C23.6249 26.7996 23.6053 26.8138 23.5907 26.8033L23.4778 26.7227L23.3649 26.8033C23.3504 26.8137 23.3308 26.7995 23.3362 26.7825L23.3781 26.6502L23.2665 26.5678C23.2521 26.5571 23.2595 26.5342 23.2775 26.5341L23.4162 26.533L23.4601 26.4015C23.4658 26.3844 23.4899 26.3844 23.4955 26.4015Z" fill="#FFBE5A"/>
<path d="M22.9954 25.9464L23.0393 26.0779L23.1781 26.079C23.196 26.0791 23.2034 26.1021 23.189 26.1127L23.0775 26.1951L23.1193 26.3274C23.1248 26.3446 23.1052 26.3587 23.0906 26.3482L22.9777 26.2676L22.8649 26.3482C22.8503 26.3587 22.8307 26.3445 22.8361 26.3274L22.878 26.1951L22.7664 26.1127C22.752 26.102 22.7594 26.0791 22.7774 26.079L22.9161 26.0779L22.96 25.9464C22.9657 25.9293 22.9898 25.9293 22.9954 25.9464Z" fill="#FFBE5A"/>
<path d="M22.6544 25.3409L22.6983 25.4725L22.837 25.4736C22.855 25.4736 22.8623 25.4966 22.848 25.5072L22.7364 25.5897L22.7783 25.7219C22.7838 25.7391 22.7642 25.7533 22.7496 25.7428L22.6367 25.6621L22.5238 25.7428C22.5092 25.7532 22.4897 25.739 22.4951 25.7219L22.5369 25.5897L22.4254 25.5072C22.4109 25.4965 22.4184 25.4736 22.4363 25.4736L22.5751 25.4725L22.619 25.3409C22.6246 25.3239 22.6487 25.3239 22.6544 25.3409Z" fill="#FFBE5A"/>
<path d="M22.5039 24.6378L22.5478 24.7694L22.6865 24.7704C22.7045 24.7705 22.7118 24.7935 22.6975 24.8041L22.5859 24.8865L22.6278 25.0188C22.6333 25.036 22.6137 25.0502 22.599 25.0396L22.4862 24.959L22.3733 25.0396C22.3587 25.0501 22.3392 25.0359 22.3446 25.0188L22.3864 24.8865L22.2749 24.8041C22.2604 24.7934 22.2679 24.7705 22.2858 24.7704L22.4246 24.7694L22.4685 24.6378C22.474 24.6207 22.4982 24.6207 22.5039 24.6378Z" fill="#FFBE5A"/>
<path d="M24.8039 26.669L24.76 26.8006L24.6212 26.8017C24.6033 26.8018 24.5959 26.8248 24.6103 26.8354L24.7218 26.9178L24.68 27.0501C24.6745 27.0672 24.6941 27.0814 24.7087 27.0709L24.8216 26.9903L24.9344 27.0709C24.949 27.0813 24.9686 27.0671 24.9632 27.0501L24.9213 26.9178L25.0329 26.8354C25.0473 26.8247 25.0399 26.8018 25.0219 26.8017L24.8832 26.8006L24.8393 26.669C24.8336 26.652 24.8095 26.652 24.8039 26.669Z" fill="#FFBE5A"/>
<path d="M25.4267 26.4015L25.3828 26.533L25.2441 26.5341C25.2261 26.5342 25.2187 26.5572 25.2331 26.5678L25.3446 26.6502L25.3028 26.7825C25.2973 26.7996 25.3169 26.8138 25.3315 26.8033L25.4444 26.7227L25.5573 26.8033C25.5718 26.8137 25.5914 26.7995 25.586 26.7825L25.5442 26.6502L25.6557 26.5678C25.6702 26.5571 25.6627 26.5342 25.6448 26.5341L25.506 26.533L25.4621 26.4015C25.4564 26.3844 25.4323 26.3844 25.4267 26.4015Z" fill="#FFBE5A"/>
<path d="M25.9268 25.9464L25.8829 26.0779L25.7442 26.079C25.7262 26.0791 25.7188 26.1021 25.7332 26.1127L25.8447 26.1951L25.8029 26.3274C25.7974 26.3446 25.817 26.3587 25.8316 26.3482L25.9445 26.2676L26.0574 26.3482C26.0719 26.3587 26.0915 26.3445 26.0861 26.3274L26.0443 26.1951L26.1558 26.1127C26.1703 26.102 26.1628 26.0791 26.1448 26.079L26.0061 26.0779L25.9622 25.9464C25.9566 25.9293 25.9325 25.9293 25.9268 25.9464Z" fill="#FFBE5A"/>
<path d="M26.2679 25.3409L26.224 25.4725L26.0852 25.4736C26.0673 25.4736 26.0599 25.4966 26.0743 25.5072L26.1858 25.5897L26.1439 25.7219C26.1385 25.7391 26.158 25.7533 26.1727 25.7428L26.2856 25.6621L26.3984 25.7428C26.413 25.7532 26.4326 25.739 26.4272 25.7219L26.3853 25.5897L26.4969 25.5072C26.5113 25.4965 26.5039 25.4736 26.4859 25.4736L26.3472 25.4725L26.3033 25.3409C26.2976 25.3239 26.2735 25.3239 26.2679 25.3409Z" fill="#FFBE5A"/>
<path d="M26.4184 24.6378L26.3745 24.7694L26.2357 24.7704C26.2178 24.7705 26.2103 24.7935 26.2248 24.8041L26.3363 24.8865L26.2945 25.0188C26.289 25.036 26.3085 25.0502 26.3232 25.0396L26.4361 24.959L26.5489 25.0396C26.5635 25.0501 26.5831 25.0359 26.5777 25.0188L26.5358 24.8865L26.6474 24.8041C26.6618 24.7934 26.6544 24.7705 26.6364 24.7704L26.4977 24.7694L26.4538 24.6378C26.4482 24.6207 26.4241 24.6207 26.4184 24.6378Z" fill="#FFBE5A"/>
<path d="M23.3013 25.6776L23.3825 26.0599H23.4176V25.799C23.4176 25.799 23.4753 25.9809 23.5571 26.0599H23.6233C23.5916 26.0199 23.5347 25.9368 23.5347 25.851C23.5347 25.7327 23.6304 25.7165 23.6304 25.59H23.7124V26.0598H23.7604L23.8492 25.6412C23.8492 25.6412 23.9224 25.903 24.0602 26.0598H24.1214C24.0772 25.9959 23.9854 25.8311 24.0023 25.582C24.0023 25.582 24.1336 25.5174 24.1336 25.3426V25.0939C24.1336 25.0474 24.172 25.0095 24.2193 25.0095H24.2783C24.2783 25.0095 24.1906 24.8421 24.0968 24.8178V24.7129L24.0261 24.8179C23.9586 24.8323 23.9189 24.8936 23.9189 24.9593V25.1108C23.9189 25.1573 23.8805 25.1951 23.8331 25.1951H23.5266C23.4359 25.1951 23.2905 25.2844 23.2905 25.3987C23.2905 25.5131 23.3777 25.5881 23.3777 25.5881L23.3013 25.6776Z" fill="#F5F5F5"/>
<path d="M24.6516 25.252H24.6236C24.402 25.2641 24.2783 25.4103 24.2783 25.4103L24.503 25.6358V26.0601H24.7719V25.6358L24.9967 25.4103C24.9969 25.4103 24.8732 25.2642 24.6516 25.252Z" fill="#FFBE5A"/>
<rect x="25.3703" y="24.5664" width="0.114943" height="1.22432" fill="#8CC537"/>
<path d="M25.4054 24.5564L25.0474 24.9892C25.0474 24.9892 25.0007 24.7806 25.2093 24.5752L24.7487 24.6593C24.7487 24.6593 24.8887 24.3978 25.256 24.4258L24.8794 24.1114C24.8794 24.1114 25.2031 24.0928 25.3681 24.3355C25.3681 24.3355 25.4614 24.0555 25.7229 24.043L25.5071 24.3708C25.5071 24.3708 25.7229 24.2608 26.0217 24.3574L25.5766 24.4757C25.5766 24.4757 25.8256 24.5006 25.9283 24.8648L25.5424 24.6003C25.5424 24.6003 25.6607 24.7403 25.6171 25.0142L25.4054 24.5564Z" fill="#8CC537"/>
<path d="M20.557 21.9696L19.6803 21.5312L20.3179 22.3281H20.6765L20.557 21.9696Z" fill="#F5F5F5"/>
<path d="M24.3485 20.8391C24.2828 20.7766 24.2129 20.7267 24.1216 20.6086C24.0303 20.4903 23.7021 20.2339 23.3509 20.109C23 19.9839 22.4024 19.6849 22.6438 20.0384C22.662 20.0563 22.6417 20.0726 22.5878 20.0431C22.5341 20.0135 22.4281 19.9114 22.3372 19.8853C22.2462 19.8589 21.7567 19.8623 21.621 19.9374C21.4852 20.0124 21.5759 20.0542 21.7565 20.1276C21.9368 20.2011 22.2814 20.3523 22.4848 20.5101C22.6881 20.6681 22.9179 20.8062 23.0098 20.8555C23.1016 20.9049 23.0669 20.9017 23.145 20.9049C23.223 20.9081 23.8616 20.964 23.9491 21.3587C23.8924 21.4015 23.5217 22.079 23.7808 22.1186C24.04 22.158 24.2255 22.1521 24.2589 22.1389L24.2465 22.1883C24.2465 22.1883 24.3237 22.1655 24.35 22.218C24.3895 22.1951 24.4197 22.1158 24.4853 22.1126C24.5511 22.1092 24.5946 22.0988 24.6471 22.1218C24.6995 22.1448 24.8045 22.2337 24.8276 22.2796C24.8571 22.2862 24.8733 22.2728 24.8932 22.2928C24.9108 22.3105 24.9653 22.2007 24.9653 22.1316C24.9653 22.0627 25.0277 22.079 25.0669 22.1284C25.1064 22.1778 25.2278 22.5034 25.2967 22.5C25.3657 22.4968 25.3722 22.4638 25.3952 22.4506C25.428 22.4738 25.4772 22.4442 25.5002 22.3981C25.5723 22.4113 25.661 22.3717 25.661 22.2796C25.7397 22.2862 25.7889 22.2566 25.7889 22.1875C25.8382 22.1875 25.9235 22.1548 25.9201 22.0822C25.9627 22.0757 26.0645 22.0133 25.9956 21.9508C25.9267 21.8883 25.4215 21.6152 25.218 21.5529C25.0145 21.4904 24.9161 21.431 24.9129 21.3785C24.9095 21.3258 25.1293 21.2864 25.2114 21.0726C25.2935 20.8587 25.1064 20.7798 25.2212 20.7075C25.3362 20.6352 25.6676 20.4214 26.0382 20.2996C26.4091 20.1779 26.9504 19.9642 26.839 19.928C26.7274 19.8918 26.4518 19.8227 26.2254 19.8129C25.9988 19.8029 25.2704 19.7932 25.054 19.8655C24.8374 19.9378 24.6405 19.9773 24.5125 20.2996C24.3846 20.622 24.4075 20.8325 24.3583 20.9147L24.3485 20.8391Z" fill="black"/>
<circle cx="23.7432" cy="21.453" r="0.398348" fill="#F5F5F5"/>
<path d="M23.9424 21.4532C23.9424 21.5632 23.8533 21.6523 23.7433 21.6523H22.9464L23.2865 21.3123C23.3238 21.2749 23.3745 21.2539 23.4274 21.2539H23.7432C23.8533 21.2541 23.9424 21.3433 23.9424 21.4532Z" fill="#FFBE5A"/>
</g>
<path fill-rule="evenodd" clip-rule="evenodd" d="M3.5 14C3.5 10.9624 5.96243 8.5 9 8.5H39C42.0376 8.5 44.5 10.9624 44.5 14V34C44.5 37.0376 42.0376 39.5 39 39.5H9C5.96243 39.5 3.5 37.0376 3.5 34V14ZM9 9.5C6.51472 9.5 4.5 11.5147 4.5 14V34C4.5 36.4853 6.51472 38.5 9 38.5H39C41.4853 38.5 43.5 36.4853 43.5 34V14C43.5 11.5147 41.4853 9.5 39 9.5H9Z" fill="#CCD2D5"/>
<defs>
<clipPath id="clip0_303_32194">
<rect x="4" y="9" width="40" height="30" rx="5" fill="white"/>
</clipPath>
</defs>
</svg>
