<svg width="135" height="402" fill="none" xmlns="http://www.w3.org/2000/svg"><g clip-path="url(#a)"><path d="M21.849 18.176v1.652h-5.936v-1.652h5.936Z" fill="#333"/><circle cx="19" cy="19" r="17.5" stroke="#D2D4D7" stroke-width="3"/><path d="M19 0A19 19 0 1 1 4.36 31.111" stroke="#D2D4D7" stroke-width="6"/></g><path d="M14.916 67.012h-4.074l-.7 1.988H8.476l3.486-9.744h1.848L17.296 69h-1.68l-.7-1.988Zm-.448-1.302-1.582-4.522-1.596 4.522h3.178Zm5.94-7.07V69h-1.596V58.64h1.596Zm3.691 0V69h-1.596V58.64H24.1Z" fill="#333"/><circle cx="4" cy="4" r="4" transform="matrix(-1 0 0 1 14 107)" fill="#EE46D3"/><path d="M28.228 105.804c0 .4-.096.772-.288 1.116-.192.344-.484.624-.876.84-.392.216-.876.324-1.452.324-.56 0-1.06-.1-1.5-.3a2.791 2.791 0 0 1-1.044-.84 2.44 2.44 0 0 1-.444-1.224h1.164c.024.24.104.476.24.708.144.224.344.412.6.564.264.144.58.216.948.216.48 0 .848-.128 1.104-.384.256-.256.384-.584.384-.984 0-.344-.092-.624-.276-.84a1.796 1.796 0 0 0-.66-.504 8.29 8.29 0 0 0-1.08-.408c-.536-.176-.968-.34-1.296-.492a2.322 2.322 0 0 1-.828-.708c-.224-.312-.336-.724-.336-1.236 0-.44.104-.828.312-1.164a2.13 2.13 0 0 1 .912-.78c.4-.184.868-.276 1.404-.276.832 0 1.492.204 1.98.612.488.4.772.912.852 1.536h-1.176a1.59 1.59 0 0 0-.516-.888c-.28-.256-.66-.384-1.14-.384-.44 0-.792.116-1.056.348-.264.224-.396.544-.396.96 0 .328.084.596.252.804.176.2.392.36.648.48.256.112.608.24 1.056.384.544.176.98.344 1.308.504.336.16.62.404.852.732.232.32.348.748.348 1.284Zm5.104-4.476c.584 0 1.104.136 1.56.408.456.272.812.664 1.068 1.176.264.512.396 1.112.396 1.8s-.132 1.288-.396 1.8a2.79 2.79 0 0 1-1.068 1.164 2.986 2.986 0 0 1-1.56.408c-.64 0-1.184-.16-1.632-.48a2.513 2.513 0 0 1-.912-1.284v4.8h-1.092v-9.708h1.092v1.68a2.45 2.45 0 0 1 .912-1.272c.448-.328.992-.492 1.632-.492Zm-.312.972c-.424 0-.808.1-1.152.3a1.99 1.99 0 0 0-.804.84c-.192.368-.288.792-.288 1.272s.096.904.288 1.272c.192.36.46.64.804.84.344.2.728.3 1.152.3.68 0 1.22-.212 1.62-.636.408-.432.612-1.024.612-1.776s-.204-1.34-.612-1.764c-.4-.432-.94-.648-1.62-.648Zm10.822 2.04c0 .232-.016.432-.048.6h-5.268c.024.752.236 1.316.636 1.692.408.376.904.564 1.488.564.528 0 .968-.132 1.32-.396.36-.272.58-.632.66-1.08h1.164c-.08.456-.26.864-.54 1.224-.272.36-.628.64-1.068.84-.44.2-.936.3-1.488.3-.632 0-1.192-.136-1.68-.408a2.932 2.932 0 0 1-1.152-1.164c-.272-.512-.408-1.112-.408-1.8s.136-1.288.408-1.8c.28-.512.664-.904 1.152-1.176.488-.272 1.048-.408 1.68-.408.64 0 1.196.136 1.668.408.48.272.844.636 1.092 1.092.256.456.384.96.384 1.512Zm-1.104.072c.024-.488-.056-.896-.24-1.224a1.755 1.755 0 0 0-.756-.732c-.32-.16-.668-.24-1.044-.24-.6 0-1.104.188-1.512.564-.408.368-.628.912-.66 1.632h4.212Zm3.624-5.292V108H45.27v-8.88h1.092Zm2.848 0V108h-1.092v-8.88h1.092Zm1.564.36c0-.2.068-.36.204-.48.136-.128.316-.192.54-.192.224 0 .404.064.54.192.136.12.204.28.204.48 0 .2-.068.364-.204.492-.136.12-.316.18-.54.18-.224 0-.404-.06-.54-.18a.646.646 0 0 1-.204-.492Zm1.284 1.932V108h-1.092v-6.588h1.092Zm5.224-.108c.768 0 1.388.248 1.86.744.471.488.707 1.196.707 2.124V108h-1.091v-3.732c0-.656-.169-1.16-.505-1.512-.336-.352-.791-.528-1.367-.528-.6 0-1.08.196-1.44.588-.36.384-.54.948-.54 1.692V108h-1.093v-6.588h1.093v1.56c.168-.536.464-.948.888-1.236a2.62 2.62 0 0 1 1.488-.432Zm6.942.024c.64 0 1.18.16 1.62.48.448.32.76.748.936 1.284v-1.68h1.092v6.696c0 .608-.128 1.148-.384 1.62-.256.472-.616.84-1.08 1.104-.464.264-1.004.396-1.62.396-.888 0-1.612-.216-2.172-.648-.56-.424-.916-1-1.068-1.728h1.08c.128.44.368.784.72 1.032.36.256.82.384 1.38.384.592 0 1.08-.192 1.464-.576.392-.376.588-.904.588-1.584v-1.788a2.49 2.49 0 0 1-.936 1.284c-.44.32-.98.48-1.62.48a2.986 2.986 0 0 1-1.56-.408 2.87 2.87 0 0 1-1.08-1.164c-.256-.512-.384-1.112-.384-1.8s.128-1.288.384-1.8a2.853 2.853 0 0 1 1.08-1.176 2.986 2.986 0 0 1 1.56-.408Zm.312.972c-.672 0-1.212.216-1.62.648-.4.424-.6 1.012-.6 1.764s.2 1.344.6 1.776c.408.424.948.636 1.62.636.432 0 .816-.1 1.152-.3.344-.2.612-.48.804-.84.192-.368.288-.792.288-1.272s-.096-.904-.288-1.272a1.99 1.99 0 0 0-.804-.84c-.336-.2-.72-.3-1.152-.3Zm14.147 5.7-1.848-2.04c0 .128-.024.288-.072.48a1.895 1.895 0 0 1-.708 1.188c-.384.304-.848.456-1.392.456-.496 0-.936-.104-1.32-.312a2.341 2.341 0 0 1-.9-.888 2.646 2.646 0 0 1-.324-1.32c0-.496.096-.924.288-1.284.2-.368.464-.644.792-.828a2.122 2.122 0 0 1 1.092-.288c.064 0 .152.008.264.024l-.18-.228a4.16 4.16 0 0 1-.516-.768 2.081 2.081 0 0 1-.168-.864c0-.328.08-.632.24-.912.168-.288.416-.52.744-.696.328-.176.72-.264 1.176-.264.688 0 1.212.172 1.572.516.368.344.584.776.648 1.296.048.176.072.356.072.54 0 .08-.004.14-.012.18H77.1a.768.768 0 0 0 0-.192v-.168c-.008-.4-.12-.708-.336-.924-.216-.224-.516-.336-.9-.336-.352 0-.632.104-.84.312-.2.208-.3.46-.3.756 0 .248.044.46.132.636.096.176.248.384.456.624L79.8 108h-1.116Zm-4.02-.852c.44 0 .8-.14 1.08-.42.288-.28.432-.64.432-1.08 0-.304-.08-.58-.24-.828a1.758 1.758 0 0 0-.624-.588 1.617 1.617 0 0 0-.804-.216c-.416 0-.76.132-1.032.396-.264.264-.396.64-.396 1.128 0 .496.152.888.456 1.176.304.288.68.432 1.128.432Zm-47.947 6.308c.984 0 1.808.244 2.472.732.672.488 1.124 1.152 1.356 1.992h-1.152a2.578 2.578 0 0 0-1.008-1.236c-.464-.312-1.016-.468-1.656-.468-.576 0-1.092.136-1.548.408a2.805 2.805 0 0 0-1.08 1.14c-.256.496-.384 1.08-.384 1.752 0 .688.132 1.284.396 1.788.264.496.628.88 1.092 1.152.472.264 1.012.396 1.62.396.52 0 .996-.112 1.428-.336a2.735 2.735 0 0 0 1.056-.972c.28-.432.448-.936.504-1.512h-3.324v-.816h4.248v1.008a4.201 4.201 0 0 1-.624 1.824 3.743 3.743 0 0 1-1.392 1.296c-.584.32-1.248.48-1.992.48-.816 0-1.536-.18-2.16-.54a3.889 3.889 0 0 1-1.464-1.524c-.344-.656-.516-1.404-.516-2.244 0-.84.172-1.584.516-2.232a3.868 3.868 0 0 1 1.464-1.536c.624-.368 1.34-.552 2.148-.552Zm6.592 3.288c.216-.456.532-.808.948-1.056.416-.256.912-.384 1.488-.384v1.188h-.336c-.616 0-1.12.16-1.512.48-.392.312-.588.832-.588 1.56V122h-1.092v-6.588h1.092v1.332Zm6.213-1.416c.64 0 1.18.16 1.62.48.448.32.76.748.936 1.284v-1.68h1.092V122h-1.092v-1.68a2.49 2.49 0 0 1-.936 1.284c-.44.32-.98.48-1.62.48a2.986 2.986 0 0 1-1.56-.408 2.87 2.87 0 0 1-1.08-1.164c-.256-.512-.384-1.112-.384-1.8s.128-1.288.384-1.8a2.853 2.853 0 0 1 1.08-1.176 2.986 2.986 0 0 1 1.56-.408Zm.312.972c-.672 0-1.212.216-1.62.648-.4.424-.6 1.012-.6 1.764s.2 1.344.6 1.776c.408.424.948.636 1.62.636.432 0 .816-.1 1.152-.3.344-.2.612-.48.804-.84.192-.368.288-.792.288-1.272s-.096-.904-.288-1.272a1.99 1.99 0 0 0-.804-.84c-.336-.2-.72-.3-1.152-.3Zm13.174-.996c.768 0 1.384.248 1.848.744.472.488.708 1.196.708 2.124V122h-1.092v-3.732c0-.648-.16-1.144-.48-1.488-.312-.344-.744-.516-1.296-.516-.576 0-1.04.192-1.392.576-.344.376-.516.932-.516 1.668V122h-1.092v-3.732c0-.648-.16-1.144-.48-1.488-.32-.344-.752-.516-1.296-.516-.584 0-1.052.192-1.404.576-.344.376-.516.932-.516 1.668V122h-1.092v-6.588H46v1.5c.16-.52.444-.916.852-1.188.416-.28.892-.42 1.428-.42.56 0 1.044.144 1.452.432.416.28.712.696.888 1.248.184-.536.492-.948.924-1.236a2.53 2.53 0 0 1 1.464-.444Zm12.352 0c.768 0 1.384.248 1.848.744.472.488.708 1.196.708 2.124V122h-1.092v-3.732c0-.648-.16-1.144-.48-1.488-.312-.344-.744-.516-1.296-.516-.576 0-1.04.192-1.392.576-.344.376-.516.932-.516 1.668V122h-1.092v-3.732c0-.648-.16-1.144-.48-1.488-.32-.344-.752-.516-1.296-.516-.584 0-1.052.192-1.404.576-.344.376-.516.932-.516 1.668V122h-1.092v-6.588h1.092v1.5c.16-.52.444-.916.852-1.188.416-.28.892-.42 1.428-.42.56 0 1.044.144 1.452.432.416.28.712.696.888 1.248.184-.536.492-.948.924-1.236a2.53 2.53 0 0 1 1.464-.444Zm6.951.024c.64 0 1.18.16 1.62.48.448.32.76.748.936 1.284v-1.68h1.092V122h-1.092v-1.68a2.49 2.49 0 0 1-.936 1.284c-.44.32-.98.48-1.62.48a2.986 2.986 0 0 1-1.56-.408 2.87 2.87 0 0 1-1.08-1.164c-.256-.512-.384-1.112-.384-1.8s.128-1.288.384-1.8a2.853 2.853 0 0 1 1.08-1.176 2.986 2.986 0 0 1 1.56-.408Zm.312.972c-.672 0-1.212.216-1.62.648-.4.424-.6 1.012-.6 1.764s.2 1.344.6 1.776c.408.424.948.636 1.62.636.432 0 .816-.1 1.152-.3.344-.2.612-.48.804-.84.192-.368.288-.792.288-1.272s-.096-.904-.288-1.272a1.99 1.99 0 0 0-.804-.84c-.336-.2-.72-.3-1.152-.3Zm6.166.444c.216-.456.532-.808.948-1.056.416-.256.912-.384 1.488-.384v1.188h-.336c-.616 0-1.12.16-1.512.48-.392.312-.588.832-.588 1.56V122h-1.092v-6.588h1.092v1.332Z" fill="#333"/><circle cx="4" cy="4" r="4" transform="matrix(-1 0 0 1 14 146)" fill="#FFC700"/><path d="M28.06 145.54v.888h-2.388V154H24.58v-7.572h-2.388v-.888h5.868Zm7.146 4.8c0 .232-.017.432-.049.6H29.89c.023.752.235 1.316.636 1.692.407.376.904.564 1.488.564.527 0 .967-.132 1.32-.396.36-.272.58-.632.66-1.08h1.163c-.08.456-.26.864-.54 1.224-.271.36-.627.64-1.067.84-.44.2-.936.3-1.488.3-.632 0-1.192-.136-1.68-.408a2.932 2.932 0 0 1-1.152-1.164c-.273-.512-.409-1.112-.409-1.8s.136-1.288.409-1.8c.28-.512.663-.904 1.151-1.176.488-.272 1.049-.408 1.68-.408.64 0 1.197.136 1.669.408.48.272.844.636 1.092 1.092.255.456.383.96.383 1.512Zm-1.105.072c.025-.488-.056-.896-.24-1.224a1.755 1.755 0 0 0-.755-.732c-.32-.16-.669-.24-1.044-.24-.6 0-1.104.188-1.512.564-.409.368-.628.912-.66 1.632h4.212Zm3.625-1.668c.216-.456.532-.808.948-1.056.416-.256.912-.384 1.488-.384v1.188h-.336c-.616 0-1.12.16-1.512.48-.392.312-.588.832-.588 1.56V154h-1.092v-6.588h1.092v1.332Zm11.613-1.44c.768 0 1.384.248 1.848.744.472.488.708 1.196.708 2.124V154h-1.092v-3.732c0-.648-.16-1.144-.48-1.488-.312-.344-.744-.516-1.296-.516-.576 0-1.04.192-1.392.576-.344.376-.516.932-.516 1.668V154h-1.092v-3.732c0-.648-.16-1.144-.48-1.488-.32-.344-.752-.516-1.296-.516-.584 0-1.052.192-1.404.576-.344.376-.516.932-.516 1.668V154H41.24v-6.588h1.092v1.5c.16-.52.444-.916.852-1.188.416-.28.892-.42 1.428-.42.56 0 1.044.144 1.452.432.416.28.712.696.888 1.248.184-.536.492-.948.924-1.236a2.53 2.53 0 0 1 1.464-.444Zm6.316.024c.744 0 1.34.196 1.788.588.456.384.732.904.828 1.56h-1.044a1.476 1.476 0 0 0-.492-.96c-.272-.256-.64-.384-1.104-.384-.392 0-.7.096-.924.288-.216.184-.324.436-.324.756 0 .24.072.436.216.588.152.144.336.256.552.336.224.072.528.152.912.24.488.112.88.228 1.176.348.304.112.56.296.768.552.216.256.324.6.324 1.032 0 .536-.204.972-.612 1.308-.4.336-.936.504-1.608.504-.784 0-1.424-.188-1.92-.564-.496-.376-.788-.9-.876-1.572h1.056c.04.4.212.724.516.972.312.248.72.372 1.224.372.376 0 .668-.096.876-.288a.963.963 0 0 0 .324-.756c0-.256-.076-.46-.228-.612a1.495 1.495 0 0 0-.564-.348 8.249 8.249 0 0 0-.924-.252 9.342 9.342 0 0 1-1.176-.336 1.87 1.87 0 0 1-.744-.528c-.2-.248-.3-.58-.3-.996 0-.552.204-.996.612-1.332.408-.344.964-.516 1.668-.516Z" fill="#333"/><circle cx="4" cy="4" r="4" transform="matrix(-1 0 0 1 14 180)" fill="#3BE19B"/><path d="M28.228 185.804c0 .4-.096.772-.288 1.116-.192.344-.484.624-.876.84-.392.216-.876.324-1.452.324-.56 0-1.06-.1-1.5-.3a2.791 2.791 0 0 1-1.044-.84 2.44 2.44 0 0 1-.444-1.224h1.164c.024.24.104.476.24.708.144.224.344.412.6.564.264.144.58.216.948.216.48 0 .848-.128 1.104-.384.256-.256.384-.584.384-.984 0-.344-.092-.624-.276-.84a1.796 1.796 0 0 0-.66-.504 8.29 8.29 0 0 0-1.08-.408c-.536-.176-.968-.34-1.296-.492a2.322 2.322 0 0 1-.828-.708c-.224-.312-.336-.724-.336-1.236 0-.44.104-.828.312-1.164a2.13 2.13 0 0 1 .912-.78c.4-.184.868-.276 1.404-.276.832 0 1.492.204 1.98.612.488.4.772.912.852 1.536h-1.176a1.59 1.59 0 0 0-.516-.888c-.28-.256-.66-.384-1.14-.384-.44 0-.792.116-1.056.348-.264.224-.396.544-.396.96 0 .328.084.596.252.804.176.2.392.36.648.48.256.112.608.24 1.056.384.544.176.98.344 1.308.504.336.16.62.404.852.732.232.32.348.748.348 1.284Zm4.612 1.236v.96h-.816c-.672 0-1.176-.16-1.512-.48-.328-.32-.492-.856-.492-1.608v-3.552h-.984v-.948h.984v-1.644h1.104v1.644h1.704v.948h-1.704v3.576c0 .424.076.716.228.876.16.152.432.228.816.228h.672Zm1.789-5.628 2.136 5.184 1.98-5.184h1.212l-3.912 9.708h-1.236l1.368-3.228-2.772-6.48h1.224Zm7.421-2.292V188h-1.092v-8.88h1.092Zm7.816 5.22c0 .232-.016.432-.048.6H44.55c.024.752.236 1.316.636 1.692.408.376.904.564 1.488.564.528 0 .968-.132 1.32-.396.36-.272.58-.632.66-1.08h1.164c-.08.456-.26.864-.54 1.224-.272.36-.628.64-1.068.84-.44.2-.936.3-1.488.3-.632 0-1.192-.136-1.68-.408a2.932 2.932 0 0 1-1.152-1.164c-.272-.512-.408-1.112-.408-1.8s.136-1.288.408-1.8c.28-.512.664-.904 1.152-1.176.488-.272 1.048-.408 1.68-.408.64 0 1.196.136 1.668.408.48.272.844.636 1.092 1.092.256.456.384.96.384 1.512Zm-1.104.072c.024-.488-.056-.896-.24-1.224a1.755 1.755 0 0 0-.756-.732c-.32-.16-.668-.24-1.044-.24-.6 0-1.104.188-1.512.564-.408.368-.628.912-.66 1.632h4.212Z" fill="#333"/><circle cx="4" cy="4" r="4" transform="matrix(-1 0 0 1 14 214)" fill="#13D3DF"/><path d="M26.62 213.456c1.032 0 1.884.256 2.556.768.672.504 1.136 1.196 1.392 2.076h-1.152a2.786 2.786 0 0 0-1.044-1.332c-.48-.336-1.068-.504-1.764-.504-.552 0-1.048.136-1.488.408-.432.264-.776.648-1.032 1.152-.248.496-.372 1.08-.372 1.752 0 .664.124 1.244.372 1.74.256.496.6.88 1.032 1.152.44.264.936.396 1.488.396.696 0 1.284-.164 1.764-.492.48-.336.828-.784 1.044-1.344h1.152c-.256.88-.72 1.576-1.392 2.088-.672.504-1.524.756-2.556.756-.792 0-1.492-.18-2.1-.54a3.857 3.857 0 0 1-1.428-1.524c-.336-.656-.504-1.4-.504-2.232 0-.84.168-1.588.504-2.244a3.754 3.754 0 0 1 1.428-1.524c.608-.368 1.308-.552 2.1-.552Zm6.5-.336V222h-1.092v-8.88h1.092Zm4.456 2.208c.64 0 1.18.16 1.62.48.448.32.76.748.936 1.284v-1.68h1.092V222h-1.092v-1.68a2.49 2.49 0 0 1-.936 1.284c-.44.32-.98.48-1.62.48a2.986 2.986 0 0 1-1.56-.408 2.87 2.87 0 0 1-1.08-1.164c-.256-.512-.384-1.112-.384-1.8s.128-1.288.384-1.8a2.853 2.853 0 0 1 1.08-1.176 2.986 2.986 0 0 1 1.56-.408Zm.312.972c-.672 0-1.212.216-1.62.648-.4.424-.6 1.012-.6 1.764s.2 1.344.6 1.776c.408.424.948.636 1.62.636.432 0 .816-.1 1.152-.3.344-.2.612-.48.804-.84.192-.368.288-.792.288-1.272s-.096-.904-.288-1.272a1.99 1.99 0 0 0-.804-.84c-.336-.2-.72-.3-1.152-.3Zm6.166.444c.216-.456.532-.808.948-1.056.416-.256.912-.384 1.488-.384v1.188h-.336c-.616 0-1.12.16-1.512.48-.392.312-.588.832-.588 1.56V222h-1.092v-6.588h1.092v1.332Zm3.321-3.264c0-.2.068-.36.204-.48.136-.128.316-.192.54-.192.224 0 .404.064.54.192.136.12.204.28.204.48 0 .2-.068.364-.204.492-.136.12-.316.18-.54.18-.224 0-.404-.06-.54-.18a.646.646 0 0 1-.204-.492Zm1.284 1.932V222h-1.092v-6.588h1.092Zm4.9 5.628v.96h-.816c-.672 0-1.176-.16-1.512-.48-.328-.32-.492-.856-.492-1.608v-3.552h-.984v-.948h.984v-1.644h1.104v1.644h1.704v.948h-1.704v3.576c0 .424.076.716.228.876.16.152.432.228.816.228h.672Zm1.789-5.628 2.136 5.184 1.98-5.184h1.212l-3.912 9.708h-1.236l1.368-3.228-2.772-6.48h1.224Z" fill="#333"/><circle cx="4" cy="4" r="4" transform="matrix(-1 0 0 1 14 248)" fill="#1D4CFF"/><path d="M30.004 251.764c0 .856-.172 1.604-.516 2.244a3.575 3.575 0 0 1-1.524 1.476c-.664.344-1.464.516-2.4.516h-2.688v-8.46h2.688c.936 0 1.736.172 2.4.516.672.336 1.18.824 1.524 1.464.344.632.516 1.38.516 2.244Zm-4.524 3.252c1.104 0 1.948-.284 2.532-.852.584-.568.876-1.368.876-2.4 0-1.032-.292-1.832-.876-2.4-.576-.576-1.42-.864-2.532-.864h-1.512v6.516h1.512Zm12.058-2.676c0 .232-.016.432-.048.6h-5.268c.024.752.236 1.316.636 1.692.408.376.904.564 1.488.564.528 0 .968-.132 1.32-.396.36-.272.58-.632.66-1.08h1.164c-.08.456-.26.864-.54 1.224-.272.36-.628.64-1.068.84-.44.2-.936.3-1.488.3-.632 0-1.192-.136-1.68-.408a2.932 2.932 0 0 1-1.152-1.164c-.272-.512-.408-1.112-.408-1.8s.136-1.288.408-1.8c.28-.512.664-.904 1.152-1.176.488-.272 1.048-.408 1.68-.408.64 0 1.196.136 1.668.408.48.272.844.636 1.092 1.092.256.456.384.96.384 1.512Zm-1.104.072c.024-.488-.056-.896-.24-1.224a1.755 1.755 0 0 0-.756-.732c-.32-.16-.668-.24-1.044-.24-.6 0-1.104.188-1.512.564-.408.368-.628.912-.66 1.632h4.212Zm3.624-5.292V256h-1.092v-8.88h1.092Zm1.563.36c0-.2.069-.36.204-.48.136-.128.316-.192.54-.192.224 0 .404.064.54.192.136.12.204.28.204.48 0 .2-.068.364-.203.492-.136.12-.316.18-.54.18-.224 0-.404-.06-.54-.18a.646.646 0 0 1-.205-.492Zm1.285 1.932V256h-1.093v-6.588h1.093Zm4.311 5.424 2.04-5.424h1.176L47.853 256h-1.296l-2.58-6.588h1.176l2.064 5.424Zm10.348-2.496c0 .232-.016.432-.048.6h-5.268c.024.752.236 1.316.636 1.692.408.376.904.564 1.488.564.528 0 .968-.132 1.32-.396.36-.272.58-.632.66-1.08h1.164c-.08.456-.26.864-.54 1.224-.272.36-.628.64-1.068.84-.44.2-.936.3-1.488.3-.632 0-1.192-.136-1.68-.408a2.932 2.932 0 0 1-1.152-1.164c-.272-.512-.408-1.112-.408-1.8s.136-1.288.408-1.8c.28-.512.664-.904 1.152-1.176.488-.272 1.048-.408 1.68-.408.64 0 1.196.136 1.668.408.48.272.844.636 1.092 1.092.256.456.384.96.384 1.512Zm-1.104.072c.024-.488-.056-.896-.24-1.224a1.755 1.755 0 0 0-.756-.732c-.32-.16-.668-.24-1.044-.24-.6 0-1.104.188-1.512.564-.408.368-.628.912-.66 1.632h4.212Zm3.624-1.668c.216-.456.532-.808.948-1.056.416-.256.912-.384 1.488-.384v1.188h-.336c-.616 0-1.12.16-1.512.48-.392.312-.588.832-.588 1.56V256h-1.092v-6.588h1.092v1.332Zm3.97-1.332 2.136 5.184 1.98-5.184h1.212l-3.912 9.708h-1.236l1.368-3.228-2.772-6.48h1.224Z" fill="#333"/><circle cx="4" cy="4" r="4" transform="matrix(1 0 0 -1 6 290)" fill="#9B51E0"/><path d="M23.968 281.54V290h-1.092v-8.46h1.092Zm5.224 1.764c.768 0 1.388.248 1.86.744.472.488.708 1.196.708 2.124V290h-1.092v-3.732c0-.656-.168-1.16-.504-1.512-.336-.352-.792-.528-1.368-.528-.6 0-1.08.196-1.44.588-.36.384-.54.948-.54 1.692V290h-1.092v-6.588h1.092v1.56c.168-.536.464-.948.888-1.236a2.62 2.62 0 0 1 1.488-.432Zm7.159.024c.84 0 1.536.224 2.088.672.552.448.892 1.048 1.02 1.8h-1.152c-.08-.472-.3-.84-.66-1.104-.352-.272-.792-.408-1.32-.408-.384 0-.736.088-1.056.264-.312.176-.564.448-.756.816-.192.36-.288.808-.288 1.344s.096.988.288 1.356c.192.36.444.628.756.804.32.176.672.264 1.056.264.528 0 .968-.136 1.32-.408.36-.272.58-.644.66-1.116h1.152c-.128.76-.468 1.364-1.02 1.812-.552.44-1.248.66-2.088.66-.632 0-1.192-.136-1.68-.408a2.932 2.932 0 0 1-1.152-1.164c-.272-.512-.408-1.112-.408-1.8s.136-1.288.408-1.8c.28-.512.664-.904 1.152-1.176.488-.272 1.048-.408 1.68-.408Zm5.629-2.208V290h-1.092v-8.88h1.092Zm7.611 2.292V290H48.5v-1.548c-.168.536-.468.948-.9 1.236-.424.28-.92.42-1.488.42-.76 0-1.376-.244-1.848-.732-.472-.496-.708-1.204-.708-2.124v-3.84h1.092v3.732c0 .656.168 1.164.504 1.524.336.352.792.528 1.368.528.6 0 1.08-.192 1.44-.576.36-.392.54-.96.54-1.704v-3.504h1.092Zm3.814-.084c.744 0 1.34.196 1.788.588.456.384.732.904.828 1.56h-1.044a1.476 1.476 0 0 0-.492-.96c-.272-.256-.64-.384-1.104-.384-.392 0-.7.096-.924.288-.216.184-.324.436-.324.756 0 .24.072.436.216.588.152.144.336.256.552.336.224.072.528.152.912.24.488.112.88.228 1.176.348.304.112.56.296.768.552.216.256.324.6.324 1.032 0 .536-.204.972-.612 1.308-.4.336-.936.504-1.608.504-.784 0-1.424-.188-1.92-.564-.496-.376-.788-.9-.876-1.572h1.056c.04.4.212.724.516.972.312.248.72.372 1.224.372.376 0 .668-.096.876-.288a.963.963 0 0 0 .324-.756c0-.256-.076-.46-.228-.612a1.495 1.495 0 0 0-.564-.348 8.249 8.249 0 0 0-.924-.252 9.342 9.342 0 0 1-1.176-.336 1.87 1.87 0 0 1-.744-.528c-.2-.248-.3-.58-.3-.996 0-.552.204-.996.612-1.332.408-.344.964-.516 1.668-.516Zm3.943-1.848c0-.2.068-.36.204-.48.136-.128.316-.192.54-.192.224 0 .404.064.54.192.136.12.204.28.204.48 0 .2-.068.364-.204.492-.136.12-.316.18-.54.18-.224 0-.404-.06-.54-.18a.646.646 0 0 1-.204-.492Zm1.284 1.932V290H57.54v-6.588h1.092Zm4.312 5.424 2.04-5.424h1.176L63.58 290h-1.296l-2.58-6.588h1.176l2.064 5.424Zm4.096-7.356c0-.2.067-.36.203-.48.136-.128.317-.192.54-.192.224 0 .404.064.54.192.137.12.205.28.205.48 0 .2-.069.364-.205.492-.135.12-.316.18-.54.18-.224 0-.404-.06-.54-.18a.646.646 0 0 1-.203-.492Zm1.283 1.932V290h-1.091v-6.588h1.091Zm4.9 5.628v.96h-.816c-.672 0-1.176-.16-1.512-.48-.328-.32-.492-.856-.492-1.608v-3.552h-.984v-.948h.984v-1.644h1.104v1.644h1.704v.948h-1.704v3.576c0 .424.076.716.228.876.16.152.432.228.816.228h.672Zm1.789-5.628 2.136 5.184 1.98-5.184h1.212l-3.912 9.708h-1.236l1.368-3.228-2.772-6.48h1.224Z" fill="#333"/><circle cx="4" cy="4" r="3.817" transform="matrix(-1 0 0 1 14 316)" fill="#9AA2AF" stroke="#fff" stroke-width=".365"/><path d="M26.62 315.456c1.032 0 1.884.256 2.556.768.672.504 1.136 1.196 1.392 2.076h-1.152a2.786 2.786 0 0 0-1.044-1.332c-.48-.336-1.068-.504-1.764-.504-.552 0-1.048.136-1.488.408-.432.264-.776.648-1.032 1.152-.248.496-.372 1.08-.372 1.752 0 .664.124 1.244.372 1.74.256.496.6.88 1.032 1.152.44.264.936.396 1.488.396.696 0 1.284-.164 1.764-.492.48-.336.828-.784 1.044-1.344h1.152c-.256.88-.72 1.576-1.392 2.088-.672.504-1.524.756-2.556.756-.792 0-1.492-.18-2.1-.54a3.857 3.857 0 0 1-1.428-1.524c-.336-.656-.504-1.4-.504-2.232 0-.84.168-1.588.504-2.244a3.754 3.754 0 0 1 1.428-1.524c.608-.368 1.308-.552 2.1-.552Zm8.396 1.872c.632 0 1.196.136 1.692.408.504.272.896.664 1.176 1.176.288.512.432 1.112.432 1.8s-.144 1.288-.432 1.8a2.89 2.89 0 0 1-1.176 1.164c-.496.272-1.06.408-1.692.408a3.53 3.53 0 0 1-1.704-.408 2.99 2.99 0 0 1-1.176-1.164c-.288-.512-.432-1.112-.432-1.8s.144-1.288.432-1.8a2.97 2.97 0 0 1 1.176-1.176 3.53 3.53 0 0 1 1.704-.408Zm0 .96c-.392 0-.756.088-1.092.264a2.025 2.025 0 0 0-.804.816c-.2.36-.3.808-.3 1.344 0 .528.1.976.3 1.344.208.36.476.628.804.804.336.176.7.264 1.092.264.392 0 .752-.088 1.08-.264.336-.176.604-.444.804-.804.208-.368.312-.816.312-1.344 0-.536-.104-.984-.312-1.344a1.93 1.93 0 0 0-.804-.816 2.248 2.248 0 0 0-1.08-.264Zm12.823-.984c.768 0 1.384.248 1.848.744.472.488.708 1.196.708 2.124V324h-1.092v-3.732c0-.648-.16-1.144-.48-1.488-.312-.344-.744-.516-1.296-.516-.576 0-1.04.192-1.392.576-.344.376-.516.932-.516 1.668V324h-1.092v-3.732c0-.648-.16-1.144-.48-1.488-.32-.344-.752-.516-1.296-.516-.584 0-1.052.192-1.404.576-.344.376-.516.932-.516 1.668V324H39.74v-6.588h1.092v1.5c.16-.52.444-.916.852-1.188.416-.28.892-.42 1.428-.42.56 0 1.044.144 1.452.432.416.28.712.696.888 1.248.184-.536.492-.948.924-1.236a2.53 2.53 0 0 1 1.464-.444Zm7.888.024c.584 0 1.104.136 1.56.408.456.272.812.664 1.068 1.176.264.512.396 1.112.396 1.8s-.132 1.288-.396 1.8a2.79 2.79 0 0 1-1.068 1.164 2.986 2.986 0 0 1-1.56.408c-.64 0-1.184-.16-1.632-.48a2.513 2.513 0 0 1-.912-1.284v4.8H52.09v-9.708h1.092v1.68a2.45 2.45 0 0 1 .912-1.272c.448-.328.992-.492 1.632-.492Zm-.312.972c-.424 0-.808.1-1.152.3a1.99 1.99 0 0 0-.804.84c-.192.368-.288.792-.288 1.272s.096.904.288 1.272c.192.36.46.64.804.84.344.2.728.3 1.152.3.68 0 1.22-.212 1.62-.636.408-.432.612-1.024.612-1.776s-.204-1.34-.612-1.764c-.4-.432-.94-.648-1.62-.648Zm5.854-3.18V324h-1.092v-8.88h1.092Zm1.563.36c0-.2.068-.36.204-.48.136-.128.316-.192.54-.192.224 0 .404.064.54.192.136.12.204.28.204.48 0 .2-.068.364-.204.492-.136.12-.316.18-.54.18-.224 0-.404-.06-.54-.18a.646.646 0 0 1-.204-.492Zm1.284 1.932V324h-1.092v-6.588h1.092Zm4.456-.084c.64 0 1.18.16 1.62.48.448.32.76.748.936 1.284v-1.68h1.092V324h-1.092v-1.68a2.49 2.49 0 0 1-.936 1.284c-.44.32-.98.48-1.62.48a2.986 2.986 0 0 1-1.56-.408 2.87 2.87 0 0 1-1.08-1.164c-.256-.512-.384-1.112-.384-1.8s.128-1.288.384-1.8a2.853 2.853 0 0 1 1.08-1.176 2.986 2.986 0 0 1 1.56-.408Zm.312.972c-.672 0-1.212.216-1.62.648-.4.424-.6 1.012-.6 1.764s.2 1.344.6 1.776c.408.424.948.636 1.62.636.432 0 .816-.1 1.152-.3.344-.2.612-.48.804-.84.192-.368.288-.792.288-1.272s-.096-.904-.288-1.272a1.99 1.99 0 0 0-.804-.84c-.336-.2-.72-.3-1.152-.3Zm8.542-.996c.768 0 1.388.248 1.86.744.472.488.708 1.196.708 2.124V324h-1.092v-3.732c0-.656-.168-1.16-.504-1.512-.336-.352-.792-.528-1.368-.528-.6 0-1.08.196-1.44.588-.36.384-.54.948-.54 1.692V324h-1.092v-6.588h1.092v1.56c.168-.536.464-.948.888-1.236a2.62 2.62 0 0 1 1.488-.432Zm7.159.024c.84 0 1.536.224 2.088.672.552.448.892 1.048 1.02 1.8h-1.152c-.08-.472-.3-.84-.66-1.104-.352-.272-.792-.408-1.32-.408-.384 0-.736.088-1.056.264-.312.176-.564.448-.756.816-.192.36-.288.808-.288 1.344s.096.988.288 1.356c.192.36.444.628.756.804.32.176.672.264 1.056.264.528 0 .968-.136 1.32-.408.36-.272.58-.644.66-1.116h1.152c-.128.76-.468 1.364-1.02 1.812-.552.44-1.248.66-2.088.66-.632 0-1.192-.136-1.68-.408a2.932 2.932 0 0 1-1.152-1.164c-.272-.512-.408-1.112-.408-1.8s.136-1.288.408-1.8c.28-.512.664-.904 1.152-1.176.488-.272 1.048-.408 1.68-.408Zm10.597 3.012c0 .232-.016.432-.048.6h-5.268c.024.752.236 1.316.636 1.692.408.376.904.564 1.488.564.528 0 .968-.132 1.32-.396.36-.272.58-.632.66-1.08h1.164c-.08.456-.26.864-.54 1.224-.272.36-.628.64-1.068.84-.44.2-.936.3-1.488.3-.632 0-1.192-.136-1.68-.408a2.932 2.932 0 0 1-1.152-1.164c-.272-.512-.408-1.112-.408-1.8s.136-1.288.408-1.8c.28-.512.664-.904 1.152-1.176.488-.272 1.048-.408 1.68-.408.64 0 1.196.136 1.668.408.48.272.844.636 1.092 1.092.256.456.384.96.384 1.512Zm-1.104.072c.024-.488-.056-.896-.24-1.224a1.755 1.755 0 0 0-.756-.732c-.32-.16-.668-.24-1.044-.24-.6 0-1.104.188-1.512.564-.408.368-.628.912-.66 1.632h4.212Z" fill="#333"/><circle cx="4" cy="4" r="4" transform="matrix(-1 0 0 1 14 350)" fill="#5A677C"/><path d="M23.968 354.592V358h-1.092v-8.46h2.688c.968 0 1.692.228 2.172.684.48.448.72 1.064.72 1.848 0 .792-.248 1.412-.744 1.86-.496.44-1.212.66-2.148.66h-1.596Zm1.5-.912c.664 0 1.14-.14 1.428-.42.296-.28.444-.676.444-1.188 0-.528-.148-.928-.444-1.2-.288-.28-.764-.42-1.428-.42h-1.5v3.228h1.5Zm5.355-4.56V358h-1.091v-8.88h1.091Zm4.456 2.208c.64 0 1.18.16 1.62.48.448.32.76.748.936 1.284v-1.68h1.092V358h-1.092v-1.68a2.49 2.49 0 0 1-.936 1.284c-.44.32-.98.48-1.62.48a2.986 2.986 0 0 1-1.56-.408 2.87 2.87 0 0 1-1.08-1.164c-.256-.512-.384-1.112-.384-1.8s.128-1.288.384-1.8a2.853 2.853 0 0 1 1.08-1.176 2.986 2.986 0 0 1 1.56-.408Zm.312.972c-.672 0-1.212.216-1.62.648-.4.424-.6 1.012-.6 1.764s.2 1.344.6 1.776c.408.424.948.636 1.62.636.432 0 .816-.1 1.152-.3.344-.2.612-.48.804-.84.192-.368.288-.792.288-1.272s-.096-.904-.288-1.272a1.99 1.99 0 0 0-.804-.84c-.336-.2-.72-.3-1.152-.3Zm7.774-.972c.64 0 1.18.16 1.62.48.448.32.76.748.936 1.284v-1.68h1.092v6.696c0 .608-.128 1.148-.384 1.62-.256.472-.616.84-1.08 1.104-.464.264-1.004.396-1.62.396-.888 0-1.612-.216-2.172-.648-.56-.424-.916-1-1.068-1.728h1.08c.128.44.368.784.72 1.032.36.256.82.384 1.38.384.592 0 1.08-.192 1.464-.576.392-.376.588-.904.588-1.584v-1.788a2.49 2.49 0 0 1-.936 1.284c-.44.32-.98.48-1.62.48a2.986 2.986 0 0 1-1.56-.408 2.87 2.87 0 0 1-1.08-1.164c-.256-.512-.384-1.112-.384-1.8s.128-1.288.384-1.8a2.853 2.853 0 0 1 1.08-1.176 2.986 2.986 0 0 1 1.56-.408Zm.312.972c-.672 0-1.212.216-1.62.648-.4.424-.6 1.012-.6 1.764s.2 1.344.6 1.776c.408.424.948.636 1.62.636.432 0 .816-.1 1.152-.3.344-.2.612-.48.804-.84.192-.368.288-.792.288-1.272s-.096-.904-.288-1.272a1.99 1.99 0 0 0-.804-.84c-.336-.2-.72-.3-1.152-.3Zm4.882-2.82c0-.2.068-.36.204-.48.136-.128.316-.192.54-.192.224 0 .404.064.54.192.136.12.204.28.204.48 0 .2-.068.364-.204.492-.136.12-.316.18-.54.18-.224 0-.404-.06-.54-.18a.646.646 0 0 1-.204-.492Zm1.284 1.932V358h-1.092v-6.588h1.092Zm4.456-.084c.64 0 1.18.16 1.62.48.448.32.76.748.936 1.284v-1.68h1.092V358h-1.092v-1.68a2.49 2.49 0 0 1-.936 1.284c-.44.32-.98.48-1.62.48a2.986 2.986 0 0 1-1.56-.408 2.87 2.87 0 0 1-1.08-1.164c-.256-.512-.384-1.112-.384-1.8s.128-1.288.384-1.8a2.853 2.853 0 0 1 1.08-1.176 2.986 2.986 0 0 1 1.56-.408Zm.312.972c-.672 0-1.212.216-1.62.648-.4.424-.6 1.012-.6 1.764s.2 1.344.6 1.776c.408.424.948.636 1.62.636.432 0 .816-.1 1.152-.3.344-.2.612-.48.804-.84.192-.368.288-.792.288-1.272s-.096-.904-.288-1.272a1.99 1.99 0 0 0-.804-.84c-.336-.2-.72-.3-1.152-.3Zm6.166.444c.216-.456.532-.808.948-1.056.416-.256.912-.384 1.488-.384v1.188h-.336c-.616 0-1.12.16-1.512.48-.392.312-.588.832-.588 1.56V358h-1.092v-6.588h1.092v1.332Zm3.321-3.264c0-.2.068-.36.204-.48.136-.128.316-.192.54-.192.224 0 .404.064.54.192.136.12.204.28.204.48 0 .2-.068.364-.204.492-.136.12-.316.18-.54.18-.224 0-.404-.06-.54-.18a.646.646 0 0 1-.204-.492Zm1.284 1.932V358H64.29v-6.588h1.092Zm3.82-.084c.744 0 1.34.196 1.788.588.456.384.732.904.828 1.56h-1.044a1.476 1.476 0 0 0-.492-.96c-.272-.256-.64-.384-1.104-.384-.392 0-.7.096-.924.288-.216.184-.324.436-.324.756 0 .24.072.436.216.588.152.144.336.256.552.336.224.072.528.152.912.24.488.112.88.228 1.176.348.304.112.56.296.768.552.216.256.324.6.324 1.032 0 .536-.204.972-.612 1.308-.4.336-.936.504-1.608.504-.784 0-1.424-.188-1.92-.564-.496-.376-.788-.9-.876-1.572h1.056c.04.4.212.724.516.972.312.248.72.372 1.224.372.376 0 .668-.096.876-.288a.963.963 0 0 0 .324-.756c0-.256-.076-.46-.228-.612a1.495 1.495 0 0 0-.564-.348 8.249 8.249 0 0 0-.924-.252 9.342 9.342 0 0 1-1.176-.336 1.87 1.87 0 0 1-.744-.528c-.2-.248-.3-.58-.3-.996 0-.552.204-.996.612-1.332.408-.344.964-.516 1.668-.516Zm12.235-.024c.768 0 1.384.248 1.848.744.472.488.708 1.196.708 2.124V358H82.9v-3.732c0-.648-.16-1.144-.48-1.488-.312-.344-.744-.516-1.296-.516-.576 0-1.04.192-1.392.576-.344.376-.516.932-.516 1.668V358h-1.092v-3.732c0-.648-.16-1.144-.48-1.488-.32-.344-.752-.516-1.296-.516-.584 0-1.052.192-1.404.576-.344.376-.516.932-.516 1.668V358h-1.092v-6.588h1.092v1.5c.16-.52.444-.916.852-1.188.416-.28.892-.42 1.428-.42.56 0 1.044.144 1.452.432.416.28.712.696.888 1.248.184-.536.492-.948.924-1.236a2.53 2.53 0 0 1 1.464-.444Z" fill="#333"/><g clip-path="url(#b)"><path d="M8.501 393.457v-.5H3.926l5.76-8.783v5.868h4.401l-5.586 8.746v-5.331Z" stroke="#000"/></g><path d="M24.256 396.098c-.653 0-1.241-.112-1.764-.336-.523-.233-.933-.56-1.232-.98-.299-.42-.448-.91-.448-1.47h1.708c.037.42.2.765.49 1.036.299.271.714.406 1.246.406.55 0 .98-.131 1.288-.392.308-.271.462-.616.462-1.036 0-.327-.098-.593-.294-.798a1.851 1.851 0 0 0-.714-.476c-.28-.112-.672-.233-1.176-.364a12.24 12.24 0 0 1-1.554-.504 2.627 2.627 0 0 1-1.008-.812c-.28-.364-.42-.849-.42-1.456 0-.56.14-1.05.42-1.47.28-.42.672-.742 1.176-.966.504-.224 1.087-.336 1.75-.336.943 0 1.713.238 2.31.714.607.467.943 1.111 1.008 1.932H25.74c-.028-.355-.196-.658-.504-.91s-.714-.378-1.218-.378c-.457 0-.83.117-1.12.35-.29.233-.434.569-.434 1.008 0 .299.089.546.266.742.187.187.42.336.7.448.28.112.663.233 1.148.364.644.177 1.167.355 1.568.532.41.177.756.453 1.036.826.29.364.434.854.434 1.47 0 .495-.135.961-.406 1.4-.261.439-.649.793-1.162 1.064-.504.261-1.101.392-1.792.392Zm9.135-7.938c.607 0 1.148.126 1.624.378.486.252.864.625 1.134 1.12.27.495.406 1.092.406 1.792V396h-1.582v-4.312c0-.691-.172-1.218-.518-1.582-.345-.373-.816-.56-1.414-.56-.597 0-1.073.187-1.428.56-.345.364-.518.891-.518 1.582V396H29.5v-7.714h1.596v.882c.262-.317.593-.565.994-.742.41-.177.845-.266 1.302-.266Zm6.012-.896a.989.989 0 0 1-.728-.294.99.99 0 0 1-.294-.728.99.99 0 0 1 .294-.728.989.989 0 0 1 .728-.294c.28 0 .518.098.714.294a.99.99 0 0 1 .294.728.99.99 0 0 1-.294.728.972.972 0 0 1-.714.294Zm.784 1.022V396h-1.596v-7.714h1.596Zm3.691 1.134c.271-.355.64-.653 1.106-.896a3.374 3.374 0 0 1 1.582-.364c.672 0 1.284.168 1.834.504.56.327 1 .789 1.316 1.386.318.597.476 1.283.476 2.058 0 .775-.158 1.47-.476 2.086a3.597 3.597 0 0 1-1.316 1.428 3.452 3.452 0 0 1-1.834.504c-.588 0-1.11-.117-1.568-.35a3.598 3.598 0 0 1-1.12-.896v4.788h-1.596v-11.382h1.596v1.134Zm4.69 2.688c0-.532-.112-.989-.336-1.372a2.137 2.137 0 0 0-.868-.882 2.256 2.256 0 0 0-1.148-.308c-.4 0-.784.103-1.148.308a2.357 2.357 0 0 0-.868.896c-.214.392-.322.854-.322 1.386 0 .532.108.999.322 1.4.224.392.514.691.868.896.364.205.747.308 1.148.308.411 0 .794-.103 1.148-.308.364-.215.654-.523.868-.924.224-.401.336-.868.336-1.4Zm4.799-2.688c.27-.355.639-.653 1.106-.896a3.374 3.374 0 0 1 1.582-.364c.672 0 1.283.168 1.834.504.56.327.998.789 1.316 1.386.317.597.476 1.283.476 2.058 0 .775-.159 1.47-.476 2.086a3.597 3.597 0 0 1-1.316 1.428 3.452 3.452 0 0 1-1.834.504c-.588 0-1.111-.117-1.568-.35a3.597 3.597 0 0 1-1.12-.896v4.788H51.77v-11.382h1.596v1.134Zm4.69 2.688c0-.532-.112-.989-.336-1.372a2.138 2.138 0 0 0-.868-.882 2.256 2.256 0 0 0-1.148-.308c-.402 0-.784.103-1.148.308a2.356 2.356 0 0 0-.868.896c-.215.392-.322.854-.322 1.386 0 .532.107.999.322 1.4.224.392.513.691.868.896.364.205.746.308 1.148.308.41 0 .793-.103 1.148-.308.364-.215.653-.523.868-.924.224-.401.336-.868.336-1.4Zm10.272-.154c0 .289-.019.551-.056.784h-5.894c.047.616.275 1.111.686 1.484.41.373.915.56 1.512.56.859 0 1.465-.359 1.82-1.078h1.722a3.498 3.498 0 0 1-1.274 1.75c-.607.448-1.363.672-2.268.672-.737 0-1.4-.163-1.988-.49a3.664 3.664 0 0 1-1.372-1.4c-.327-.607-.49-1.307-.49-2.1 0-.793.159-1.489.476-2.086a3.444 3.444 0 0 1 1.358-1.4c.588-.327 1.26-.49 2.016-.49.728 0 1.377.159 1.946.476.57.317 1.013.765 1.33 1.344.317.569.476 1.227.476 1.974Zm-1.666-.504c-.01-.588-.22-1.059-.63-1.414-.41-.355-.92-.532-1.526-.532-.55 0-1.022.177-1.414.532-.392.345-.625.817-.7 1.414h4.27Zm5.099-1.862v4.27c0 .289.065.499.196.63.14.121.373.182.7.182h.98V396h-1.26c-.72 0-1.27-.168-1.652-.504-.383-.336-.574-.882-.574-1.638v-4.27h-.91v-1.302h.91v-1.918h1.61v1.918h1.876v1.302h-1.876Zm6.147 6.538c-.607 0-1.153-.107-1.638-.322a2.962 2.962 0 0 1-1.134-.896 2.267 2.267 0 0 1-.448-1.274h1.652c.028.327.182.602.462.826.289.215.648.322 1.078.322.448 0 .793-.084 1.036-.252.252-.177.378-.401.378-.672 0-.289-.14-.504-.42-.644-.271-.14-.705-.294-1.302-.462a12.771 12.771 0 0 1-1.414-.462 2.535 2.535 0 0 1-.952-.686c-.262-.308-.392-.714-.392-1.218 0-.411.12-.784.364-1.12.242-.345.588-.616 1.036-.812.457-.196.98-.294 1.568-.294.877 0 1.582.224 2.114.672.54.439.83 1.041.868 1.806h-1.596a1.137 1.137 0 0 0-.42-.826c-.252-.205-.593-.308-1.022-.308-.42 0-.742.079-.966.238a.738.738 0 0 0-.336.63c0 .205.074.378.224.518.149.14.33.252.546.336.214.075.532.173.952.294.56.149 1.017.303 1.372.462.364.149.676.373.938.672.26.299.396.695.406 1.19 0 .439-.122.831-.364 1.176-.243.345-.588.616-1.036.812-.44.196-.957.294-1.554.294Z" fill="#333"/><defs><clipPath id="a"><rect width="38" height="38" rx="19" fill="#fff"/></clipPath><clipPath id="b"><path fill="#fff" transform="translate(2 384.5)" d="M0 0h14v14H0z"/></clipPath></defs></svg>