<svg width="135" height="149" fill="none" xmlns="http://www.w3.org/2000/svg"><path stroke="#E4E7ED" d="M0 .5h135"/><path d="M11.28 17.54 9.132 26H7.8l-1.956-6.912L3.888 26H2.556l-2.16-8.46h1.212l1.62 7.188 2.004-7.188h1.212l2.004 7.164 1.632-7.164h1.2Zm4.268 1.788c.632 0 1.196.136 1.692.408.504.272.896.664 1.176 1.176.288.512.432 1.112.432 1.8s-.144 1.288-.432 1.8a2.89 2.89 0 0 1-1.176 1.164c-.496.272-1.06.408-1.692.408a3.53 3.53 0 0 1-1.704-.408 2.99 2.99 0 0 1-1.176-1.164c-.288-.512-.432-1.112-.432-1.8s.144-1.288.432-1.8a2.97 2.97 0 0 1 1.176-1.176 3.53 3.53 0 0 1 1.704-.408Zm0 .96c-.392 0-.756.088-1.092.264a2.025 2.025 0 0 0-.804.816c-.2.36-.3.808-.3 1.344 0 .528.1.976.3 1.344.208.36.476.628.804.804.336.176.7.264 1.092.264.392 0 .752-.088 1.08-.264.336-.176.604-.444.804-.804.208-.368.312-.816.312-1.344 0-.536-.104-.984-.312-1.344a1.93 1.93 0 0 0-.804-.816 2.248 2.248 0 0 0-1.08-.264Zm5.815.456c.215-.456.532-.808.948-1.056.416-.256.912-.384 1.488-.384v1.188h-.337c-.616 0-1.12.16-1.511.48-.393.312-.588.832-.588 1.56V26H20.27v-6.588h1.093v1.332Zm6.213-1.416c.64 0 1.18.16 1.62.48.448.32.76.748.936 1.284V17.12h1.092V26h-1.092v-1.68a2.49 2.49 0 0 1-.936 1.284c-.44.32-.98.48-1.62.48a2.986 2.986 0 0 1-1.56-.408 2.87 2.87 0 0 1-1.08-1.164c-.256-.512-.384-1.112-.384-1.8s.128-1.288.384-1.8a2.853 2.853 0 0 1 1.08-1.176 2.986 2.986 0 0 1 1.56-.408Zm.312.972c-.672 0-1.212.216-1.62.648-.4.424-.6 1.012-.6 1.764s.2 1.344.6 1.776c.408.424.948.636 1.62.636.432 0 .816-.1 1.152-.3.344-.2.612-.48.804-.84.192-.368.288-.792.288-1.272s-.096-.904-.288-1.272a1.99 1.99 0 0 0-.804-.84c-.336-.2-.72-.3-1.152-.3Zm7.138-.972c.744 0 1.34.196 1.788.588.456.384.732.904.828 1.56h-1.044a1.476 1.476 0 0 0-.492-.96c-.272-.256-.64-.384-1.104-.384-.392 0-.7.096-.924.288-.216.184-.324.436-.324.756 0 .24.072.436.216.588.152.144.336.256.552.336.224.072.528.152.912.24.488.112.88.228 1.176.348.304.112.56.296.768.552.216.256.324.6.324 1.032 0 .536-.204.972-.612 1.308-.4.336-.936.504-1.608.504-.784 0-1.424-.188-1.92-.564-.496-.376-.788-.9-.876-1.572h1.056c.04.4.212.724.516.972.312.248.72.372 1.224.372.376 0 .668-.096.876-.288a.963.963 0 0 0 .324-.756c0-.256-.076-.46-.228-.612a1.495 1.495 0 0 0-.564-.348 8.249 8.249 0 0 0-.924-.252 9.342 9.342 0 0 1-1.176-.336 1.87 1.87 0 0 1-.744-.528c-.2-.248-.3-.58-.3-.996 0-.552.204-.996.612-1.332.408-.344.964-.516 1.668-.516ZM132.976 21.08v1.152h-4.932V21.08h4.932ZM4.62 39.456c1.032 0 1.884.256 2.556.768.672.504 1.136 1.196 1.392 2.076H7.416a2.786 2.786 0 0 0-1.044-1.332c-.48-.336-1.068-.504-1.764-.504-.552 0-1.048.136-1.488.408-.432.264-.776.648-1.032 1.152-.248.496-.372 1.08-.372 1.752 0 .664.124 1.244.372 1.74.256.496.6.88 1.032 1.152.44.264.936.396 1.488.396.696 0 1.284-.164 1.764-.492.48-.336.828-.784 1.044-1.344h1.152c-.256.88-.72 1.576-1.392 2.088-.672.504-1.524.756-2.556.756-.792 0-1.492-.18-2.1-.54a3.857 3.857 0 0 1-1.428-1.524c-.336-.656-.504-1.4-.504-2.232 0-.84.168-1.588.504-2.244a3.754 3.754 0 0 1 1.428-1.524c.608-.368 1.308-.552 2.1-.552Zm8.876 1.848c.768 0 1.388.248 1.86.744.472.488.708 1.196.708 2.124V48h-1.092v-3.732c0-.656-.168-1.16-.504-1.512-.336-.352-.792-.528-1.368-.528-.6 0-1.08.196-1.44.588-.36.384-.54.948-.54 1.692V48h-1.092v-8.88h1.092v3.852c.168-.536.464-.948.888-1.236a2.62 2.62 0 0 1 1.488-.432Zm6.943.024c.64 0 1.18.16 1.62.48.448.32.76.748.936 1.284v-1.68h1.092V48h-1.092v-1.68a2.49 2.49 0 0 1-.936 1.284c-.44.32-.98.48-1.62.48a2.986 2.986 0 0 1-1.56-.408 2.87 2.87 0 0 1-1.08-1.164c-.256-.512-.384-1.112-.384-1.8s.128-1.288.384-1.8a2.853 2.853 0 0 1 1.08-1.176 2.986 2.986 0 0 1 1.56-.408Zm.312.972c-.672 0-1.212.216-1.62.648-.4.424-.6 1.012-.6 1.764s.2 1.344.6 1.776c.408.424.948.636 1.62.636.432 0 .816-.1 1.152-.3.344-.2.612-.48.804-.84.192-.368.288-.792.288-1.272s-.096-.904-.288-1.272a1.99 1.99 0 0 0-.804-.84c-.336-.2-.72-.3-1.152-.3Zm6.166.444c.216-.456.532-.808.948-1.056.416-.256.912-.384 1.488-.384v1.188h-.336c-.616 0-1.12.16-1.512.48-.392.312-.588.832-.588 1.56V48h-1.092v-6.588h1.092v1.332Zm6.214-1.416c.64 0 1.18.16 1.62.48.448.32.76.748.936 1.284v-1.68h1.092V48h-1.092v-1.68a2.49 2.49 0 0 1-.936 1.284c-.44.32-.98.48-1.62.48a2.986 2.986 0 0 1-1.56-.408 2.87 2.87 0 0 1-1.08-1.164c-.256-.512-.384-1.112-.384-1.8s.128-1.288.384-1.8a2.853 2.853 0 0 1 1.08-1.176 2.986 2.986 0 0 1 1.56-.408Zm.312.972c-.672 0-1.212.216-1.62.648-.4.424-.6 1.012-.6 1.764s.2 1.344.6 1.776c.408.424.948.636 1.62.636.432 0 .816-.1 1.152-.3.344-.2.612-.48.804-.84.192-.368.288-.792.288-1.272s-.096-.904-.288-1.272a1.99 1.99 0 0 0-.804-.84c-.336-.2-.72-.3-1.152-.3Zm7.99-.972c.84 0 1.536.224 2.088.672.552.448.892 1.048 1.02 1.8h-1.152c-.08-.472-.3-.84-.66-1.104-.352-.272-.792-.408-1.32-.408-.384 0-.736.088-1.056.264-.312.176-.564.448-.756.816-.192.36-.288.808-.288 1.344s.096.988.288 1.356c.192.36.444.628.756.804.32.176.672.264 1.056.264.528 0 .968-.136 1.32-.408.36-.272.58-.644.66-1.116h1.152c-.128.76-.468 1.364-1.02 1.812-.552.44-1.248.66-2.088.66-.632 0-1.192-.136-1.68-.408a2.932 2.932 0 0 1-1.152-1.164c-.272-.512-.408-1.112-.408-1.8s.136-1.288.408-1.8c.28-.512.664-.904 1.152-1.176.488-.272 1.048-.408 1.68-.408Zm7.68 5.712V48h-.815c-.672 0-1.176-.16-1.512-.48-.328-.32-.492-.856-.492-1.608V42.36h-.984v-.948h.984v-1.644h1.104v1.644h1.704v.948h-1.704v3.576c0 .424.076.716.228.876.16.152.432.228.816.228h.672Zm7.393-2.7c0 .232-.016.432-.048.6H51.19c.024.752.236 1.316.636 1.692.408.376.904.564 1.488.564.528 0 .968-.132 1.32-.396.36-.272.58-.632.66-1.08h1.164c-.08.456-.26.864-.54 1.224-.272.36-.628.64-1.068.84-.44.2-.936.3-1.488.3-.632 0-1.192-.136-1.68-.408a2.932 2.932 0 0 1-1.152-1.164c-.272-.512-.408-1.112-.408-1.8s.136-1.288.408-1.8c.28-.512.664-.904 1.152-1.176.488-.272 1.048-.408 1.68-.408.64 0 1.196.136 1.668.408.48.272.844.636 1.092 1.092.256.456.384.96.384 1.512Zm-1.104.072c.024-.488-.056-.896-.24-1.224a1.755 1.755 0 0 0-.756-.732c-.32-.16-.668-.24-1.044-.24-.6 0-1.104.188-1.512.564-.408.368-.628.912-.66 1.632h4.212Zm3.625-1.668c.216-.456.532-.808.948-1.056.416-.256.912-.384 1.488-.384v1.188h-.336c-.616 0-1.12.16-1.512.48-.392.312-.588.832-.588 1.56V48h-1.092v-6.588h1.092v1.332ZM132.976 43.08v1.152h-4.932V43.08h4.932ZM6.228 67.804c0 .4-.096.772-.288 1.116-.192.344-.484.624-.876.84-.392.216-.876.324-1.452.324-.56 0-1.06-.1-1.5-.3a2.791 2.791 0 0 1-1.044-.84 2.44 2.44 0 0 1-.444-1.224h1.164c.024.24.104.476.24.708.144.224.344.412.6.564.264.144.58.216.948.216.48 0 .848-.128 1.104-.384.256-.256.384-.584.384-.984 0-.344-.092-.624-.276-.84a1.796 1.796 0 0 0-.66-.504 8.29 8.29 0 0 0-1.08-.408c-.536-.176-.968-.34-1.296-.492a2.322 2.322 0 0 1-.828-.708c-.224-.312-.336-.724-.336-1.236 0-.44.104-.828.312-1.164a2.13 2.13 0 0 1 .912-.78c.4-.184.868-.276 1.404-.276.832 0 1.492.204 1.98.612.488.4.772.912.852 1.536H4.872a1.59 1.59 0 0 0-.516-.888c-.28-.256-.66-.384-1.14-.384-.44 0-.792.116-1.056.348-.264.224-.396.544-.396.96 0 .328.084.596.252.804.176.2.392.36.648.48.256.112.608.24 1.056.384.544.176.98.344 1.308.504.336.16.62.404.852.732.232.32.348.748.348 1.284Zm7.528-1.464c0 .232-.016.432-.048.6H8.44c.024.752.236 1.316.636 1.692.408.376.904.564 1.488.564.528 0 .968-.132 1.32-.396.36-.272.58-.632.66-1.08h1.164c-.08.456-.26.864-.54 1.224-.272.36-.628.64-1.068.84-.44.2-.936.3-1.488.3-.632 0-1.192-.136-1.68-.408a2.932 2.932 0 0 1-1.152-1.164c-.272-.512-.408-1.112-.408-1.8s.136-1.288.408-1.8c.28-.512.664-.904 1.152-1.176.488-.272 1.048-.408 1.68-.408.64 0 1.196.136 1.668.408.48.272.844.636 1.092 1.092.256.456.384.96.384 1.512Zm-1.104.072c.024-.488-.056-.896-.24-1.224a1.755 1.755 0 0 0-.756-.732c-.32-.16-.668-.24-1.044-.24-.6 0-1.104.188-1.512.564-.408.368-.628.912-.66 1.632h4.212Zm6-3.108c.769 0 1.389.248 1.86.744.473.488.709 1.196.709 2.124V70h-1.092v-3.732c0-.656-.168-1.16-.504-1.512-.336-.352-.792-.528-1.368-.528-.6 0-1.08.196-1.44.588-.36.384-.54.948-.54 1.692V70h-1.092v-6.588h1.092v1.56c.168-.536.464-.948.888-1.236a2.62 2.62 0 0 1 1.488-.432Zm7.387 5.736V70h-.816c-.671 0-1.175-.16-1.511-.48-.328-.32-.492-.856-.492-1.608V64.36h-.985v-.948h.985v-1.644h1.104v1.644h1.703v.948h-1.704v3.576c0 .424.076.716.229.876.16.152.431.228.816.228h.672Zm7.393-2.7c0 .232-.016.432-.048.6h-5.268c.024.752.236 1.316.636 1.692.408.376.904.564 1.488.564.528 0 .968-.132 1.32-.396.36-.272.58-.632.66-1.08h1.164c-.08.456-.26.864-.54 1.224-.272.36-.628.64-1.068.84-.44.2-.936.3-1.488.3-.632 0-1.192-.136-1.68-.408a2.932 2.932 0 0 1-1.152-1.164c-.272-.512-.408-1.112-.408-1.8s.136-1.288.408-1.8c.28-.512.664-.904 1.152-1.176.488-.272 1.048-.408 1.68-.408.64 0 1.196.136 1.668.408.48.272.844.636 1.092 1.092.256.456.384.96.384 1.512Zm-1.104.072c.024-.488-.056-.896-.24-1.224a1.755 1.755 0 0 0-.756-.732c-.32-.16-.668-.24-1.044-.24-.6 0-1.104.188-1.512.564-.408.368-.628.912-.66 1.632h4.212Zm6-3.108c.768 0 1.388.248 1.86.744.472.488.708 1.196.708 2.124V70h-1.092v-3.732c0-.656-.168-1.16-.504-1.512-.336-.352-.792-.528-1.368-.528-.6 0-1.08.196-1.44.588-.36.384-.54.948-.54 1.692V70H34.86v-6.588h1.092v1.56c.168-.536.464-.948.888-1.236a2.62 2.62 0 0 1 1.488-.432Zm7.16.024c.84 0 1.535.224 2.087.672.552.448.892 1.048 1.02 1.8h-1.152c-.08-.472-.3-.84-.66-1.104-.352-.272-.792-.408-1.32-.408-.384 0-.736.088-1.056.264-.312.176-.564.448-.756.816-.192.36-.288.808-.288 1.344s.096.988.288 1.356c.192.36.444.628.756.804.32.176.672.264 1.056.264.528 0 .968-.136 1.32-.408.36-.272.58-.644.66-1.116h1.152c-.128.76-.468 1.364-1.02 1.812-.552.44-1.248.66-2.088.66-.632 0-1.192-.136-1.68-.408a2.932 2.932 0 0 1-1.152-1.164c-.272-.512-.408-1.112-.408-1.8s.136-1.288.408-1.8c.28-.512.664-.904 1.152-1.176.488-.272 1.048-.408 1.68-.408Zm10.596 3.012c0 .232-.016.432-.048.6h-5.268c.024.752.236 1.316.636 1.692.408.376.904.564 1.488.564.528 0 .968-.132 1.32-.396.36-.272.58-.632.66-1.08h1.164c-.08.456-.26.864-.54 1.224-.272.36-.628.64-1.068.84-.44.2-.936.3-1.488.3-.632 0-1.192-.136-1.68-.408a2.932 2.932 0 0 1-1.152-1.164c-.272-.512-.408-1.112-.408-1.8s.136-1.288.408-1.8c.28-.512.664-.904 1.152-1.176.488-.272 1.048-.408 1.68-.408.64 0 1.196.136 1.668.408.48.272.844.636 1.092 1.092.256.456.384.96.384 1.512Zm-1.104.072c.024-.488-.056-.896-.24-1.224a1.755 1.755 0 0 0-.756-.732c-.32-.16-.668-.24-1.044-.24-.6 0-1.104.188-1.512.564-.408.368-.628.912-.66 1.632h4.212Zm6.59-5.292V70h-1.092v-8.88h1.092Zm7.815 5.22c0 .232-.016.432-.048.6H64.07c.024.752.236 1.316.636 1.692.408.376.904.564 1.488.564.528 0 .968-.132 1.32-.396.36-.272.58-.632.66-1.08h1.164c-.08.456-.26.864-.54 1.224-.272.36-.628.64-1.068.84-.44.2-.936.3-1.488.3-.632 0-1.192-.136-1.68-.408a2.932 2.932 0 0 1-1.152-1.164c-.272-.512-.408-1.112-.408-1.8s.136-1.288.408-1.8c.28-.512.664-.904 1.152-1.176.488-.272 1.048-.408 1.68-.408.64 0 1.196.136 1.668.408.48.272.844.636 1.092 1.092.256.456.384.96.384 1.512Zm-1.104.072c.024-.488-.056-.896-.24-1.224a1.755 1.755 0 0 0-.756-.732c-.32-.16-.668-.24-1.044-.24-.6 0-1.104.188-1.512.564-.408.368-.628.912-.66 1.632h4.212Zm6-3.108c.768 0 1.388.248 1.86.744.472.488.709 1.196.709 2.124V70h-1.093v-3.732c0-.656-.168-1.16-.504-1.512-.335-.352-.791-.528-1.368-.528-.6 0-1.08.196-1.44.588-.36.384-.54.948-.54 1.692V70h-1.091v-6.588h1.092v1.56c.167-.536.463-.948.887-1.236a2.62 2.62 0 0 1 1.488-.432Zm6.943.024c.64 0 1.18.16 1.62.48.448.32.76.748.936 1.284v-1.68h1.092v6.696c0 .608-.128 1.148-.384 1.62-.256.472-.616.84-1.08 1.104-.464.264-1.004.396-1.62.396-.888 0-1.612-.216-2.172-.648-.56-.424-.916-1-1.068-1.728h1.08c.128.44.368.784.72 1.032.36.256.82.384 1.38.384.592 0 1.08-.192 1.464-.576.392-.376.588-.904.588-1.584V68.32a2.49 2.49 0 0 1-.936 1.284c-.44.32-.98.48-1.62.48a2.986 2.986 0 0 1-1.56-.408 2.87 2.87 0 0 1-1.08-1.164c-.256-.512-.384-1.112-.384-1.8s.128-1.288.384-1.8a2.853 2.853 0 0 1 1.08-1.176 2.986 2.986 0 0 1 1.56-.408Zm.312.972c-.672 0-1.212.216-1.62.648-.4.424-.6 1.012-.6 1.764s.2 1.344.6 1.776c.408.424.948.636 1.62.636.432 0 .816-.1 1.152-.3.344-.2.612-.48.804-.84.192-.368.288-.792.288-1.272s-.096-.904-.288-1.272a1.99 1.99 0 0 0-.804-.84c-.336-.2-.72-.3-1.152-.3Zm8.218 4.74V70h-.816c-.672 0-1.176-.16-1.512-.48-.328-.32-.492-.856-.492-1.608V64.36h-.984v-.948h.984v-1.644h1.104v1.644h1.704v.948h-1.704v3.576c0 .424.076.716.228.876.16.152.432.228.816.228h.672Zm4.8-5.736c.769 0 1.389.248 1.86.744.473.488.709 1.196.709 2.124V70H96.03v-3.732c0-.656-.168-1.16-.504-1.512-.336-.352-.792-.528-1.368-.528-.6 0-1.08.196-1.44.588-.36.384-.54.948-.54 1.692V70h-1.092v-8.88h1.092v3.852c.168-.536.464-.948.888-1.236a2.62 2.62 0 0 1 1.488-.432ZM132.976 65.08v1.152h-4.932V65.08h4.932ZM5.364 92l-2.208-3.456H1.968V92H.876v-8.46H3.66c.96 0 1.68.232 2.16.696.48.456.72 1.064.72 1.824 0 .688-.192 1.244-.576 1.668-.384.416-.94.676-1.668.78L6.6 92H5.364Zm-3.396-4.248h1.596c1.24 0 1.86-.544 1.86-1.632 0-1.088-.62-1.632-1.86-1.632H1.968v3.264Zm11.964.588c0 .232-.016.432-.048.6H8.616c.024.752.236 1.316.636 1.692.408.376.904.564 1.488.564.528 0 .968-.132 1.32-.396.36-.272.58-.632.66-1.08h1.164c-.08.456-.26.864-.54 1.224-.272.36-.628.64-1.068.84-.44.2-.936.3-1.488.3-.632 0-1.192-.136-1.68-.408a2.932 2.932 0 0 1-1.152-1.164c-.272-.512-.408-1.112-.408-1.8s.136-1.288.408-1.8c.28-.512.664-.904 1.152-1.176.488-.272 1.048-.408 1.68-.408.64 0 1.196.136 1.668.408.48.272.844.636 1.092 1.092.256.456.384.96.384 1.512Zm-1.104.072c.024-.488-.056-.896-.24-1.224a1.755 1.755 0 0 0-.756-.732c-.32-.16-.668-.24-1.044-.24-.6 0-1.104.188-1.512.564-.408.368-.628.912-.66 1.632h4.212Zm5.232-3.084c.64 0 1.18.16 1.62.48.448.32.76.748.936 1.284v-1.68h1.092V92h-1.092v-1.68a2.49 2.49 0 0 1-.936 1.284c-.44.32-.98.48-1.62.48a2.986 2.986 0 0 1-1.56-.408 2.87 2.87 0 0 1-1.08-1.164c-.256-.512-.384-1.112-.384-1.8s.128-1.288.384-1.8a2.853 2.853 0 0 1 1.08-1.176 2.986 2.986 0 0 1 1.56-.408Zm.312.972c-.672 0-1.212.216-1.62.648-.4.424-.6 1.012-.6 1.764s.2 1.344.6 1.776c.408.424.948.636 1.62.636.432 0 .816-.1 1.152-.3.344-.2.612-.48.804-.84.192-.368.288-.792.288-1.272s-.096-.904-.288-1.272a1.99 1.99 0 0 0-.804-.84c-.336-.2-.72-.3-1.152-.3Zm7.774-.972c.64 0 1.18.16 1.62.48.448.32.76.748.936 1.284V83.12h1.092V92h-1.092v-1.68a2.49 2.49 0 0 1-.936 1.284c-.44.32-.98.48-1.62.48a2.986 2.986 0 0 1-1.56-.408 2.87 2.87 0 0 1-1.08-1.164c-.256-.512-.384-1.112-.384-1.8s.128-1.288.384-1.8a2.853 2.853 0 0 1 1.08-1.176 2.986 2.986 0 0 1 1.56-.408Zm.312.972c-.672 0-1.212.216-1.62.648-.4.424-.6 1.012-.6 1.764s.2 1.344.6 1.776c.408.424.948.636 1.62.636.432 0 .816-.1 1.152-.3.344-.2.612-.48.804-.84.192-.368.288-.792.288-1.272s-.096-.904-.288-1.272a1.99 1.99 0 0 0-.804-.84c-.336-.2-.72-.3-1.152-.3Zm4.882-2.82c0-.2.068-.36.204-.48.136-.128.316-.192.54-.192.224 0 .404.064.54.192.136.12.204.28.204.48 0 .2-.068.364-.204.492-.136.12-.316.18-.54.18-.224 0-.404-.06-.54-.18a.646.646 0 0 1-.204-.492Zm1.284 1.932V92h-1.092v-6.588h1.092Zm5.224-.108c.768 0 1.388.248 1.86.744.472.488.708 1.196.708 2.124V92h-1.092v-3.732c0-.656-.168-1.16-.504-1.512-.336-.352-.792-.528-1.368-.528-.6 0-1.08.196-1.44.588-.36.384-.54.948-.54 1.692V92H34.38v-6.588h1.092v1.56c.168-.536.464-.948.888-1.236a2.62 2.62 0 0 1 1.488-.432Zm6.943.024c.64 0 1.18.16 1.62.48.448.32.76.748.936 1.284v-1.68h1.092v6.696c0 .608-.128 1.148-.384 1.62-.256.472-.616.84-1.08 1.104-.464.264-1.004.396-1.62.396-.888 0-1.612-.216-2.172-.648-.56-.424-.916-1-1.068-1.728h1.08c.128.44.368.784.72 1.032.36.256.82.384 1.38.384.592 0 1.08-.192 1.464-.576.392-.376.588-.904.588-1.584V90.32a2.49 2.49 0 0 1-.936 1.284c-.44.32-.98.48-1.62.48a2.986 2.986 0 0 1-1.56-.408 2.87 2.87 0 0 1-1.08-1.164c-.256-.512-.384-1.112-.384-1.8s.128-1.288.384-1.8a2.853 2.853 0 0 1 1.08-1.176 2.986 2.986 0 0 1 1.56-.408Zm.312.972c-.672 0-1.212.216-1.62.648-.4.424-.6 1.012-.6 1.764s.2 1.344.6 1.776c.408.424.948.636 1.62.636.432 0 .816-.1 1.152-.3.344-.2.612-.48.804-.84.192-.368.288-.792.288-1.272s-.096-.904-.288-1.272a1.99 1.99 0 0 0-.804-.84c-.336-.2-.72-.3-1.152-.3Zm11.183 4.74V92h-.816c-.672 0-1.176-.16-1.512-.48-.328-.32-.492-.856-.492-1.608V86.36h-.984v-.948h.984v-1.644h1.104v1.644h1.704v.948H54.57v3.576c0 .424.076.716.228.876.16.152.432.228.816.228h.672Zm1.14-7.56c0-.2.068-.36.204-.48.136-.128.316-.192.54-.192.224 0 .404.064.54.192.136.12.204.28.204.48 0 .2-.068.364-.204.492-.136.12-.316.18-.54.18-.224 0-.404-.06-.54-.18a.646.646 0 0 1-.204-.492Zm1.284 1.932V92h-1.092v-6.588h1.092Zm9.856-.108c.768 0 1.384.248 1.848.744.472.488.708 1.196.708 2.124V92H70.03v-3.732c0-.648-.16-1.144-.48-1.488-.312-.344-.744-.516-1.296-.516-.576 0-1.04.192-1.392.576-.344.376-.516.932-.516 1.668V92h-1.092v-3.732c0-.648-.16-1.144-.48-1.488-.32-.344-.752-.516-1.296-.516-.584 0-1.052.192-1.404.576-.344.376-.516.932-.516 1.668V92h-1.092v-6.588h1.092v1.5c.16-.52.444-.916.852-1.188.416-.28.892-.42 1.428-.42.56 0 1.044.144 1.452.432.416.28.712.696.888 1.248.184-.536.492-.948.924-1.236a2.53 2.53 0 0 1 1.464-.444Zm10.311 3.036c0 .232-.016.432-.048.6h-5.268c.024.752.236 1.316.636 1.692.408.376.904.564 1.488.564.528 0 .968-.132 1.32-.396.36-.272.58-.632.66-1.08h1.164c-.08.456-.26.864-.54 1.224-.272.36-.628.64-1.068.84-.44.2-.936.3-1.488.3-.632 0-1.192-.136-1.68-.408a2.932 2.932 0 0 1-1.152-1.164c-.272-.512-.408-1.112-.408-1.8s.136-1.288.408-1.8c.28-.512.664-.904 1.152-1.176.488-.272 1.048-.408 1.68-.408.64 0 1.196.136 1.668.408.48.272.844.636 1.092 1.092.256.456.384.96.384 1.512Zm-1.104.072c.024-.488-.056-.896-.24-1.224a1.755 1.755 0 0 0-.756-.732c-.32-.16-.668-.24-1.044-.24-.6 0-1.104.188-1.512.564-.408.368-.628.912-.66 1.632h4.212ZM132.976 87.08v1.152h-4.932V87.08h4.932Z" fill="#000"/><path stroke="#E4E7ED" d="M0 108.5h135"/><path d="M7.77 132.668a2.294 2.294 0 0 0-.924-.938c-.392-.215-.85-.322-1.372-.322-.579 0-1.092.131-1.54.392a2.707 2.707 0 0 0-1.05 1.12c-.252.485-.378 1.045-.378 1.68 0 .653.126 1.223.378 1.708.261.485.62.859 1.078 1.12.457.261.99.392 1.596.392.747 0 1.358-.196 1.834-.588.476-.401.789-.957.938-1.666H4.97v-1.498h5.292v1.708a4.595 4.595 0 0 1-.84 1.89 4.793 4.793 0 0 1-1.666 1.4c-.672.345-1.428.518-2.268.518-.943 0-1.797-.21-2.562-.63a4.747 4.747 0 0 1-1.792-1.778c-.43-.756-.644-1.615-.644-2.576 0-.961.215-1.82.644-2.576a4.623 4.623 0 0 1 1.792-1.778c.765-.429 1.615-.644 2.548-.644 1.101 0 2.058.271 2.87.812.812.532 1.372 1.283 1.68 2.254H7.77Zm5.902.28c.252-.411.579-.733.98-.966.41-.233.877-.35 1.4-.35v2.058h-.518c-.616 0-1.083.145-1.4.434-.308.289-.462.793-.462 1.512v3.864h-1.96v-7.756h1.96v1.204Zm3.196 2.646c0-.784.154-1.479.462-2.086.318-.607.742-1.073 1.274-1.4a3.425 3.425 0 0 1 1.806-.49c.579 0 1.083.117 1.512.35.439.233.789.527 1.05.882v-1.106h1.974v7.756h-1.974v-1.134c-.252.364-.602.667-1.05.91-.438.233-.947.35-1.526.35-.653 0-1.25-.168-1.792-.504-.532-.336-.956-.807-1.274-1.414-.308-.616-.462-1.321-.462-2.114Zm6.104.028c0-.476-.093-.882-.28-1.218a1.916 1.916 0 0 0-.756-.784 1.979 1.979 0 0 0-1.022-.28c-.364 0-.7.089-1.008.266a2.04 2.04 0 0 0-.756.784c-.186.336-.28.737-.28 1.204 0 .467.094.877.28 1.232.196.345.448.611.756.798.318.187.654.28 1.008.28.364 0 .705-.089 1.022-.266a2.04 2.04 0 0 0 .756-.784c.187-.345.28-.756.28-1.232Zm3.384-.028c0-.784.154-1.479.462-2.086.318-.607.747-1.073 1.288-1.4a3.425 3.425 0 0 1 1.806-.49c.505 0 .985.112 1.443.336.457.215.82.504 1.091.868v-3.682h1.989v10.36h-1.989v-1.148a2.65 2.65 0 0 1-1.021.924c-.44.233-.948.35-1.527.35-.653 0-1.25-.168-1.791-.504a3.568 3.568 0 0 1-1.288-1.414c-.308-.616-.462-1.321-.462-2.114Zm6.105.028c0-.476-.094-.882-.28-1.218a1.915 1.915 0 0 0-.756-.784 1.979 1.979 0 0 0-1.023-.28c-.364 0-.7.089-1.008.266a2.04 2.04 0 0 0-.755.784c-.187.336-.28.737-.28 1.204 0 .467.093.877.28 1.232.195.345.448.611.756.798.317.187.653.28 1.008.28.364 0 .704-.089 1.021-.266.318-.187.57-.448.757-.784.186-.345.28-.756.28-1.232Zm11.098-.168c0 .28-.019.532-.056.756h-5.67c.047.56.242.999.588 1.316.345.317.77.476 1.274.476.728 0 1.246-.313 1.554-.938h2.114a3.566 3.566 0 0 1-1.288 1.848c-.635.476-1.414.714-2.338.714-.747 0-1.419-.163-2.016-.49a3.604 3.604 0 0 1-1.386-1.414c-.327-.607-.49-1.307-.49-2.1 0-.803.163-1.507.49-2.114a3.42 3.42 0 0 1 1.372-1.4c.588-.327 1.264-.49 2.03-.49.737 0 1.395.159 1.974.476.588.317 1.04.77 1.358 1.358.326.579.49 1.246.49 2.002Zm-2.03-.56c-.01-.504-.192-.905-.546-1.204-.355-.308-.789-.462-1.302-.462-.485 0-.896.149-1.232.448-.327.289-.527.695-.602 1.218h3.682Zm8.756-5.754v10.36h-1.96v-10.36h1.96Zm9.147 6.314c0 .28-.019.532-.056.756h-5.67c.046.56.242.999.588 1.316.345.317.77.476 1.274.476.728 0 1.246-.313 1.554-.938h2.114a3.566 3.566 0 0 1-1.288 1.848c-.635.476-1.414.714-2.338.714-.747 0-1.419-.163-2.016-.49a3.604 3.604 0 0 1-1.386-1.414c-.327-.607-.49-1.307-.49-2.1 0-.803.163-1.507.49-2.114a3.419 3.419 0 0 1 1.372-1.4c.588-.327 1.264-.49 2.03-.49.737 0 1.395.159 1.974.476.588.317 1.04.77 1.358 1.358.327.579.49 1.246.49 2.002Zm-2.03-.56c-.01-.504-.191-.905-.546-1.204-.355-.308-.789-.462-1.302-.462-.486 0-.896.149-1.232.448-.327.289-.528.695-.602 1.218h3.682Zm6.695 2.8 1.96-5.95h2.085l-2.87 7.756h-2.38l-2.856-7.756h2.1l1.96 5.95Zm12.356-2.24c0 .28-.018.532-.056.756h-5.67c.047.56.243.999.588 1.316.346.317.77.476 1.274.476.728 0 1.246-.313 1.554-.938h2.114a3.566 3.566 0 0 1-1.288 1.848c-.634.476-1.414.714-2.338.714-.746 0-1.418-.163-2.016-.49a3.604 3.604 0 0 1-1.386-1.414c-.326-.607-.49-1.307-.49-2.1 0-.803.164-1.507.49-2.114a3.42 3.42 0 0 1 1.372-1.4c.588-.327 1.265-.49 2.03-.49.738 0 1.396.159 1.974.476.588.317 1.041.77 1.358 1.358.327.579.49 1.246.49 2.002Zm-2.03-.56c-.009-.504-.191-.905-.546-1.204-.354-.308-.788-.462-1.302-.462-.485 0-.896.149-1.232.448-.326.289-.527.695-.602 1.218h3.682Zm5.421-5.754v10.36h-1.96v-10.36h1.96Z" fill="#000"/><rect x="107" y="121" width="28" height="28" rx="4" fill="#F3F5FF"/><path d="M122.976 134.08v1.152h-4.932v-1.152h4.932Z" fill="#000"/></svg>