<svg width="190" height="122" fill="none" xmlns="http://www.w3.org/2000/svg"><rect y=".127" width="190" height="121.748" rx="12" fill="#F3F5FF"/><g filter="url(#a)"><path d="M171 9H19a8 8 0 0 0-8 8v34a8 8 0 0 0 8 8h152a8 8 0 0 0 8-8V17a8 8 0 0 0-8-8Z" fill="#fff"/><path d="M19 10h152a7 7 0 0 1 7 7v34a7 7 0 0 1-7 7H19a7 7 0 0 1-7-7V17a7 7 0 0 1 7-7Z" stroke="#6985FF" stroke-width="2"/></g><path fill="#231F20" d="M20.68 16.553h1.845v33.204H20.68z"/><path d="M31.773 40.088v-12.97h-4.189v-1.43h10.13v1.43h-4.189v12.97h-1.752Zm7.239 3.665L41.005 39l-4.128-9.445h1.792l3.223 7.552 2.92-7.552h1.712l-5.82 14.198h-1.692Zm9.213 0V29.555h1.672v1.772c.604-1.027 2.034-1.954 3.565-1.954 2.759 0 4.793 2.014 4.793 5.297v.161c0 3.223-1.893 5.438-4.794 5.438-1.731 0-2.96-.866-3.564-1.913v5.397h-1.672ZM53.3 38.88c2.095 0 3.223-1.41 3.223-3.968v-.161c0-2.659-1.47-3.988-3.243-3.988-1.953 0-3.444 1.289-3.444 3.988v.16c0 2.7 1.41 3.968 3.464 3.968Zm11.362 1.39c-2.98 0-5.096-2.095-5.096-5.338v-.161c0-3.182 2.035-5.398 4.935-5.398 2.437 0 4.733 1.47 4.733 5.237v.544h-7.935c.08 2.396 1.228 3.725 3.383 3.725 1.631 0 2.578-.604 2.8-1.832h1.671c-.362 2.114-2.115 3.222-4.491 3.222Zm-3.303-6.466h6.163c-.161-2.175-1.29-3.04-3.021-3.04-1.712 0-2.86 1.167-3.142 3.04Zm14.77 6.284V24.52H77.8v6.706c.484-.987 1.652-1.853 3.384-1.853 2.175 0 3.706 1.189 3.706 4.25v6.465h-1.672v-6.586c0-1.853-.785-2.679-2.477-2.679-1.551 0-2.94.987-2.94 2.88v6.385h-1.672Zm15.846.181c-2.98 0-5.095-2.094-5.095-5.337v-.161c0-3.182 2.034-5.398 4.934-5.398 2.437 0 4.733 1.47 4.733 5.237v.544h-7.935c.08 2.396 1.229 3.725 3.384 3.725 1.631 0 2.578-.604 2.8-1.832h1.67c-.362 2.114-2.114 3.222-4.49 3.222Zm-3.302-6.465h6.162c-.16-2.175-1.289-3.04-3.02-3.04-1.712 0-2.86 1.167-3.142 3.04Zm9.94 6.284V29.555h1.671v1.893c.665-1.188 1.571-2.014 3.464-2.075v1.571c-2.115.101-3.464.766-3.464 3.364v5.78h-1.672Zm11.086.181c-2.98 0-5.095-2.094-5.095-5.337v-.161c0-3.182 2.034-5.398 4.934-5.398 2.437 0 4.733 1.47 4.733 5.237v.544h-7.935c.081 2.396 1.229 3.725 3.384 3.725 1.631 0 2.577-.604 2.799-1.832h1.672c-.363 2.114-2.115 3.222-4.492 3.222Zm-3.303-6.465h6.163c-.161-2.175-1.289-3.04-3.021-3.04-1.712 0-2.86 1.167-3.142 3.04Z" fill="#B4B6BC"/><path d="M67.293 88.293a1 1 0 0 0 0 1.414l6.364 6.364a1 1 0 0 0 1.414-1.414L69.414 89l5.657-5.657a1 1 0 0 0-1.414-1.414l-6.364 6.364ZM68 90h55v-2H68v2Z" fill="#000"/><defs><filter id="a" x="11" y="9" width="168" height="53.689" filterUnits="userSpaceOnUse" color-interpolation-filters="sRGB"><feFlood flood-opacity="0" result="BackgroundImageFix"/><feColorMatrix in="SourceAlpha" values="0 0 0 0 0 0 0 0 0 0 0 0 0 0 0 0 0 0 127 0" result="hardAlpha"/><feOffset dy="3.689"/><feComposite in2="hardAlpha" operator="out"/><feColorMatrix values="0 0 0 0 0.807813 0 0 0 0 0.842755 0 0 0 0 1 0 0 0 1 0"/><feBlend in2="BackgroundImageFix" result="effect1_dropShadow_6793_15429"/><feBlend in="SourceGraphic" in2="effect1_dropShadow_6793_15429" result="shape"/></filter></defs></svg>
