<svg width="20" height="20" viewBox="0 0 20 20" fill="none" xmlns="http://www.w3.org/2000/svg">
    <path d="M10.0007 6.66732C10.9173 6.66732 11.6673 5.91732 11.6673 5.00065C11.6673 4.08398 10.9173 3.33398 10.0007 3.33398C9.08398 3.33398 8.33398 4.08398 8.33398 5.00065C8.33398 5.91732 9.08398 6.66732 10.0007 6.66732ZM10.0007 8.33398C9.08398 8.33398 8.33398 9.08398 8.33398 10.0007C8.33398 10.9173 9.08398 11.6673 10.0007 11.6673C10.9173 11.6673 11.6673 10.9173 11.6673 10.0007C11.6673 9.08398 10.9173 8.33398 10.0007 8.33398ZM10.0007 13.334C9.08398 13.334 8.33398 14.084 8.33398 15.0007C8.33398 15.9173 9.08398 16.6673 10.0007 16.6673C10.9173 16.6673 11.6673 15.9173 11.6673 15.0007C11.6673 14.084 10.9173 13.334 10.0007 13.334Z" fill="#434343"/>
</svg>
