<svg width="24" height="24" viewBox="0 0 24 24" fill="none" xmlns="http://www.w3.org/2000/svg">
<g clip-path="url(#clip0_279_139)">
<path fill-rule="evenodd" clip-rule="evenodd" d="M12 3C15.8864 3 19 6.3967 19 10.5455C19 13.0599 17.7731 15.5137 15.755 17.8375C15.0658 18.6312 14.3298 19.3538 13.5933 19.9936C13.2596 20.2835 12.979 20.5113 12.7711 20.6714L12.5882 20.8087C12.2375 21.0638 11.7625 21.0638 11.4118 20.8087C11.2546 20.6944 11.0181 20.5104 10.722 20.2626L10.4067 19.9936C9.67019 19.3538 8.93419 18.6312 8.24497 17.8375C6.22691 15.5137 5 13.0599 5 10.5455C5 6.3967 8.11364 3 12 3ZM12 5C9.25894 5 7 7.4643 7 10.5455C7 12.4856 8.02309 14.5318 9.75503 16.5261C10.3783 17.2438 11.0486 17.9019 11.7183 18.4837L11.9992 18.7235L12.2817 18.4837C12.9514 17.9019 13.6217 17.2438 14.245 16.5261C15.9769 14.5318 17 12.4856 17 10.5455C17 7.4643 14.7411 5 12 5ZM12 7C13.6569 7 15 8.34315 15 10C15 11.6569 13.6569 13 12 13C10.3431 13 9 11.6569 9 10C9 8.34315 10.3431 7 12 7ZM12 9C11.4477 9 11 9.44772 11 10C11 10.5523 11.4477 11 12 11C12.5523 11 13 10.5523 13 10C13 9.44772 12.5523 9 12 9Z" fill="#001D2F"/>
</g>
<defs>
<clipPath id="clip0_279_139">
<rect width="24" height="24" fill="white"/>
</clipPath>
</defs>
</svg>
